<svg width="453" height="77" viewBox="0 0 453 77" fill="none" xmlns="http://www.w3.org/2000/svg">
<path d="M1.32101 1.27271H20.2841L40.3125 50.1364H41.1648L61.1932 1.27271H80.1562V74H65.2415V26.6634H64.6378L45.8168 73.6449H35.6605L16.8395 26.4858H16.2358V74H1.32101V1.27271ZM92.8249 74V1.27271H141.831V13.9503H108.201V31.2798H139.309V43.9574H108.201V61.3224H141.973V74H92.8249ZM179.837 74H154.055V1.27271H180.05C187.365 1.27271 193.662 2.72871 198.942 5.64061C204.221 8.52891 208.281 12.6837 211.122 18.1051C213.987 23.5265 215.419 30.0133 215.419 37.5653C215.419 45.1411 213.987 51.6515 211.122 57.0966C208.281 62.5417 204.197 66.7202 198.871 69.6321C193.568 72.544 187.223 74 179.837 74ZM169.432 60.8253H179.197C183.743 60.8253 187.566 60.0204 190.668 58.4105C193.793 56.777 196.136 54.2557 197.699 50.8466C199.285 47.4138 200.078 42.9867 200.078 37.5653C200.078 32.1913 199.285 27.7997 197.699 24.3906C196.136 20.9815 193.804 18.4721 190.703 16.8622C187.602 15.2524 183.778 14.4474 179.233 14.4474H169.432V60.8253Z" fill="#FA5656"/>
<path d="M220.719 13.9503V1.27271H280.449V13.9503H258.184V74H242.985V13.9503H220.719ZM306.95 75.0653C301.339 75.0653 296.509 73.929 292.461 71.6562C288.436 69.3598 285.335 66.1165 283.157 61.9261C280.979 57.7121 279.89 52.7287 279.89 46.9759C279.89 41.3651 280.979 36.4408 283.157 32.2031C285.335 27.9654 288.401 24.6629 292.354 22.2955C296.332 19.928 300.996 18.7443 306.346 18.7443C309.944 18.7443 313.294 19.3243 316.396 20.4844C319.521 21.6207 322.243 23.3371 324.563 25.6335C326.907 27.9299 328.73 30.8182 330.032 34.2983C331.334 37.7547 331.985 41.803 331.985 46.4432V50.598H285.927V41.223H317.745C317.745 39.045 317.272 37.1155 316.325 35.4347C315.378 33.7538 314.064 32.4399 312.383 31.4929C310.726 30.5223 308.796 30.0369 306.594 30.0369C304.298 30.0369 302.262 30.5696 300.487 31.6349C298.735 32.6766 297.362 34.0852 296.367 35.8608C295.373 37.6127 294.864 39.5658 294.84 41.7202V50.6335C294.84 53.3324 295.337 55.6643 296.332 57.6293C297.35 59.5942 298.782 61.1094 300.629 62.1747C302.475 63.2401 304.665 63.7727 307.198 63.7727C308.879 63.7727 310.418 63.536 311.815 63.0625C313.211 62.589 314.407 61.8788 315.401 60.9318C316.396 59.9848 317.153 58.8248 317.674 57.4517L331.665 58.375C330.955 61.7367 329.499 64.6723 327.298 67.1818C325.12 69.6676 322.302 71.6089 318.846 73.0057C315.413 74.3788 311.448 75.0653 306.95 75.0653ZM366.502 75.0653C360.915 75.0653 356.109 73.8816 352.085 71.5142C348.084 69.1231 345.006 65.8087 342.852 61.571C340.721 57.3333 339.656 52.4564 339.656 46.9403C339.656 41.3532 340.733 36.4527 342.887 32.2386C345.065 28.0009 348.155 24.6984 352.156 22.331C356.156 19.9399 360.915 18.7443 366.431 18.7443C371.19 18.7443 375.356 19.6084 378.931 21.3366C382.506 23.0649 385.335 25.4915 387.418 28.6165C389.502 31.7415 390.65 35.411 390.863 39.625H376.587C376.185 36.9025 375.12 34.7126 373.391 33.0554C371.687 31.3745 369.45 30.5341 366.68 30.5341C364.336 30.5341 362.288 31.1733 360.536 32.4517C358.808 33.7064 357.459 35.5412 356.488 37.956C355.517 40.3707 355.032 43.2945 355.032 46.7273C355.032 50.2074 355.505 53.1667 356.452 55.6051C357.423 58.0436 358.784 59.902 360.536 61.1804C362.288 62.4588 364.336 63.098 366.68 63.098C368.408 63.098 369.959 62.7429 371.332 62.0327C372.728 61.3224 373.877 60.2926 374.776 58.9432C375.7 57.5701 376.303 55.9247 376.587 54.0071H390.863C390.626 58.1738 389.49 61.8433 387.454 65.0156C385.442 68.1643 382.66 70.6264 379.109 72.402C375.558 74.1776 371.355 75.0653 366.502 75.0653ZM415.676 42.4659V74H400.549V1.27271H415.25V29.0781H415.89C417.121 25.8584 419.109 23.3371 421.855 21.5142C424.602 19.6676 428.046 18.7443 432.189 18.7443C435.977 18.7443 439.28 19.5729 442.097 21.2301C444.938 22.8636 447.14 25.2192 448.702 28.2969C450.288 31.3509 451.069 35.0085 451.046 39.2699V74H435.918V41.9688C435.942 38.607 435.089 35.991 433.361 34.1207C431.657 32.2505 429.266 31.3153 426.188 31.3153C424.128 31.3153 422.305 31.7533 420.719 32.6293C419.157 33.5052 417.926 34.7836 417.026 36.4645C416.15 38.1217 415.7 40.1222 415.676 42.4659Z" fill="#0E00B4"/>
<mask id="mask0_4_40" style="mask-type:luminance" maskUnits="userSpaceOnUse" x="0" y="0" width="453" height="77">
<path d="M453 0H0V77H453V0Z" fill="white"/>
<path d="M1.32102 1.27271H20.2841L40.3125 50.1364H41.1648L61.1932 1.27271H80.1562V74H65.2415V26.6634H64.6378L45.8168 73.6449H35.6605L16.8395 26.4858H16.2358V74H1.32102V1.27271ZM92.8249 74V1.27271H141.831V13.9503H108.201V31.2798H139.309V43.9574H108.201V61.3224H141.973V74H92.8249ZM179.837 74H154.055V1.27271H180.05C187.365 1.27271 193.662 2.72871 198.942 5.64061C204.221 8.52891 208.281 12.6837 211.122 18.1051C213.987 23.5265 215.419 30.0133 215.419 37.5653C215.419 45.1411 213.987 51.6515 211.122 57.0966C208.281 62.5417 204.197 66.7202 198.871 69.6321C193.568 72.544 187.223 74 179.837 74ZM169.432 60.8253H179.197C183.743 60.8253 187.566 60.0204 190.668 58.4105C193.793 56.777 196.136 54.2557 197.699 50.8466C199.285 47.4138 200.078 42.9867 200.078 37.5653C200.078 32.1913 199.285 27.7997 197.699 24.3906C196.136 20.9815 193.804 18.4721 190.703 16.8622C187.602 15.2524 183.778 14.4474 179.233 14.4474H169.432V60.8253Z" fill="black"/>
<path d="M220.719 13.9503V1.27271H280.449V13.9503H258.184V74H242.985V13.9503H220.719ZM306.95 75.0653C301.339 75.0653 296.509 73.929 292.461 71.6562C288.436 69.3598 285.335 66.1165 283.157 61.9261C280.979 57.7121 279.89 52.7287 279.89 46.9759C279.89 41.3651 280.979 36.4408 283.157 32.2031C285.335 27.9654 288.401 24.6629 292.354 22.2955C296.332 19.928 300.996 18.7443 306.346 18.7443C309.944 18.7443 313.294 19.3243 316.396 20.4844C319.521 21.6207 322.243 23.3371 324.563 25.6335C326.907 27.9299 328.73 30.8182 330.032 34.2983C331.334 37.7547 331.985 41.803 331.985 46.4432V50.598H285.927V41.223H317.745C317.745 39.045 317.272 37.1155 316.325 35.4347C315.378 33.7538 314.064 32.4399 312.383 31.4929C310.726 30.5223 308.796 30.0369 306.594 30.0369C304.298 30.0369 302.262 30.5696 300.487 31.6349C298.735 32.6766 297.362 34.0852 296.367 35.8608C295.373 37.6127 294.864 39.5658 294.84 41.7202V50.6335C294.84 53.3324 295.337 55.6643 296.332 57.6293C297.35 59.5942 298.782 61.1094 300.629 62.1747C302.475 63.2401 304.665 63.7727 307.198 63.7727C308.879 63.7727 310.418 63.536 311.815 63.0625C313.211 62.589 314.407 61.8788 315.401 60.9318C316.396 59.9848 317.153 58.8248 317.674 57.4517L331.665 58.375C330.955 61.7367 329.499 64.6723 327.298 67.1818C325.12 69.6676 322.302 71.6089 318.846 73.0057C315.413 74.3788 311.448 75.0653 306.95 75.0653ZM366.502 75.0653C360.915 75.0653 356.109 73.8816 352.085 71.5142C348.084 69.1231 345.006 65.8087 342.852 61.571C340.721 57.3333 339.656 52.4564 339.656 46.9403C339.656 41.3532 340.733 36.4527 342.887 32.2386C345.065 28.0009 348.155 24.6984 352.156 22.331C356.156 19.9399 360.915 18.7443 366.431 18.7443C371.19 18.7443 375.356 19.6084 378.931 21.3366C382.506 23.0649 385.335 25.4915 387.418 28.6165C389.502 31.7415 390.65 35.411 390.863 39.625H376.587C376.185 36.9025 375.12 34.7126 373.391 33.0554C371.687 31.3745 369.45 30.5341 366.68 30.5341C364.336 30.5341 362.288 31.1733 360.536 32.4517C358.808 33.7064 357.459 35.5412 356.488 37.956C355.517 40.3707 355.032 43.2945 355.032 46.7273C355.032 50.2074 355.505 53.1667 356.452 55.6051C357.423 58.0436 358.784 59.902 360.536 61.1804C362.288 62.4588 364.336 63.098 366.68 63.098C368.408 63.098 369.959 62.7429 371.332 62.0327C372.728 61.3224 373.877 60.2926 374.776 58.9432C375.7 57.5701 376.303 55.9247 376.587 54.0071H390.863C390.626 58.1738 389.49 61.8433 387.454 65.0156C385.442 68.1643 382.66 70.6264 379.109 72.402C375.558 74.1776 371.355 75.0653 366.502 75.0653ZM415.676 42.4659V74H400.549V1.27271H415.25V29.0781H415.89C417.121 25.8584 419.109 23.3371 421.855 21.5142C424.602 19.6676 428.046 18.7443 432.189 18.7443C435.977 18.7443 439.28 19.5729 442.097 21.2301C444.938 22.8636 447.14 25.2192 448.702 28.2969C450.288 31.3509 451.069 35.0085 451.046 39.2699V74H435.918V41.9688C435.942 38.607 435.089 35.991 433.361 34.1207C431.657 32.2505 429.266 31.3153 426.188 31.3153C424.128 31.3153 422.305 31.7533 420.719 32.6293C419.157 33.5052 417.926 34.7836 417.026 36.4645C416.15 38.1217 415.7 40.1222 415.676 42.4659Z" fill="black"/>
</mask>
<g mask="url(#mask0_4_40)">
<path d="M1.32102 1.27271V0.272705H0.321022V1.27271H1.32102ZM20.2841 1.27271L21.2094 0.893505L20.9549 0.272705H20.2841V1.27271ZM40.3125 50.1364L39.3872 50.5156L39.6416 51.1364H40.3125V50.1364ZM41.1648 50.1364V51.1364H41.8356L42.0901 50.5156L41.1648 50.1364ZM61.1932 1.27271V0.272705H60.5223L60.2679 0.893505L61.1932 1.27271ZM80.1562 1.27271H81.1562V0.272705H80.1562V1.27271ZM80.1562 74V75H81.1562V74H80.1562ZM65.2415 74H64.2415V75H65.2415V74ZM65.2415 26.6634H66.2415V25.6634H65.2415V26.6634ZM64.6378 26.6634V25.6634H63.9611L63.7095 26.2915L64.6378 26.6634ZM45.8168 73.6449V74.6449H46.4934L46.745 74.0168L45.8168 73.6449ZM35.6605 73.6449L34.7317 74.0156L34.9829 74.6449H35.6605V73.6449ZM16.8395 26.4858L17.7683 26.1151L17.5171 25.4858H16.8395V26.4858ZM16.2358 26.4858V25.4858H15.2358V26.4858H16.2358ZM16.2358 74V75H17.2358V74H16.2358ZM1.32102 74H0.321022V75H1.32102V74ZM1.32102 2.27271H20.2841V0.272705H1.32102V2.27271ZM19.3588 1.65201L39.3872 50.5156L41.2378 49.7571L21.2094 0.893505L19.3588 1.65201ZM40.3125 51.1364H41.1648V49.1364H40.3125V51.1364ZM42.0901 50.5156L62.1185 1.65201L60.2679 0.893505L40.2395 49.7571L42.0901 50.5156ZM61.1932 2.27271H80.1562V0.272705H61.1932V2.27271ZM79.1562 1.27271V74H81.1562V1.27271H79.1562ZM80.1562 73H65.2415V75H80.1562V73ZM66.2415 74V26.6634H64.2415V74H66.2415ZM65.2415 25.6634H64.6378V27.6634H65.2415V25.6634ZM63.7095 26.2915L44.8885 73.273L46.745 74.0168L65.5661 27.0352L63.7095 26.2915ZM45.8168 72.6449H35.6605V74.6449H45.8168V72.6449ZM36.5893 73.2742L17.7683 26.1151L15.9107 26.8565L34.7317 74.0156L36.5893 73.2742ZM16.8395 25.4858H16.2358V27.4858H16.8395V25.4858ZM15.2358 26.4858V74H17.2358V26.4858H15.2358ZM16.2358 73H1.32102V75H16.2358V73ZM2.32102 74V1.27271H0.321022V74H2.32102ZM92.8249 74H91.8249V75H92.8249V74ZM92.8249 1.27271V0.272705H91.8249V1.27271H92.8249ZM141.831 1.27271H142.831V0.272705H141.831V1.27271ZM141.831 13.9503V14.9503H142.831V13.9503H141.831ZM108.201 13.9503V12.9503H107.201V13.9503H108.201ZM108.201 31.2798H107.201V32.2798H108.201V31.2798ZM139.309 31.2798H140.309V30.2798H139.309V31.2798ZM139.309 43.9574V44.9574H140.309V43.9574H139.309ZM108.201 43.9574V42.9574H107.201V43.9574H108.201ZM108.201 61.3224H107.201V62.3224H108.201V61.3224ZM141.973 61.3224H142.973V60.3224H141.973V61.3224ZM141.973 74V75H142.973V74H141.973ZM93.8249 74V1.27271H91.8249V74H93.8249ZM92.8249 2.27271H141.831V0.272705H92.8249V2.27271ZM140.831 1.27271V13.9503H142.831V1.27271H140.831ZM141.831 12.9503H108.201V14.9503H141.831V12.9503ZM107.201 13.9503V31.2798H109.201V13.9503H107.201ZM108.201 32.2798H139.309V30.2798H108.201V32.2798ZM138.309 31.2798V43.9574H140.309V31.2798H138.309ZM139.309 42.9574H108.201V44.9574H139.309V42.9574ZM107.201 43.9574V61.3224H109.201V43.9574H107.201ZM108.201 62.3224H141.973V60.3224H108.201V62.3224ZM140.973 61.3224V74H142.973V61.3224H140.973ZM141.973 73H92.8249V75H141.973V73ZM154.055 74H153.055V75H154.055V74ZM154.055 1.27271V0.272705H153.055V1.27271H154.055ZM198.942 5.64061L198.459 6.51631L198.462 6.51791L198.942 5.64061ZM211.122 18.1051L210.236 18.5693L210.238 18.5723L211.122 18.1051ZM211.122 57.0966L210.237 56.631L210.236 56.634L211.122 57.0966ZM198.871 69.6321L198.391 68.7547L198.389 68.7556L198.871 69.6321ZM169.432 60.8253H168.432V61.8253H169.432V60.8253ZM190.668 58.4105L191.128 59.2981L191.131 59.2967L190.668 58.4105ZM197.699 50.8466L196.791 50.4271L196.79 50.4299L197.699 50.8466ZM197.699 24.3906L196.79 24.8073L196.792 24.8125L197.699 24.3906ZM169.432 14.4474V13.4474H168.432V14.4474H169.432ZM179.837 73H154.055V75H179.837V73ZM155.055 74V1.27271H153.055V74H155.055ZM154.055 2.27271H180.05V0.272705H154.055V2.27271ZM180.05 2.27271C187.232 2.27271 193.356 3.70161 198.459 6.51631L199.425 4.76501C193.969 1.75581 187.498 0.272705 180.05 0.272705V2.27271ZM198.462 6.51791C203.565 9.30981 207.485 13.3194 210.236 18.5693L212.008 17.641C209.077 12.048 204.877 7.74801 199.422 4.76331L198.462 6.51791ZM210.238 18.5723C213.011 23.8201 214.419 30.1389 214.419 37.5653H216.419C216.419 29.8876 214.963 23.2329 212.006 17.6379L210.238 18.5723ZM214.419 37.5653C214.419 45.0158 213.011 51.359 210.237 56.631L212.007 57.5622C214.963 51.944 216.419 45.2663 216.419 37.5653H214.419ZM210.236 56.634C207.485 61.9058 203.542 65.9389 198.391 68.7547L199.35 70.5096C204.853 67.5015 209.077 63.1776 212.009 57.5592L210.236 56.634ZM198.389 68.7556C193.263 71.5704 187.092 73 179.837 73V75C187.354 75 193.872 73.5176 199.352 70.5086L198.389 68.7556ZM169.432 61.8253H179.197V59.8253H169.432V61.8253ZM179.197 61.8253C183.857 61.8253 187.848 61.0006 191.128 59.2981L190.207 57.523C187.284 59.0401 183.629 59.8253 179.197 59.8253V61.8253ZM191.131 59.2967C194.465 57.5537 196.959 54.8603 198.608 51.2632L196.79 50.4299C195.313 53.6511 193.12 56.0003 190.204 57.5243L191.131 59.2967ZM198.607 51.266C200.274 47.6576 201.078 43.0734 201.078 37.5653H199.078C199.078 42.9001 198.296 47.1701 196.791 50.4271L198.607 51.266ZM201.078 37.5653C201.078 32.1036 200.274 27.5541 198.606 23.9688L196.792 24.8125C198.296 28.0453 199.078 32.279 199.078 37.5653H201.078ZM198.608 23.974C196.96 20.3782 194.478 17.6949 191.164 15.9747L190.242 17.7498C193.131 19.2492 195.313 21.5849 196.79 24.8073L198.608 23.974ZM191.164 15.9747C187.884 14.2721 183.892 13.4474 179.233 13.4474V15.4474C183.665 15.4474 187.32 16.2326 190.242 17.7498L191.164 15.9747ZM179.233 13.4474H169.432V15.4474H179.233V13.4474ZM168.432 14.4474V60.8253H170.432V14.4474H168.432ZM220.719 13.9503H219.719V14.9503H220.719V13.9503ZM220.719 1.27271V0.272705H219.719V1.27271H220.719ZM280.449 1.27271H281.449V0.272705H280.449V1.27271ZM280.449 13.9503V14.9503H281.449V13.9503H280.449ZM258.184 13.9503V12.9503H257.184V13.9503H258.184ZM258.184 74V75H259.184V74H258.184ZM242.985 74H241.985V75H242.985V74ZM242.985 13.9503H243.985V12.9503H242.985V13.9503ZM221.719 13.9503V1.27271H219.719V13.9503H221.719ZM220.719 2.27271H280.449V0.272705H220.719V2.27271ZM279.449 1.27271V13.9503H281.449V1.27271H279.449ZM280.449 12.9503H258.184V14.9503H280.449V12.9503ZM257.184 13.9503V74H259.184V13.9503H257.184ZM258.184 73H242.985V75H258.184V73ZM243.985 74V13.9503H241.985V74H243.985ZM242.985 12.9503H220.719V14.9503H242.985V12.9503ZM292.461 71.6562L291.965 72.5248L291.971 72.5282L292.461 71.6562ZM283.157 61.9261L282.269 62.3853L282.27 62.3873L283.157 61.9261ZM292.354 22.2955L291.843 21.4362L291.841 21.4375L292.354 22.2955ZM316.396 20.4844L316.045 21.421L316.054 21.4242L316.396 20.4844ZM324.563 25.6335L323.86 26.3443L323.863 26.3478L324.563 25.6335ZM330.032 34.2983L329.095 34.6487L329.096 34.6508L330.032 34.2983ZM331.985 50.598V51.598H332.985V50.598H331.985ZM285.927 50.598H284.927V51.598H285.927V50.598ZM285.927 41.223V40.223H284.927V41.223H285.927ZM317.745 41.223V42.223H318.745V41.223H317.745ZM312.383 31.4929L311.877 32.3558L311.885 32.36L311.892 32.3641L312.383 31.4929ZM300.487 31.6349L300.998 32.4945L301.001 32.4924L300.487 31.6349ZM296.367 35.8608L297.237 36.3544L297.24 36.3494L296.367 35.8608ZM294.84 41.7202L293.84 41.7092V41.7202H294.84ZM296.332 57.6293L295.439 58.0808L295.444 58.0893L296.332 57.6293ZM317.674 57.4517L317.74 56.4539L317.001 56.4051L316.739 57.0971L317.674 57.4517ZM331.665 58.375L332.644 58.5817L332.882 57.4531L331.731 57.3772L331.665 58.375ZM327.298 67.1818L326.546 66.5223L326.545 66.5228L327.298 67.1818ZM318.846 73.0057L319.217 73.9342L319.221 73.9328L318.846 73.0057ZM306.95 74.0653C301.475 74.0653 296.821 72.9572 292.95 70.7843L291.971 72.5282C296.197 74.9008 301.203 76.0653 306.95 76.0653V74.0653ZM292.957 70.7877C289.102 68.5885 286.135 65.4881 284.044 61.4649L282.27 62.3873C284.535 66.7448 287.77 70.1312 291.965 72.5248L292.957 70.7877ZM284.045 61.467C281.955 57.422 280.89 52.6025 280.89 46.9759H278.89C278.89 52.8549 280.003 58.0022 282.269 62.3853L284.045 61.467ZM280.89 46.9759C280.89 41.4959 281.953 36.7334 284.046 32.6602L282.268 31.746C280.005 36.1482 278.89 41.2342 278.89 46.9759H280.89ZM284.046 32.6602C286.142 28.5827 289.08 25.4215 292.868 23.1534L291.841 21.4375C287.721 23.9042 284.528 27.3482 282.268 31.746L284.046 32.6602ZM292.866 23.1547C296.666 20.893 301.147 19.7443 306.346 19.7443V17.7443C300.844 17.7443 295.998 18.9631 291.843 21.4362L292.866 23.1547ZM306.346 19.7443C309.835 19.7443 313.065 20.3064 316.045 21.421L316.746 19.5478C313.523 18.3423 310.054 17.7443 306.346 17.7443V19.7443ZM316.054 21.4242C319.046 22.5121 321.644 24.1515 323.86 26.3443L325.267 24.9228C322.842 22.5229 319.995 20.7293 316.737 19.5446L316.054 21.4242ZM323.863 26.3478C326.089 28.5289 327.838 31.2876 329.095 34.6487L330.969 33.9479C329.622 30.3488 327.724 27.3309 325.263 24.9192L323.863 26.3478ZM329.096 34.6508C330.346 37.9698 330.985 41.8938 330.985 46.4432H332.985C332.985 41.7122 332.322 37.5396 330.968 33.9458L329.096 34.6508ZM330.985 46.4432V50.598H332.985V46.4432H330.985ZM331.985 49.598H285.927V51.598H331.985V49.598ZM286.927 50.598V41.223H284.927V50.598H286.927ZM285.927 42.223H317.745V40.223H285.927V42.223ZM318.745 41.223C318.745 38.8956 318.238 36.793 317.196 34.9438L315.453 35.9255C316.305 37.4381 316.745 39.1944 316.745 41.223H318.745ZM317.196 34.9438C316.159 33.1038 314.714 31.6583 312.874 30.6216L311.892 32.3641C313.414 33.2214 314.596 34.4038 315.453 35.9255L317.196 34.9438ZM312.888 30.63C311.056 29.5571 308.947 29.0369 306.594 29.0369V31.0369C308.645 31.0369 310.395 31.4874 311.877 32.3558L312.888 30.63ZM306.594 29.0369C304.137 29.0369 301.92 29.6089 299.972 30.7774L301.001 32.4924C302.605 31.5303 304.459 31.0369 306.594 31.0369V29.0369ZM299.975 30.7754C298.073 31.9067 296.575 33.4431 295.495 35.3722L297.24 36.3494C298.148 34.7273 299.396 33.4465 300.998 32.4945L299.975 30.7754ZM295.498 35.3672C294.414 37.2765 293.866 39.3977 293.84 41.7092L295.84 41.7312C295.862 39.734 296.332 37.9488 297.237 36.3544L295.498 35.3672ZM293.84 41.7202V50.6335H295.84V41.7202H293.84ZM293.84 50.6335C293.84 53.4544 294.36 55.9478 295.439 58.0808L297.224 57.1778C296.315 55.3808 295.84 53.2103 295.84 50.6335H293.84ZM295.444 58.0893C296.546 60.2171 298.11 61.8763 300.129 63.0409L301.128 61.3085C299.454 60.3425 298.153 58.9713 297.22 57.1693L295.444 58.0893ZM300.129 63.0409C302.154 64.2091 304.523 64.7727 307.198 64.7727V62.7727C304.807 62.7727 302.797 62.271 301.128 61.3085L300.129 63.0409ZM307.198 64.7727C308.973 64.7727 310.622 64.5226 312.136 64.0096L311.494 62.1154C310.214 62.5493 308.785 62.7727 307.198 62.7727V64.7727ZM312.136 64.0096C313.66 63.4929 314.984 62.7104 316.091 61.656L314.712 60.2077C313.83 61.0472 312.763 61.6851 311.494 62.1154L312.136 64.0096ZM316.091 61.656C317.201 60.5987 318.039 59.3095 318.609 57.8064L316.739 57.0971C316.268 58.3401 315.59 59.371 314.712 60.2077L316.091 61.656ZM317.608 58.4495L331.6 59.3728L331.731 57.3772L317.74 56.4539L317.608 58.4495ZM330.687 58.1683C330.011 61.3673 328.631 64.1457 326.546 66.5223L328.049 67.8413C330.368 65.199 331.899 62.1062 332.644 58.5817L330.687 58.1683ZM326.545 66.5228C324.483 68.8766 321.801 70.7328 318.471 72.0785L319.221 73.9328C322.803 72.485 325.756 70.4586 328.05 67.8408L326.545 66.5228ZM318.474 72.0772C315.182 73.394 311.347 74.0653 306.95 74.0653V76.0653C311.548 76.0653 315.644 75.3635 319.217 73.9342L318.474 72.0772ZM352.085 71.5142L351.572 72.3726L351.577 72.3761L352.085 71.5142ZM342.852 61.571L341.958 62.0202L341.96 62.0242L342.852 61.571ZM342.887 32.2386L341.998 31.7815L341.997 31.7834L342.887 32.2386ZM352.156 22.331L352.665 23.1916L352.669 23.1894L352.156 22.331ZM390.863 39.625V40.625H391.915L391.862 39.5745L390.863 39.625ZM376.587 39.625L375.598 39.7712L375.724 40.625H376.587V39.625ZM373.391 33.0554L372.689 33.7675L372.699 33.7772L373.391 33.0554ZM360.536 32.4517L361.124 33.2609L361.126 33.2595L360.536 32.4517ZM356.452 55.6051L355.52 55.9671L355.523 55.9749L356.452 55.6051ZM371.332 62.0327L370.878 61.1413L370.872 61.1445L371.332 62.0327ZM374.776 58.9432L373.946 58.3852L373.944 58.3885L374.776 58.9432ZM376.587 54.0071V53.0071H375.725L375.598 53.8606L376.587 54.0071ZM390.863 54.0071L391.861 54.0638L391.921 53.0071H390.863V54.0071ZM387.454 65.0156L386.612 64.4755L386.611 64.4771L387.454 65.0156ZM366.502 74.0653C361.058 74.0653 356.435 72.913 352.592 70.6523L351.577 72.3761C355.784 74.8503 360.772 76.0653 366.502 76.0653V74.0653ZM352.598 70.6558C348.762 68.3634 345.814 65.191 343.743 61.1178L341.96 62.0242C344.198 66.4264 347.405 69.8828 351.572 72.3726L352.598 70.6558ZM343.745 61.1218C341.695 57.0446 340.656 52.3259 340.656 46.9403H338.656C338.656 52.587 339.747 57.6221 341.958 62.0202L343.745 61.1218ZM340.656 46.9403C340.656 41.483 341.707 36.7436 343.777 32.6938L341.997 31.7834C339.758 36.1617 338.656 41.2234 338.656 46.9403H340.656ZM343.776 32.6958C345.871 28.6213 348.83 25.4605 352.665 23.1916L351.646 21.4703C347.479 23.9362 344.26 27.3806 341.998 31.7815L343.776 32.6958ZM352.669 23.1894C356.488 20.9067 361.062 19.7443 366.431 19.7443V17.7443C360.768 17.7443 355.825 18.973 351.643 21.4726L352.669 23.1894ZM366.431 19.7443C371.068 19.7443 375.081 20.5861 378.496 22.237L379.366 20.4363C375.632 18.6308 371.311 17.7443 366.431 17.7443V19.7443ZM378.496 22.237C381.919 23.8921 384.608 26.2033 386.586 29.1712L388.25 28.0618C386.062 24.7796 383.092 22.2376 379.366 20.4363L378.496 22.237ZM386.586 29.1712C388.558 32.1283 389.659 35.6187 389.864 39.6755L391.862 39.5745C391.641 35.2032 390.446 31.3546 388.25 28.0618L386.586 29.1712ZM390.863 38.625H376.587V40.625H390.863V38.625ZM377.577 39.4788C377.147 36.571 375.995 34.1668 374.083 32.3336L372.699 33.7772C374.244 35.2584 375.223 37.2339 375.598 39.7712L377.577 39.4788ZM374.093 32.3434C372.172 30.4489 369.668 29.5341 366.68 29.5341V31.5341C369.231 31.5341 371.201 32.3003 372.689 33.7675L374.093 32.3434ZM366.68 29.5341C364.142 29.5341 361.884 30.2304 359.947 31.6439L361.126 33.2595C362.692 32.1162 364.53 31.5341 366.68 31.5341V29.5341ZM359.949 31.6425C358.038 33.0297 356.585 35.032 355.56 37.583L357.416 38.3289C358.332 36.0504 359.578 34.3832 361.124 33.2609L359.949 31.6425ZM355.56 37.583C354.529 40.1476 354.032 43.2053 354.032 46.7273H356.032C356.032 43.3837 356.505 40.5939 357.416 38.3289L355.56 37.583ZM354.032 46.7273C354.032 50.2926 354.516 53.382 355.52 55.9671L357.385 55.2431C356.495 52.9513 356.032 50.1221 356.032 46.7273H354.032ZM355.523 55.9749C356.549 58.5514 358.013 60.5773 359.947 61.9882L361.126 60.3726C359.555 59.2266 358.297 57.5357 357.382 55.2353L355.523 55.9749ZM359.947 61.9882C361.884 63.4018 364.142 64.098 366.68 64.098V62.098C364.53 62.098 362.692 61.5159 361.126 60.3726L359.947 61.9882ZM366.68 64.098C368.549 64.098 370.26 63.7129 371.791 62.9209L370.872 61.1445C369.657 61.7729 368.267 62.098 366.68 62.098V64.098ZM371.785 62.9241C373.34 62.1332 374.617 60.985 375.608 59.4979L373.944 58.3885C373.136 59.6002 372.117 60.5117 370.878 61.1413L371.785 62.9241ZM375.606 59.5012C376.626 57.985 377.274 56.1935 377.577 54.1537L375.598 53.8606C375.332 55.656 374.774 57.1551 373.946 58.3852L375.606 59.5012ZM376.587 55.0071H390.863V53.0071H376.587V55.0071ZM389.865 53.9504C389.636 57.9639 388.546 61.4632 386.612 64.4755L388.295 65.5557C390.434 62.2234 391.616 58.3836 391.861 54.0638L389.865 53.9504ZM386.611 64.4771C384.702 67.464 382.062 69.8075 378.661 71.5076L379.556 73.2964C383.258 71.4453 386.181 68.8646 388.296 65.5541L386.611 64.4771ZM378.661 71.5076C375.277 73.2 371.234 74.0653 366.502 74.0653V76.0653C371.477 76.0653 375.838 75.1552 379.556 73.2964L378.661 71.5076ZM415.676 42.4659L414.676 42.4558V42.4659H415.676ZM415.676 74V75H416.676V74H415.676ZM400.549 74H399.549V75H400.549V74ZM400.549 1.27271V0.272705H399.549V1.27271H400.549ZM415.25 1.27271H416.25V0.272705H415.25V1.27271ZM415.25 29.0781H414.25V30.0781H415.25V29.0781ZM415.89 29.0781V30.0781H416.578L416.824 29.4353L415.89 29.0781ZM421.855 21.5142L422.409 22.3474L422.413 22.344L421.855 21.5142ZM442.097 21.2301L441.59 22.0921L441.598 22.097L442.097 21.2301ZM448.702 28.2969L447.81 28.7496L447.815 28.7578L448.702 28.2969ZM451.046 39.2699L450.046 39.2643V39.2699H451.046ZM451.046 74V75H452.046V74H451.046ZM435.918 74H434.918V75H435.918V74ZM435.918 41.9688L434.918 41.9617V41.9688H435.918ZM433.361 34.1207L432.622 34.7944L432.627 34.7994L433.361 34.1207ZM420.719 32.6293L420.236 31.7539L420.23 31.757L420.719 32.6293ZM417.026 36.4645L416.144 35.9926L416.142 35.9972L417.026 36.4645ZM414.676 42.4659V74H416.676V42.4659H414.676ZM415.676 73H400.549V75H415.676V73ZM401.549 74V1.27271H399.549V74H401.549ZM400.549 2.27271H415.25V0.272705H400.549V2.27271ZM414.25 1.27271V29.0781H416.25V1.27271H414.25ZM415.25 30.0781H415.89V28.0781H415.25V30.0781ZM416.824 29.4353C417.984 26.4006 419.844 24.0496 422.409 22.3474L421.302 20.681C418.374 22.6246 416.257 25.3163 414.956 28.721L416.824 29.4353ZM422.413 22.344C424.957 20.6334 428.195 19.7443 432.189 19.7443V17.7443C427.898 17.7443 424.246 18.7018 421.297 20.6844L422.413 22.344ZM432.189 19.7443C435.828 19.7443 438.949 20.5389 441.59 22.0921L442.604 20.3682C439.61 18.6071 436.127 17.7443 432.189 17.7443V19.7443ZM441.598 22.097C444.262 23.6283 446.331 25.8356 447.81 28.7496L449.594 27.8442C447.948 24.6029 445.614 22.0989 442.595 20.3632L441.598 22.097ZM447.815 28.7578C449.31 31.6374 450.069 35.1272 450.046 39.2643L452.046 39.2754C452.07 34.8898 451.266 31.0643 449.59 27.836L447.815 28.7578ZM450.046 39.2699V74H452.046V39.2699H450.046ZM451.046 73H435.918V75H451.046V73ZM436.918 74V41.9688H434.918V74H436.918ZM436.918 41.9758C436.943 38.4435 436.046 35.5523 434.096 33.4421L432.627 34.7994C434.133 36.4297 434.94 38.7705 434.918 41.9617L436.918 41.9758ZM434.1 33.4471C432.166 31.3248 429.481 30.3153 426.188 30.3153V32.3153C429.05 32.3153 431.147 33.1762 432.622 34.7944L434.1 33.4471ZM426.188 30.3153C423.983 30.3153 421.989 30.7856 420.236 31.7539L421.203 33.5046C422.621 32.7211 424.274 32.3153 426.188 32.3153V30.3153ZM420.23 31.757C418.49 32.7323 417.128 34.1549 416.144 35.9926L417.908 36.9364C418.723 35.4124 419.823 34.2781 421.208 33.5015L420.23 31.757ZM416.142 35.9972C415.175 37.8263 414.701 39.9917 414.677 42.4558L416.676 42.476C416.699 40.2526 417.125 38.4171 417.91 36.9318L416.142 35.9972Z" fill="white"/>
</g>
</svg>
