<svg width="462" height="169" viewBox="0 0 462 169" fill="none" xmlns="http://www.w3.org/2000/svg">
<path d="M6.32102 24.2727H25.2841L45.3125 73.1364H46.1648L66.1932 24.2727H85.1562V97H70.2415V49.6634H69.6378L50.8168 96.6449H40.6605L21.8395 49.4858H21.2358V97H6.32102V24.2727ZM97.8249 97V24.2727H146.831V36.9503H113.201V54.2798H144.309V66.9574H113.201V84.3224H146.973V97H97.8249ZM184.837 97H159.055V24.2727H185.05C192.365 24.2727 198.662 25.7287 203.942 28.6406C209.221 31.5289 213.281 35.6837 216.122 41.1051C218.987 46.5265 220.419 53.0133 220.419 60.5653C220.419 68.1411 218.987 74.6515 216.122 80.0966C213.281 85.5417 209.197 89.7202 203.871 92.6321C198.568 95.544 192.223 97 184.837 97ZM174.432 83.8253H184.197C188.743 83.8253 192.566 83.0204 195.668 81.4105C198.793 79.777 201.136 77.2557 202.699 73.8466C204.285 70.4138 205.078 65.9867 205.078 60.5653C205.078 55.1913 204.285 50.7997 202.699 47.3906C201.136 43.9815 198.804 41.4721 195.703 39.8622C192.602 38.2524 188.778 37.4474 184.233 37.4474H174.432V83.8253Z" fill="#FA5656"/>
<path d="M225.719 36.9503V24.2727H285.449V36.9503H263.184V97H247.985V36.9503H225.719ZM311.95 98.0653C306.339 98.0653 301.509 96.929 297.461 94.6562C293.436 92.3598 290.335 89.1165 288.157 84.9261C285.979 80.7121 284.89 75.7287 284.89 69.9759C284.89 64.3651 285.979 59.4408 288.157 55.2031C290.335 50.9654 293.401 47.6629 297.354 45.2955C301.332 42.928 305.996 41.7443 311.346 41.7443C314.944 41.7443 318.294 42.3243 321.396 43.4844C324.521 44.6207 327.243 46.3371 329.563 48.6335C331.907 50.9299 333.73 53.8182 335.032 57.2983C336.334 60.7547 336.985 64.803 336.985 69.4432V73.598H290.927V64.223H322.745C322.745 62.045 322.272 60.1155 321.325 58.4347C320.378 56.7538 319.064 55.4399 317.383 54.4929C315.726 53.5223 313.796 53.0369 311.594 53.0369C309.298 53.0369 307.262 53.5696 305.487 54.6349C303.735 55.6766 302.362 57.0852 301.367 58.8608C300.373 60.6127 299.864 62.5658 299.84 64.7202V73.6335C299.84 76.3324 300.337 78.6643 301.332 80.6293C302.35 82.5942 303.782 84.1094 305.629 85.1747C307.475 86.2401 309.665 86.7727 312.198 86.7727C313.879 86.7727 315.418 86.536 316.815 86.0625C318.211 85.589 319.407 84.8788 320.401 83.9318C321.396 82.9848 322.153 81.8248 322.674 80.4517L336.665 81.375C335.955 84.7367 334.499 87.6723 332.298 90.1818C330.12 92.6676 327.302 94.6089 323.846 96.0057C320.413 97.3788 316.448 98.0653 311.95 98.0653ZM371.502 98.0653C365.915 98.0653 361.109 96.8816 357.085 94.5142C353.084 92.1231 350.006 88.8087 347.852 84.571C345.721 80.3333 344.656 75.4564 344.656 69.9403C344.656 64.3532 345.733 59.4527 347.887 55.2386C350.065 51.0009 353.155 47.6984 357.156 45.331C361.156 42.9399 365.915 41.7443 371.431 41.7443C376.19 41.7443 380.356 42.6084 383.931 44.3366C387.506 46.0649 390.335 48.4915 392.418 51.6165C394.502 54.7415 395.65 58.411 395.863 62.625H381.587C381.185 59.9025 380.12 57.7126 378.391 56.0554C376.687 54.3745 374.45 53.5341 371.68 53.5341C369.336 53.5341 367.288 54.1733 365.536 55.4517C363.808 56.7064 362.459 58.5412 361.488 60.956C360.517 63.3707 360.032 66.2945 360.032 69.7273C360.032 73.2074 360.505 76.1667 361.452 78.6051C362.423 81.0436 363.784 82.902 365.536 84.1804C367.288 85.4588 369.336 86.098 371.68 86.098C373.408 86.098 374.959 85.7429 376.332 85.0327C377.728 84.3224 378.877 83.2926 379.776 81.9432C380.7 80.5701 381.303 78.9247 381.587 77.0071H395.863C395.626 81.1738 394.49 84.8433 392.454 88.0156C390.442 91.1643 387.66 93.6264 384.109 95.402C380.558 97.1776 376.355 98.0653 371.502 98.0653ZM420.676 65.4659V97H405.549V24.2727H420.25V52.0781H420.89C422.121 48.8584 424.109 46.3371 426.855 44.5142C429.602 42.6676 433.046 41.7443 437.189 41.7443C440.977 41.7443 444.28 42.5729 447.097 44.2301C449.938 45.8636 452.14 48.2192 453.702 51.2969C455.288 54.3509 456.069 58.0085 456.046 62.2699V97H440.918V64.9688C440.942 61.607 440.089 58.991 438.361 57.1207C436.657 55.2505 434.266 54.3153 431.188 54.3153C429.128 54.3153 427.305 54.7533 425.719 55.6293C424.157 56.5052 422.926 57.7836 422.026 59.4645C421.15 61.1217 420.7 63.1222 420.676 65.4659Z" fill="#0E00B4"/>
<path d="M77.52 136.08V132.8H96.84V136.08H88.92V160H85.44V136.08H77.52ZM112.575 158.84C111.375 159.427 110.175 159.827 108.975 160.04C107.775 160.28 106.669 160.4 105.655 160.4C102.802 160.4 100.669 159.587 99.2553 157.96C97.8686 156.333 97.1753 154.107 97.1753 151.28V148.88C97.1753 146.133 97.8686 143.933 99.2553 142.28C100.669 140.627 102.655 139.8 105.215 139.8C106.575 139.8 107.815 140.08 108.935 140.64C110.082 141.173 110.989 142 111.655 143.12C112.349 144.213 112.695 145.627 112.695 147.36C112.695 148.48 112.535 149.76 112.215 151.2H100.415V151.28C100.415 153.307 100.829 154.84 101.655 155.88C102.509 156.92 103.869 157.44 105.735 157.44C106.589 157.44 107.522 157.333 108.535 157.12C109.575 156.907 110.589 156.573 111.575 156.12L112.575 158.84ZM105.215 142.68C103.669 142.68 102.495 143.187 101.695 144.2C100.922 145.187 100.495 146.587 100.415 148.4H109.375C109.455 147.92 109.495 147.467 109.495 147.04C109.495 145.547 109.069 144.453 108.215 143.76C107.389 143.04 106.389 142.68 105.215 142.68ZM123.212 157.48C125.878 157.48 127.212 156.573 127.212 154.76C127.212 153.987 126.972 153.373 126.492 152.92C126.012 152.467 125.132 152.08 123.852 151.76L121.652 151.2C120.025 150.8 118.812 150.107 118.012 149.12C117.212 148.107 116.812 146.907 116.812 145.52C116.812 144.507 117.038 143.573 117.492 142.72C117.945 141.84 118.665 141.133 119.652 140.6C120.638 140.067 121.918 139.8 123.492 139.8C124.505 139.8 125.532 139.92 126.572 140.16C127.638 140.373 128.718 140.747 129.812 141.28L128.772 144.04C126.825 143.16 125.065 142.72 123.492 142.72C121.172 142.72 120.012 143.587 120.012 145.32C120.012 145.987 120.225 146.56 120.652 147.04C121.078 147.52 121.878 147.907 123.052 148.2L125.252 148.76C127.012 149.187 128.305 149.88 129.132 150.84C129.958 151.8 130.372 153.04 130.372 154.56C130.372 155.653 130.132 156.653 129.652 157.56C129.198 158.44 128.452 159.133 127.412 159.64C126.398 160.147 125.025 160.4 123.292 160.4C122.145 160.4 120.998 160.28 119.852 160.04C118.732 159.8 117.572 159.413 116.372 158.88L117.252 156.16C118.398 156.613 119.438 156.947 120.372 157.16C121.305 157.373 122.252 157.48 123.212 157.48ZM146.478 159.28C144.985 160.027 143.398 160.4 141.718 160.4C140.278 160.4 139.145 160.107 138.318 159.52C137.518 158.933 136.945 158.147 136.598 157.16C136.278 156.173 136.118 155.08 136.118 153.88V143.08H132.678V140.2H136.118V134.68H139.398V140.2H145.878V143.08H139.398V153.76C139.398 155.147 139.625 156.107 140.078 156.64C140.558 157.147 141.291 157.4 142.278 157.4C142.758 157.4 143.251 157.347 143.758 157.24C144.291 157.107 144.865 156.893 145.478 156.6L146.478 159.28ZM154.273 135.36H150.593V131.68H154.273V135.36ZM154.073 160H150.793V140.2H154.073V160ZM170.665 142.88C169.918 142.88 169.038 143.067 168.025 143.44C167.038 143.813 165.838 144.573 164.425 145.72V160H161.145V140.2H164.265V142.96C165.678 141.76 166.958 140.933 168.105 140.48C169.278 140.027 170.398 139.8 171.465 139.8C173.305 139.8 174.705 140.387 175.665 141.56C176.652 142.707 177.145 144.347 177.145 146.48V160H173.865V146.96C173.865 144.24 172.798 142.88 170.665 142.88ZM199.837 162.48C199.837 164.427 199.037 165.987 197.437 167.16C195.863 168.333 193.69 168.92 190.917 168.92C189.53 168.92 188.077 168.733 186.557 168.36C185.063 167.987 183.65 167.387 182.317 166.56L183.437 164C184.77 164.747 186.05 165.267 187.277 165.56C188.53 165.88 189.743 166.04 190.917 166.04C192.73 166.04 194.13 165.747 195.117 165.16C196.103 164.573 196.597 163.787 196.597 162.8C196.597 162.08 196.357 161.52 195.877 161.12C195.397 160.747 194.623 160.56 193.557 160.56H188.957C187.223 160.56 185.97 160.147 185.197 159.32C184.423 158.493 184.037 157.587 184.037 156.6C184.037 155.907 184.197 155.227 184.517 154.56C184.837 153.867 185.29 153.187 185.877 152.52C184.943 151.96 184.197 151.2 183.637 150.24C183.077 149.253 182.797 148.067 182.797 146.68C182.797 145.16 183.117 143.893 183.757 142.88C184.423 141.867 185.303 141.107 186.397 140.6C187.49 140.067 188.717 139.8 190.077 139.8H190.757C191.69 139.8 192.543 139.933 193.317 140.2H200.437V143.12L196.117 142.52C196.677 143 197.13 143.6 197.477 144.32C197.823 145.013 197.997 145.867 197.997 146.88C197.997 148.32 197.663 149.533 196.997 150.52C196.357 151.507 195.49 152.267 194.397 152.8C193.303 153.307 192.09 153.56 190.757 153.56H190.077C189.73 153.56 189.397 153.547 189.077 153.52C188.757 153.467 188.437 153.413 188.117 153.36C187.343 154.213 186.957 155.053 186.957 155.88C186.957 156.947 187.703 157.48 189.197 157.48H193.677C195.597 157.48 197.103 157.907 198.197 158.76C199.29 159.613 199.837 160.853 199.837 162.48ZM190.757 150.72C191.797 150.72 192.717 150.387 193.517 149.72C194.317 149.053 194.717 148.04 194.717 146.68C194.717 145.347 194.317 144.347 193.517 143.68C192.717 142.987 191.797 142.64 190.757 142.64H190.077C189.01 142.64 188.077 142.987 187.277 143.68C186.477 144.347 186.077 145.347 186.077 146.68C186.077 148.04 186.477 149.053 187.277 149.72C188.077 150.387 189.01 150.72 190.077 150.72H190.757ZM219.329 157.4C220.609 157.4 221.662 157.093 222.489 156.48C223.315 155.84 223.822 155 224.009 153.96C224.195 152.92 223.955 151.773 223.289 150.52L225.969 148.92L232.409 160H228.729L226.169 155.36C225.955 156.8 225.235 158 224.009 158.96C222.782 159.92 221.155 160.4 219.129 160.4C216.755 160.4 214.915 159.76 213.609 158.48C212.302 157.173 211.649 155.48 211.649 153.4C211.649 151.72 212.089 150.28 212.969 149.08C213.875 147.853 215.222 146.667 217.009 145.52C214.475 143.387 213.209 141.093 213.209 138.64C213.209 136.88 213.809 135.4 215.009 134.2C216.209 133 217.929 132.4 220.169 132.4C222.249 132.4 223.902 132.96 225.129 134.08C226.355 135.173 226.969 136.733 226.969 138.76C226.969 140.573 226.489 142.04 225.529 143.16C224.569 144.253 223.329 145.267 221.809 146.2L218.969 147.92C217.502 148.8 216.475 149.667 215.889 150.52C215.302 151.347 215.009 152.28 215.009 153.32C215.009 154.733 215.422 155.773 216.249 156.44C217.075 157.08 218.102 157.4 219.329 157.4ZM216.489 138.72C216.489 139.467 216.702 140.293 217.129 141.2C217.555 142.08 218.302 143.04 219.369 144.08L220.209 143.56C221.382 142.813 222.249 142.107 222.809 141.44C223.369 140.747 223.649 139.867 223.649 138.8C223.649 137.6 223.315 136.733 222.649 136.2C222.009 135.64 221.195 135.36 220.209 135.36C219.142 135.36 218.249 135.64 217.529 136.2C216.835 136.76 216.489 137.6 216.489 138.72ZM250.863 157.28C252.543 157.28 253.836 156.92 254.743 156.2C255.649 155.453 256.103 154.373 256.103 152.96C256.103 151.787 255.783 150.8 255.143 150C254.529 149.2 253.516 148.587 252.103 148.16L248.863 147.2C246.836 146.587 245.343 145.667 244.383 144.44C243.423 143.187 242.943 141.653 242.943 139.84C242.943 138.453 243.209 137.2 243.743 136.08C244.303 134.96 245.183 134.067 246.383 133.4C247.609 132.733 249.209 132.4 251.183 132.4C252.383 132.4 253.623 132.547 254.903 132.84C256.183 133.107 257.476 133.547 258.783 134.16L257.663 137.16C256.383 136.6 255.223 136.2 254.183 135.96C253.169 135.693 252.196 135.56 251.263 135.56C249.743 135.56 248.556 135.88 247.703 136.52C246.876 137.133 246.463 138.16 246.463 139.6C246.463 140.64 246.743 141.52 247.303 142.24C247.863 142.933 248.863 143.507 250.303 143.96L253.543 144.92C257.596 146.12 259.623 148.707 259.623 152.68C259.623 154.973 258.929 156.84 257.543 158.28C256.156 159.693 253.929 160.4 250.863 160.4C249.609 160.4 248.276 160.253 246.863 159.96C245.476 159.64 244.036 159.147 242.543 158.48L243.623 155.52C245.036 156.16 246.303 156.613 247.423 156.88C248.569 157.147 249.716 157.28 250.863 157.28ZM280.497 148.88V151.28C280.497 154.107 279.764 156.333 278.297 157.96C276.857 159.587 274.79 160.4 272.097 160.4C269.43 160.4 267.364 159.587 265.897 157.96C264.43 156.333 263.697 154.107 263.697 151.28V148.88C263.697 146.107 264.417 143.907 265.857 142.28C267.324 140.627 269.404 139.8 272.097 139.8C274.79 139.8 276.857 140.627 278.297 142.28C279.764 143.907 280.497 146.107 280.497 148.88ZM277.097 148.88C277.097 146.987 276.67 145.507 275.817 144.44C274.964 143.347 273.724 142.8 272.097 142.8C270.497 142.8 269.257 143.347 268.377 144.44C267.524 145.507 267.097 146.987 267.097 148.88V151.28C267.097 153.253 267.524 154.773 268.377 155.84C269.257 156.907 270.497 157.44 272.097 157.44C273.724 157.44 274.964 156.907 275.817 155.84C276.67 154.773 277.097 153.253 277.097 151.28V148.88ZM286.418 155.2V130.4H289.698V155.04C289.698 155.76 289.804 156.307 290.018 156.68C290.258 157.027 290.724 157.2 291.418 157.2H292.058V160.2H291.138C289.378 160.2 288.151 159.733 287.458 158.8C286.764 157.867 286.418 156.667 286.418 155.2ZM309.204 160V157.2C307.818 158.4 306.578 159.24 305.484 159.72C304.391 160.173 303.298 160.4 302.204 160.4C300.444 160.4 299.098 159.827 298.164 158.68C297.231 157.507 296.764 155.867 296.764 153.76V140.2H300.044V153.28C300.044 154.667 300.284 155.693 300.764 156.36C301.271 157 302.018 157.32 303.004 157.32C303.751 157.32 304.591 157.133 305.524 156.76C306.458 156.387 307.618 155.64 309.004 154.52V140.2H312.284V160H309.204ZM330.228 159.28C328.735 160.027 327.148 160.4 325.468 160.4C324.028 160.4 322.895 160.107 322.068 159.52C321.268 158.933 320.695 158.147 320.348 157.16C320.028 156.173 319.868 155.08 319.868 153.88V143.08H316.428V140.2H319.868V134.68H323.148V140.2H329.628V143.08H323.148V153.76C323.148 155.147 323.375 156.107 323.828 156.64C324.308 157.147 325.041 157.4 326.028 157.4C326.508 157.4 327.001 157.347 327.508 157.24C328.041 157.107 328.615 156.893 329.228 156.6L330.228 159.28ZM338.023 135.36H334.343V131.68H338.023V135.36ZM337.823 160H334.543V140.2H337.823V160ZM360.575 148.88V151.28C360.575 154.107 359.842 156.333 358.375 157.96C356.935 159.587 354.868 160.4 352.175 160.4C349.508 160.4 347.442 159.587 345.975 157.96C344.508 156.333 343.775 154.107 343.775 151.28V148.88C343.775 146.107 344.495 143.907 345.935 142.28C347.402 140.627 349.482 139.8 352.175 139.8C354.868 139.8 356.935 140.627 358.375 142.28C359.842 143.907 360.575 146.107 360.575 148.88ZM357.175 148.88C357.175 146.987 356.748 145.507 355.895 144.44C355.042 143.347 353.802 142.8 352.175 142.8C350.575 142.8 349.335 143.347 348.455 144.44C347.602 145.507 347.175 146.987 347.175 148.88V151.28C347.175 153.253 347.602 154.773 348.455 155.84C349.335 156.907 350.575 157.44 352.175 157.44C353.802 157.44 355.042 156.907 355.895 155.84C356.748 154.773 357.175 153.253 357.175 151.28V148.88ZM376.056 142.88C375.309 142.88 374.429 143.067 373.416 143.44C372.429 143.813 371.229 144.573 369.816 145.72V160H366.536V140.2H369.656V142.96C371.069 141.76 372.349 140.933 373.496 140.48C374.669 140.027 375.789 139.8 376.856 139.8C378.696 139.8 380.096 140.387 381.056 141.56C382.042 142.707 382.536 144.347 382.536 146.48V160H379.256V146.96C379.256 144.24 378.189 142.88 376.056 142.88Z" fill="#0E00B4"/>
</svg>
