<svg width="462" height="145" viewBox="0 0 462 145" fill="none" xmlns="http://www.w3.org/2000/svg">
<mask id="path-1-outside-1_38_10" maskUnits="userSpaceOnUse" x="4" y="22" width="455" height="79" fill="black">
<rect fill="white" x="4" y="22" width="455" height="79"/>
<path d="M6.32102 24.2727H25.2841L45.3125 73.1364H46.1648L66.1932 24.2727H85.1562V97H70.2415V49.6634H69.6378L50.8168 96.6449H40.6605L21.8395 49.4858H21.2358V97H6.32102V24.2727ZM97.8249 97V24.2727H146.831V36.9503H113.201V54.2798H144.309V66.9574H113.201V84.3224H146.973V97H97.8249ZM184.837 97H159.055V24.2727H185.05C192.365 24.2727 198.662 25.7287 203.942 28.6406C209.221 31.5289 213.281 35.6837 216.122 41.1051C218.987 46.5265 220.419 53.0133 220.419 60.5653C220.419 68.1411 218.987 74.6515 216.122 80.0966C213.281 85.5417 209.197 89.7202 203.871 92.6321C198.568 95.544 192.223 97 184.837 97ZM174.432 83.8253H184.197C188.743 83.8253 192.566 83.0204 195.668 81.4105C198.793 79.777 201.136 77.2557 202.699 73.8466C204.285 70.4138 205.078 65.9867 205.078 60.5653C205.078 55.1913 204.285 50.7997 202.699 47.3906C201.136 43.9815 198.804 41.4721 195.703 39.8622C192.602 38.2524 188.778 37.4474 184.233 37.4474H174.432V83.8253Z"/>
<path d="M225.719 36.9503V24.2727H285.449V36.9503H263.184V97H247.985V36.9503H225.719ZM311.95 98.0653C306.339 98.0653 301.509 96.929 297.461 94.6562C293.436 92.3598 290.335 89.1165 288.157 84.9261C285.979 80.7121 284.89 75.7287 284.89 69.9759C284.89 64.3651 285.979 59.4408 288.157 55.2031C290.335 50.9654 293.401 47.6629 297.354 45.2955C301.332 42.928 305.996 41.7443 311.346 41.7443C314.944 41.7443 318.294 42.3243 321.396 43.4844C324.521 44.6207 327.243 46.3371 329.563 48.6335C331.907 50.9299 333.73 53.8182 335.032 57.2983C336.334 60.7547 336.985 64.803 336.985 69.4432V73.598H290.927V64.223H322.745C322.745 62.045 322.272 60.1155 321.325 58.4347C320.378 56.7538 319.064 55.4399 317.383 54.4929C315.726 53.5223 313.796 53.0369 311.594 53.0369C309.298 53.0369 307.262 53.5696 305.487 54.6349C303.735 55.6766 302.362 57.0852 301.367 58.8608C300.373 60.6127 299.864 62.5658 299.84 64.7202V73.6335C299.84 76.3324 300.337 78.6643 301.332 80.6293C302.35 82.5942 303.782 84.1094 305.629 85.1747C307.475 86.2401 309.665 86.7727 312.198 86.7727C313.879 86.7727 315.418 86.536 316.815 86.0625C318.211 85.589 319.407 84.8788 320.401 83.9318C321.396 82.9848 322.153 81.8248 322.674 80.4517L336.665 81.375C335.955 84.7367 334.499 87.6723 332.298 90.1818C330.12 92.6676 327.302 94.6089 323.846 96.0057C320.413 97.3788 316.448 98.0653 311.95 98.0653ZM371.502 98.0653C365.915 98.0653 361.109 96.8816 357.085 94.5142C353.084 92.1231 350.006 88.8087 347.852 84.571C345.721 80.3333 344.656 75.4564 344.656 69.9403C344.656 64.3532 345.733 59.4527 347.887 55.2386C350.065 51.0009 353.155 47.6984 357.156 45.331C361.156 42.9399 365.915 41.7443 371.431 41.7443C376.19 41.7443 380.356 42.6084 383.931 44.3366C387.506 46.0649 390.335 48.4915 392.418 51.6165C394.502 54.7415 395.65 58.411 395.863 62.625H381.587C381.185 59.9025 380.12 57.7126 378.391 56.0554C376.687 54.3745 374.45 53.5341 371.68 53.5341C369.336 53.5341 367.288 54.1733 365.536 55.4517C363.808 56.7064 362.459 58.5412 361.488 60.956C360.517 63.3707 360.032 66.2945 360.032 69.7273C360.032 73.2074 360.505 76.1667 361.452 78.6051C362.423 81.0436 363.784 82.902 365.536 84.1804C367.288 85.4588 369.336 86.098 371.68 86.098C373.408 86.098 374.959 85.7429 376.332 85.0327C377.728 84.3224 378.877 83.2926 379.776 81.9432C380.7 80.5701 381.303 78.9247 381.587 77.0071H395.863C395.626 81.1738 394.49 84.8433 392.454 88.0156C390.442 91.1643 387.66 93.6264 384.109 95.402C380.558 97.1776 376.355 98.0653 371.502 98.0653ZM420.676 65.4659V97H405.549V24.2727H420.25V52.0781H420.89C422.121 48.8584 424.109 46.3371 426.855 44.5142C429.602 42.6676 433.046 41.7443 437.189 41.7443C440.977 41.7443 444.28 42.5729 447.097 44.2301C449.938 45.8636 452.14 48.2192 453.702 51.2969C455.288 54.3509 456.069 58.0085 456.046 62.2699V97H440.918V64.9688C440.942 61.607 440.089 58.991 438.361 57.1207C436.657 55.2505 434.266 54.3153 431.188 54.3153C429.128 54.3153 427.305 54.7533 425.719 55.6293C424.157 56.5052 422.926 57.7836 422.026 59.4645C421.15 61.1217 420.7 63.1222 420.676 65.4659Z"/>
</mask>
<path d="M6.32102 24.2727H25.2841L45.3125 73.1364H46.1648L66.1932 24.2727H85.1562V97H70.2415V49.6634H69.6378L50.8168 96.6449H40.6605L21.8395 49.4858H21.2358V97H6.32102V24.2727ZM97.8249 97V24.2727H146.831V36.9503H113.201V54.2798H144.309V66.9574H113.201V84.3224H146.973V97H97.8249ZM184.837 97H159.055V24.2727H185.05C192.365 24.2727 198.662 25.7287 203.942 28.6406C209.221 31.5289 213.281 35.6837 216.122 41.1051C218.987 46.5265 220.419 53.0133 220.419 60.5653C220.419 68.1411 218.987 74.6515 216.122 80.0966C213.281 85.5417 209.197 89.7202 203.871 92.6321C198.568 95.544 192.223 97 184.837 97ZM174.432 83.8253H184.197C188.743 83.8253 192.566 83.0204 195.668 81.4105C198.793 79.777 201.136 77.2557 202.699 73.8466C204.285 70.4138 205.078 65.9867 205.078 60.5653C205.078 55.1913 204.285 50.7997 202.699 47.3906C201.136 43.9815 198.804 41.4721 195.703 39.8622C192.602 38.2524 188.778 37.4474 184.233 37.4474H174.432V83.8253Z" fill="#FA5656"/>
<path d="M225.719 36.9503V24.2727H285.449V36.9503H263.184V97H247.985V36.9503H225.719ZM311.95 98.0653C306.339 98.0653 301.509 96.929 297.461 94.6562C293.436 92.3598 290.335 89.1165 288.157 84.9261C285.979 80.7121 284.89 75.7287 284.89 69.9759C284.89 64.3651 285.979 59.4408 288.157 55.2031C290.335 50.9654 293.401 47.6629 297.354 45.2955C301.332 42.928 305.996 41.7443 311.346 41.7443C314.944 41.7443 318.294 42.3243 321.396 43.4844C324.521 44.6207 327.243 46.3371 329.563 48.6335C331.907 50.9299 333.73 53.8182 335.032 57.2983C336.334 60.7547 336.985 64.803 336.985 69.4432V73.598H290.927V64.223H322.745C322.745 62.045 322.272 60.1155 321.325 58.4347C320.378 56.7538 319.064 55.4399 317.383 54.4929C315.726 53.5223 313.796 53.0369 311.594 53.0369C309.298 53.0369 307.262 53.5696 305.487 54.6349C303.735 55.6766 302.362 57.0852 301.367 58.8608C300.373 60.6127 299.864 62.5658 299.84 64.7202V73.6335C299.84 76.3324 300.337 78.6643 301.332 80.6293C302.35 82.5942 303.782 84.1094 305.629 85.1747C307.475 86.2401 309.665 86.7727 312.198 86.7727C313.879 86.7727 315.418 86.536 316.815 86.0625C318.211 85.589 319.407 84.8788 320.401 83.9318C321.396 82.9848 322.153 81.8248 322.674 80.4517L336.665 81.375C335.955 84.7367 334.499 87.6723 332.298 90.1818C330.12 92.6676 327.302 94.6089 323.846 96.0057C320.413 97.3788 316.448 98.0653 311.95 98.0653ZM371.502 98.0653C365.915 98.0653 361.109 96.8816 357.085 94.5142C353.084 92.1231 350.006 88.8087 347.852 84.571C345.721 80.3333 344.656 75.4564 344.656 69.9403C344.656 64.3532 345.733 59.4527 347.887 55.2386C350.065 51.0009 353.155 47.6984 357.156 45.331C361.156 42.9399 365.915 41.7443 371.431 41.7443C376.19 41.7443 380.356 42.6084 383.931 44.3366C387.506 46.0649 390.335 48.4915 392.418 51.6165C394.502 54.7415 395.65 58.411 395.863 62.625H381.587C381.185 59.9025 380.12 57.7126 378.391 56.0554C376.687 54.3745 374.45 53.5341 371.68 53.5341C369.336 53.5341 367.288 54.1733 365.536 55.4517C363.808 56.7064 362.459 58.5412 361.488 60.956C360.517 63.3707 360.032 66.2945 360.032 69.7273C360.032 73.2074 360.505 76.1667 361.452 78.6051C362.423 81.0436 363.784 82.902 365.536 84.1804C367.288 85.4588 369.336 86.098 371.68 86.098C373.408 86.098 374.959 85.7429 376.332 85.0327C377.728 84.3224 378.877 83.2926 379.776 81.9432C380.7 80.5701 381.303 78.9247 381.587 77.0071H395.863C395.626 81.1738 394.49 84.8433 392.454 88.0156C390.442 91.1643 387.66 93.6264 384.109 95.402C380.558 97.1776 376.355 98.0653 371.502 98.0653ZM420.676 65.4659V97H405.549V24.2727H420.25V52.0781H420.89C422.121 48.8584 424.109 46.3371 426.855 44.5142C429.602 42.6676 433.046 41.7443 437.189 41.7443C440.977 41.7443 444.28 42.5729 447.097 44.2301C449.938 45.8636 452.14 48.2192 453.702 51.2969C455.288 54.3509 456.069 58.0085 456.046 62.2699V97H440.918V64.9688C440.942 61.607 440.089 58.991 438.361 57.1207C436.657 55.2505 434.266 54.3153 431.188 54.3153C429.128 54.3153 427.305 54.7533 425.719 55.6293C424.157 56.5052 422.926 57.7836 422.026 59.4645C421.15 61.1217 420.7 63.1222 420.676 65.4659Z" fill="#0E00B4"/>
<path d="M6.32102 24.2727V22.2727H4.32102V24.2727H6.32102ZM25.2841 24.2727L27.1347 23.5142L26.6258 22.2727H25.2841V24.2727ZM45.3125 73.1364L43.4619 73.8949L43.9708 75.1364H45.3125V73.1364ZM46.1648 73.1364V75.1364H47.5065L48.0154 73.8949L46.1648 73.1364ZM66.1932 24.2727V22.2727H64.8515L64.3426 23.5142L66.1932 24.2727ZM85.1562 24.2727H87.1562V22.2727H85.1562V24.2727ZM85.1562 97V99H87.1562V97H85.1562ZM70.2415 97H68.2415V99H70.2415V97ZM70.2415 49.6634H72.2415V47.6634H70.2415V49.6634ZM69.6378 49.6634V47.6634H68.2845L67.7812 48.9196L69.6378 49.6634ZM50.8168 96.6449V98.6449H52.1701L52.6733 97.3886L50.8168 96.6449ZM40.6605 96.6449L38.803 97.3862L39.3053 98.6449H40.6605V96.6449ZM21.8395 49.4858L23.697 48.7445L23.1947 47.4858H21.8395V49.4858ZM21.2358 49.4858V47.4858H19.2358V49.4858H21.2358ZM21.2358 97V99H23.2358V97H21.2358ZM6.32102 97H4.32102V99H6.32102V97ZM6.32102 26.2727H25.2841V22.2727H6.32102V26.2727ZM23.4335 25.0312L43.4619 73.8949L47.1631 72.3778L27.1347 23.5142L23.4335 25.0312ZM45.3125 75.1364H46.1648V71.1364H45.3125V75.1364ZM48.0154 73.8949L68.0438 25.0312L64.3426 23.5142L44.3142 72.3778L48.0154 73.8949ZM66.1932 26.2727H85.1562V22.2727H66.1932V26.2727ZM83.1562 24.2727V97H87.1562V24.2727H83.1562ZM85.1562 95H70.2415V99H85.1562V95ZM72.2415 97V49.6634H68.2415V97H72.2415ZM70.2415 47.6634H69.6378V51.6634H70.2415V47.6634ZM67.7812 48.9196L48.9602 95.9011L52.6733 97.3886L71.4944 50.4071L67.7812 48.9196ZM50.8168 94.6449H40.6605V98.6449H50.8168V94.6449ZM42.518 95.9036L23.697 48.7445L19.982 50.2271L38.803 97.3862L42.518 95.9036ZM21.8395 47.4858H21.2358V51.4858H21.8395V47.4858ZM19.2358 49.4858V97H23.2358V49.4858H19.2358ZM21.2358 95H6.32102V99H21.2358V95ZM8.32102 97V24.2727H4.32102V97H8.32102ZM97.8249 97H95.8249V99H97.8249V97ZM97.8249 24.2727V22.2727H95.8249V24.2727H97.8249ZM146.831 24.2727H148.831V22.2727H146.831V24.2727ZM146.831 36.9503V38.9503H148.831V36.9503H146.831ZM113.201 36.9503V34.9503H111.201V36.9503H113.201ZM113.201 54.2798H111.201V56.2798H113.201V54.2798ZM144.309 54.2798H146.309V52.2798H144.309V54.2798ZM144.309 66.9574V68.9574H146.309V66.9574H144.309ZM113.201 66.9574V64.9574H111.201V66.9574H113.201ZM113.201 84.3224H111.201V86.3224H113.201V84.3224ZM146.973 84.3224H148.973V82.3224H146.973V84.3224ZM146.973 97V99H148.973V97H146.973ZM99.8249 97V24.2727H95.8249V97H99.8249ZM97.8249 26.2727H146.831V22.2727H97.8249V26.2727ZM144.831 24.2727V36.9503H148.831V24.2727H144.831ZM146.831 34.9503H113.201V38.9503H146.831V34.9503ZM111.201 36.9503V54.2798H115.201V36.9503H111.201ZM113.201 56.2798H144.309V52.2798H113.201V56.2798ZM142.309 54.2798V66.9574H146.309V54.2798H142.309ZM144.309 64.9574H113.201V68.9574H144.309V64.9574ZM111.201 66.9574V84.3224H115.201V66.9574H111.201ZM113.201 86.3224H146.973V82.3224H113.201V86.3224ZM144.973 84.3224V97H148.973V84.3224H144.973ZM146.973 95H97.8249V99H146.973V95ZM159.055 97H157.055V99H159.055V97ZM159.055 24.2727V22.2727H157.055V24.2727H159.055ZM203.942 28.6406L202.976 30.3919L202.982 30.3952L203.942 28.6406ZM216.122 41.1051L214.351 42.0334L214.354 42.0395L216.122 41.1051ZM216.122 80.0966L214.352 79.1654L214.349 79.1715L216.122 80.0966ZM203.871 92.6321L202.911 90.8772L202.908 90.879L203.871 92.6321ZM174.432 83.8253H172.432V85.8253H174.432V83.8253ZM195.668 81.4105L196.589 83.1856L196.594 83.183L195.668 81.4105ZM202.699 73.8466L200.883 73.0077L200.881 73.0133L202.699 73.8466ZM202.699 47.3906L200.881 48.2239L200.886 48.2343L202.699 47.3906ZM195.703 39.8622L196.625 38.0871L196.625 38.0871L195.703 39.8622ZM174.432 37.4474V35.4474H172.432V37.4474H174.432ZM184.837 95H159.055V99H184.837V95ZM161.055 97V24.2727H157.055V97H161.055ZM159.055 26.2727H185.05V22.2727H159.055V26.2727ZM185.05 26.2727C192.099 26.2727 198.049 27.6745 202.976 30.3919L204.908 26.8894C199.276 23.7829 192.631 22.2727 185.05 22.2727V26.2727ZM202.982 30.3952C207.909 33.0907 211.69 36.9551 214.351 42.0334L217.894 40.1768C214.873 34.4123 210.533 29.9671 204.902 26.886L202.982 30.3952ZM214.354 42.0395C217.035 47.1137 218.419 53.2646 218.419 60.5653H222.419C222.419 52.7619 220.939 45.9394 217.89 40.1708L214.354 42.0395ZM218.419 60.5653C218.419 67.8906 217.035 74.0665 214.352 79.1654L217.892 81.0278C220.939 75.2365 222.419 68.3916 222.419 60.5653H218.419ZM214.349 79.1715C211.689 84.2699 207.886 88.1576 202.911 90.8772L204.83 94.387C210.509 91.2828 214.874 86.8135 217.895 81.0217L214.349 79.1715ZM202.908 90.879C197.959 93.5968 191.96 95 184.837 95V99C192.486 99 199.177 97.4912 204.833 94.3852L202.908 90.879ZM174.432 85.8253H184.197V81.8253H174.432V85.8253ZM184.197 85.8253C188.97 85.8253 193.13 84.9809 196.589 83.1856L194.746 79.6354C192.002 81.0598 188.515 81.8253 184.197 81.8253V85.8253ZM196.594 83.183C200.138 81.3304 202.782 78.4649 204.517 74.6799L200.881 73.0133C199.491 76.0465 197.447 78.2236 194.741 79.6381L196.594 83.183ZM204.514 74.6855C206.263 70.9014 207.078 66.16 207.078 60.5653H203.078C203.078 65.8135 202.307 69.9263 200.883 73.0077L204.514 74.6855ZM207.078 60.5653C207.078 55.0159 206.262 50.3085 204.512 46.5469L200.886 48.2343C202.308 51.291 203.078 55.3666 203.078 60.5653H207.078ZM204.517 46.5573C202.783 42.7748 200.151 39.9177 196.625 38.0871L194.782 41.6373C197.458 43.0264 199.489 45.1882 200.881 48.2239L204.517 46.5573ZM196.625 38.0871C193.166 36.2918 189.006 35.4474 184.233 35.4474V39.4474C188.551 39.4474 192.038 40.2129 194.782 41.6373L196.625 38.0871ZM184.233 35.4474H174.432V39.4474H184.233V35.4474ZM172.432 37.4474V83.8253H176.432V37.4474H172.432ZM225.719 36.9503H223.719V38.9503H225.719V36.9503ZM225.719 24.2727V22.2727H223.719V24.2727H225.719ZM285.449 24.2727H287.449V22.2727H285.449V24.2727ZM285.449 36.9503V38.9503H287.449V36.9503H285.449ZM263.184 36.9503V34.9503H261.184V36.9503H263.184ZM263.184 97V99H265.184V97H263.184ZM247.985 97H245.985V99H247.985V97ZM247.985 36.9503H249.985V34.9503H247.985V36.9503ZM227.719 36.9503V24.2727H223.719V36.9503H227.719ZM225.719 26.2727H285.449V22.2727H225.719V26.2727ZM283.449 24.2727V36.9503H287.449V24.2727H283.449ZM285.449 34.9503H263.184V38.9503H285.449V34.9503ZM261.184 36.9503V97H265.184V36.9503H261.184ZM263.184 95H247.985V99H263.184V95ZM249.985 97V36.9503H245.985V97H249.985ZM247.985 34.9503H225.719V38.9503H247.985V34.9503ZM297.461 94.6562L296.47 96.3934L296.482 96.4002L297.461 94.6562ZM288.157 84.9261L286.38 85.8444L286.382 85.8485L288.157 84.9261ZM288.157 55.2031L286.378 54.2889L286.378 54.2889L288.157 55.2031ZM297.354 45.2955L296.331 43.5769L296.327 43.5796L297.354 45.2955ZM321.396 43.4844L320.695 45.3576L320.703 45.3608L320.712 45.364L321.396 43.4844ZM329.563 48.6335L328.156 50.055L328.164 50.0621L329.563 48.6335ZM335.032 57.2983L333.159 57.9991L333.16 58.0033L335.032 57.2983ZM336.985 73.598V75.598H338.985V73.598H336.985ZM290.927 73.598H288.927V75.598H290.927V73.598ZM290.927 64.223V62.223H288.927V64.223H290.927ZM322.745 64.223V66.223H324.745V64.223H322.745ZM321.325 58.4347L319.582 59.4163L319.582 59.4163L321.325 58.4347ZM317.383 54.4929L316.372 56.2187L316.386 56.2272L316.401 56.2354L317.383 54.4929ZM305.487 54.6349L306.509 56.354L306.515 56.3499L305.487 54.6349ZM301.367 58.8608L303.107 59.848L303.112 59.838L301.367 58.8608ZM299.84 64.7202L297.84 64.6982L297.84 64.7092V64.7202H299.84ZM301.332 80.6293L299.547 81.5323L299.551 81.5408L299.556 81.5493L301.332 80.6293ZM316.815 86.0625L316.173 84.1684L316.173 84.1684L316.815 86.0625ZM320.401 83.9318L319.022 82.4835L319.022 82.4835L320.401 83.9318ZM322.674 80.4517L322.806 78.456L321.329 78.3586L320.804 79.7424L322.674 80.4517ZM336.665 81.375L338.622 81.7884L339.099 79.5312L336.797 79.3793L336.665 81.375ZM332.298 90.1818L330.794 88.8628L330.793 88.8638L332.298 90.1818ZM323.846 96.0057L324.589 97.8626L324.595 97.86L323.846 96.0057ZM311.95 96.0653C306.61 96.0653 302.133 94.9854 298.44 92.9123L296.482 96.4002C300.886 98.8725 306.067 100.065 311.95 100.065V96.0653ZM298.452 92.9191C294.768 90.8172 291.936 87.8598 289.932 84.0037L286.382 85.8485C288.734 90.3732 292.104 93.9025 296.47 96.3934L298.452 92.9191ZM289.934 84.0078C287.93 80.1319 286.89 75.4764 286.89 69.9759H282.89C282.89 75.981 284.027 81.2923 286.38 85.8444L289.934 84.0078ZM286.89 69.9759C286.89 64.6267 287.927 60.0261 289.936 56.1174L286.378 54.2889C284.031 58.8556 282.89 64.1034 282.89 69.9759H286.89ZM289.936 56.1174C291.949 52.1999 294.76 49.1802 298.382 47.0113L296.327 43.5796C292.042 46.1456 288.721 49.7309 286.378 54.2889L289.936 56.1174ZM298.377 47.014C302 44.8579 306.299 43.7443 311.346 43.7443V39.7443C305.692 39.7443 300.664 40.9981 296.331 43.5769L298.377 47.014ZM311.346 43.7443C314.726 43.7443 317.836 44.2884 320.695 45.3576L322.096 41.6111C318.752 40.3603 315.163 39.7443 311.346 39.7443V43.7443ZM320.712 45.364C323.571 46.4035 326.045 47.9656 328.156 50.055L330.97 47.2121C328.441 44.7087 325.47 42.8379 322.079 41.6048L320.712 45.364ZM328.164 50.0621C330.272 52.1279 331.946 54.7569 333.159 57.9991L336.905 56.5974C335.514 52.8794 333.542 49.7319 330.963 47.205L328.164 50.0621ZM333.16 58.0033C334.359 61.1849 334.985 64.9846 334.985 69.4432H338.985C338.985 64.6214 338.309 60.3245 336.904 56.5932L333.16 58.0033ZM334.985 69.4432V73.598H338.985V69.4432H334.985ZM336.985 71.598H290.927V75.598H336.985V71.598ZM292.927 73.598V64.223H288.927V73.598H292.927ZM290.927 66.223H322.745V62.223H290.927V66.223ZM324.745 64.223C324.745 61.7462 324.204 59.4705 323.067 57.453L319.582 59.4163C320.339 60.7606 320.745 62.3438 320.745 64.223H324.745ZM323.067 57.453C321.941 55.4538 320.364 53.8767 318.364 52.7504L316.401 56.2354C317.764 57.003 318.814 58.0538 319.582 59.4163L323.067 57.453ZM318.394 52.7671C316.387 51.592 314.099 51.0369 311.594 51.0369V55.0369C313.494 55.0369 315.064 55.4526 316.372 56.2187L318.394 52.7671ZM311.594 51.0369C308.976 51.0369 306.577 51.6483 304.458 52.92L306.515 56.3499C307.947 55.4909 309.62 55.0369 311.594 55.0369V51.0369ZM304.464 52.9159C302.411 54.1368 300.788 55.801 299.622 57.8836L303.112 59.838C303.935 58.3694 305.058 57.2165 306.509 56.354L304.464 52.9159ZM299.628 57.8736C298.455 59.9404 297.867 62.2295 297.84 64.6982L301.84 64.7421C301.86 62.9021 302.291 61.285 303.107 59.848L299.628 57.8736ZM297.84 64.7202V73.6335H301.84V64.7202H297.84ZM297.84 73.6335C297.84 76.5765 298.383 79.2312 299.547 81.5323L303.116 79.7262C302.292 78.0974 301.84 76.0883 301.84 73.6335H297.84ZM299.556 81.5493C300.743 83.84 302.438 85.6432 304.629 86.9071L306.628 83.4423C305.126 82.5755 303.957 81.3484 303.108 79.7093L299.556 81.5493ZM304.629 86.9071C306.832 88.1782 309.38 88.7727 312.198 88.7727V84.7727C309.95 84.7727 308.118 84.302 306.628 83.4423L304.629 86.9071ZM312.198 88.7727C314.067 88.7727 315.826 88.5093 317.457 87.9566L316.173 84.1684C315.009 84.5627 313.691 84.7727 312.198 84.7727V88.7727ZM317.457 87.9566C319.108 87.3969 320.561 86.5421 321.781 85.3801L319.022 82.4835C318.253 83.2155 317.315 83.7811 316.173 84.1684L317.457 87.9566ZM321.781 85.3801C323.007 84.2125 323.925 82.7942 324.544 81.161L320.804 79.7424C320.382 80.8554 319.785 81.7572 319.022 82.4835L321.781 85.3801ZM322.542 82.4474L336.534 83.3707L336.797 79.3793L322.806 78.456L322.542 82.4474ZM334.709 80.9616C334.067 83.9978 332.763 86.6191 330.794 88.8628L333.801 91.5008C336.236 88.7256 337.843 85.4757 338.622 81.7884L334.709 80.9616ZM330.793 88.8638C328.847 91.0856 326.3 92.8567 323.097 94.1514L324.595 97.86C328.304 96.3611 331.393 94.2496 333.802 91.4998L330.793 88.8638ZM323.103 94.1487C319.952 95.4093 316.247 96.0653 311.95 96.0653V100.065C316.649 100.065 320.875 99.3483 324.589 97.8626L323.103 94.1487ZM357.085 94.5142L356.058 96.231L356.07 96.2381L357.085 94.5142ZM347.852 84.571L346.065 85.4694L346.069 85.4774L347.852 84.571ZM347.887 55.2386L346.108 54.3244L346.106 54.3282L347.887 55.2386ZM357.156 45.331L358.174 47.0522L358.182 47.0477L357.156 45.331ZM383.931 44.3366L384.802 42.536L384.802 42.536L383.931 44.3366ZM392.418 51.6165L390.754 52.7259L392.418 51.6165ZM395.863 62.625V64.625H397.967L397.86 62.524L395.863 62.625ZM381.587 62.625L379.609 62.9175L379.861 64.625H381.587V62.625ZM378.391 56.0554L376.987 57.4795L376.997 57.4893L377.007 57.499L378.391 56.0554ZM365.536 55.4517L366.711 57.0701L366.715 57.0673L365.536 55.4517ZM361.452 78.6051L359.588 79.3291L359.591 79.337L359.594 79.3448L361.452 78.6051ZM365.536 84.1804L366.715 82.5648L366.715 82.5648L365.536 84.1804ZM376.332 85.0327L375.425 83.2499L375.413 83.2562L376.332 85.0327ZM379.776 81.9432L378.117 80.8272L378.112 80.8338L379.776 81.9432ZM381.587 77.0071V75.0071H379.862L379.609 76.714L381.587 77.0071ZM395.863 77.0071L397.86 77.1206L397.98 75.0071H395.863V77.0071ZM392.454 88.0156L390.771 86.9354L390.769 86.9386L392.454 88.0156ZM384.109 95.402L383.214 93.6131L383.214 93.6131L384.109 95.402ZM371.502 96.0653C366.201 96.0653 361.76 94.9444 358.099 92.7903L356.07 96.2381C360.458 98.8189 365.629 100.065 371.502 100.065V96.0653ZM358.111 92.7974C354.44 90.6038 351.622 87.5734 349.634 83.6647L346.069 85.4774C348.39 90.0441 351.727 93.6424 356.059 96.231L358.111 92.7974ZM349.638 83.6726C347.669 79.7558 346.656 75.1953 346.656 69.9403H342.656C342.656 75.7176 343.773 80.9109 346.065 85.4694L349.638 83.6726ZM346.656 69.9403C346.656 64.6128 347.681 60.0345 349.668 56.149L346.106 54.3282C343.784 58.8708 342.656 64.0936 342.656 69.9403H346.656ZM349.666 56.1529C351.676 52.2417 354.506 49.2227 358.174 47.0522L356.137 43.6097C351.803 46.1741 348.454 49.7602 346.108 54.3244L349.666 56.1529ZM358.182 47.0477C361.82 44.8735 366.209 43.7443 371.431 43.7443V39.7443C365.621 39.7443 360.493 41.0062 356.13 43.6142L358.182 47.0477ZM371.431 43.7443C375.947 43.7443 379.806 44.5638 383.061 46.1373L384.802 42.536C380.907 40.6531 376.432 39.7443 371.431 39.7443V43.7443ZM383.061 46.1373C386.333 47.7193 388.88 49.9152 390.754 52.7259L394.082 50.5071C391.79 47.0678 388.679 44.4104 384.802 42.536L383.061 46.1373ZM390.754 52.7259C392.614 55.5152 393.668 58.8265 393.865 62.726L397.86 62.524C397.631 57.9955 396.39 53.9678 394.082 50.5071L390.754 52.7259ZM395.863 60.625H381.587V64.625H395.863V60.625ZM383.566 62.3325C383.109 59.2396 381.871 56.621 379.776 54.6118L377.007 57.499C378.368 58.8042 379.261 60.5653 379.609 62.9175L383.566 62.3325ZM379.796 54.6313C377.658 52.5232 374.886 51.5341 371.68 51.5341V55.5341C374.013 55.5341 375.716 56.2258 376.987 57.4795L379.796 54.6313ZM371.68 51.5341C368.948 51.5341 366.48 52.2874 364.357 53.8361L366.715 57.0673C368.097 56.0592 369.724 55.5341 371.68 55.5341V51.5341ZM364.361 53.8333C362.268 55.353 360.712 57.5228 359.632 60.21L363.344 61.7019C364.205 59.5596 365.348 58.0599 366.711 57.0701L364.361 53.8333ZM359.632 60.21C358.541 62.9244 358.032 66.1162 358.032 69.7273H362.032C362.032 66.4729 362.493 63.8171 363.344 61.7019L359.632 60.21ZM358.032 69.7273C358.032 73.3779 358.527 76.5974 359.588 79.3291L363.317 77.8811C362.484 75.7359 362.032 73.0369 362.032 69.7273H358.032ZM359.594 79.3448C360.675 82.0593 362.242 84.2527 364.357 85.796L366.715 82.5648C365.326 81.5513 364.171 80.0278 363.311 77.8654L359.594 79.3448ZM364.357 85.796C366.48 87.3447 368.948 88.098 371.68 88.098V84.098C369.724 84.098 368.097 83.5729 366.715 82.5648L364.357 85.796ZM371.68 88.098C373.689 88.098 375.561 87.6828 377.251 86.8091L375.413 83.2562C374.356 83.803 373.126 84.098 371.68 84.098V88.098ZM377.238 86.8154C378.952 85.944 380.357 84.6774 381.44 83.0526L378.112 80.8338C377.396 81.9078 376.505 82.7009 375.425 83.2499L377.238 86.8154ZM381.436 83.0592C382.552 81.4 383.245 79.4622 383.566 77.3002L379.609 76.714C379.361 78.3872 378.848 79.7402 378.117 80.8272L381.436 83.0592ZM381.587 79.0071H395.863V75.0071H381.587V79.0071ZM393.866 76.8936C393.647 80.7541 392.601 84.0831 390.771 86.9354L394.137 89.0959C396.378 85.6034 397.606 81.5934 397.86 77.1206L393.866 76.8936ZM390.769 86.9386C388.963 89.7638 386.463 91.9886 383.214 93.6131L385.003 97.1908C388.856 95.2643 391.92 92.5648 394.139 89.0927L390.769 86.9386ZM383.214 93.6131C379.996 95.2224 376.113 96.0653 371.502 96.0653V100.065C376.598 100.065 381.119 99.1328 385.003 97.1908L383.214 93.6131ZM420.676 65.4659L418.677 65.4457L418.676 65.4558V65.4659H420.676ZM420.676 97V99H422.676V97H420.676ZM405.549 97H403.549V99H405.549V97ZM405.549 24.2727V22.2727H403.549V24.2727H405.549ZM420.25 24.2727H422.25V22.2727H420.25V24.2727ZM420.25 52.0781H418.25V54.0781H420.25V52.0781ZM420.89 52.0781V54.0781H422.266L422.758 52.7924L420.89 52.0781ZM426.855 44.5142L427.962 46.1805L427.971 46.1739L426.855 44.5142ZM447.097 44.2301L446.083 45.954L446.091 45.959L446.1 45.9639L447.097 44.2301ZM453.702 51.2969L451.919 52.2023L451.923 52.2105L451.927 52.2187L453.702 51.2969ZM456.046 62.2699L454.046 62.2588V62.2699H456.046ZM456.046 97V99H458.046V97H456.046ZM440.918 97H438.918V99H440.918V97ZM440.918 64.9688L438.918 64.9547V64.9688H440.918ZM438.361 57.1207L436.883 58.468L436.892 58.4781L438.361 57.1207ZM425.719 55.6293L424.752 53.8784L424.741 53.8847L425.719 55.6293ZM422.026 59.4645L420.263 58.5207L420.258 58.5299L422.026 59.4645ZM418.676 65.4659V97H422.676V65.4659H418.676ZM420.676 95H405.549V99H420.676V95ZM407.549 97V24.2727H403.549V97H407.549ZM405.549 26.2727H420.25V22.2727H405.549V26.2727ZM418.25 24.2727V52.0781H422.25V24.2727H418.25ZM420.25 54.0781H420.89V50.0781H420.25V54.0781ZM422.758 52.7924C423.847 49.9427 425.579 47.7622 427.962 46.1805L425.749 42.8479C422.64 44.9121 420.394 47.7742 419.021 51.3639L422.758 52.7924ZM427.971 46.1739C430.313 44.5992 433.343 43.7443 437.189 43.7443V39.7443C432.749 39.7443 428.89 40.736 425.739 42.8545L427.971 46.1739ZM437.189 43.7443C440.678 43.7443 443.619 44.5046 446.083 45.954L448.111 42.5062C444.94 40.6412 441.276 39.7443 437.189 39.7443V43.7443ZM446.1 45.9639C448.585 47.393 450.522 49.4519 451.919 52.2023L455.485 50.3915C453.757 46.9865 451.29 44.3342 448.094 42.4963L446.1 45.9639ZM451.927 52.2187C453.332 54.9239 454.068 58.246 454.046 62.2588L458.046 62.281C458.071 57.7711 457.244 53.7778 455.477 50.375L451.927 52.2187ZM454.046 62.2699V97H458.046V62.2699H454.046ZM456.046 95H440.918V99H456.046V95ZM442.918 97V64.9688H438.918V97H442.918ZM442.918 64.9828C442.944 61.2801 442.002 58.1136 439.83 55.7634L436.892 58.4781C438.177 59.8684 438.939 61.9339 438.918 64.9547L442.918 64.9828ZM439.839 55.7735C437.675 53.3992 434.697 52.3153 431.188 52.3153V56.3153C433.835 56.3153 435.638 57.1017 436.883 58.4679L439.839 55.7735ZM431.188 52.3153C428.837 52.3153 426.673 52.8178 424.752 53.8785L426.686 57.38C427.938 56.6888 429.42 56.3153 431.188 56.3153V52.3153ZM424.741 53.8847C422.824 54.9594 421.33 56.5261 420.263 58.5207L423.789 60.4082C424.521 59.0411 425.489 58.051 426.697 57.3738L424.741 53.8847ZM420.258 58.5299C419.2 60.5309 418.703 62.8612 418.677 65.4457L422.676 65.4861C422.698 63.3831 423.1 61.7125 423.794 60.3991L420.258 58.5299Z" fill="#F5F5F5" mask="url(#path-1-outside-1_38_10)"/>
<path d="M77.52 112.08V108.8H96.84V112.08H88.92V136H85.44V112.08H77.52ZM112.575 134.84C111.375 135.427 110.175 135.827 108.975 136.04C107.775 136.28 106.669 136.4 105.655 136.4C102.802 136.4 100.669 135.587 99.2553 133.96C97.8686 132.333 97.1753 130.107 97.1753 127.28V124.88C97.1753 122.133 97.8686 119.933 99.2553 118.28C100.669 116.627 102.655 115.8 105.215 115.8C106.575 115.8 107.815 116.08 108.935 116.64C110.082 117.173 110.989 118 111.655 119.12C112.349 120.213 112.695 121.627 112.695 123.36C112.695 124.48 112.535 125.76 112.215 127.2H100.415V127.28C100.415 129.307 100.829 130.84 101.655 131.88C102.509 132.92 103.869 133.44 105.735 133.44C106.589 133.44 107.522 133.333 108.535 133.12C109.575 132.907 110.589 132.573 111.575 132.12L112.575 134.84ZM105.215 118.68C103.669 118.68 102.495 119.187 101.695 120.2C100.922 121.187 100.495 122.587 100.415 124.4H109.375C109.455 123.92 109.495 123.467 109.495 123.04C109.495 121.547 109.069 120.453 108.215 119.76C107.389 119.04 106.389 118.68 105.215 118.68ZM123.212 133.48C125.878 133.48 127.212 132.573 127.212 130.76C127.212 129.987 126.972 129.373 126.492 128.92C126.012 128.467 125.132 128.08 123.852 127.76L121.652 127.2C120.025 126.8 118.812 126.107 118.012 125.12C117.212 124.107 116.812 122.907 116.812 121.52C116.812 120.507 117.038 119.573 117.492 118.72C117.945 117.84 118.665 117.133 119.652 116.6C120.638 116.067 121.918 115.8 123.492 115.8C124.505 115.8 125.532 115.92 126.572 116.16C127.638 116.373 128.718 116.747 129.812 117.28L128.772 120.04C126.825 119.16 125.065 118.72 123.492 118.72C121.172 118.72 120.012 119.587 120.012 121.32C120.012 121.987 120.225 122.56 120.652 123.04C121.078 123.52 121.878 123.907 123.052 124.2L125.252 124.76C127.012 125.187 128.305 125.88 129.132 126.84C129.958 127.8 130.372 129.04 130.372 130.56C130.372 131.653 130.132 132.653 129.652 133.56C129.198 134.44 128.452 135.133 127.412 135.64C126.398 136.147 125.025 136.4 123.292 136.4C122.145 136.4 120.998 136.28 119.852 136.04C118.732 135.8 117.572 135.413 116.372 134.88L117.252 132.16C118.398 132.613 119.438 132.947 120.372 133.16C121.305 133.373 122.252 133.48 123.212 133.48ZM146.478 135.28C144.985 136.027 143.398 136.4 141.718 136.4C140.278 136.4 139.145 136.107 138.318 135.52C137.518 134.933 136.945 134.147 136.598 133.16C136.278 132.173 136.118 131.08 136.118 129.88V119.08H132.678V116.2H136.118V110.68H139.398V116.2H145.878V119.08H139.398V129.76C139.398 131.147 139.625 132.107 140.078 132.64C140.558 133.147 141.291 133.4 142.278 133.4C142.758 133.4 143.251 133.347 143.758 133.24C144.291 133.107 144.865 132.893 145.478 132.6L146.478 135.28ZM154.273 111.36H150.593V107.68H154.273V111.36ZM154.073 136H150.793V116.2H154.073V136ZM170.665 118.88C169.918 118.88 169.038 119.067 168.025 119.44C167.038 119.813 165.838 120.573 164.425 121.72V136H161.145V116.2H164.265V118.96C165.678 117.76 166.958 116.933 168.105 116.48C169.278 116.027 170.398 115.8 171.465 115.8C173.305 115.8 174.705 116.387 175.665 117.56C176.652 118.707 177.145 120.347 177.145 122.48V136H173.865V122.96C173.865 120.24 172.798 118.88 170.665 118.88ZM199.837 138.48C199.837 140.427 199.037 141.987 197.437 143.16C195.863 144.333 193.69 144.92 190.917 144.92C189.53 144.92 188.077 144.733 186.557 144.36C185.063 143.987 183.65 143.387 182.317 142.56L183.437 140C184.77 140.747 186.05 141.267 187.277 141.56C188.53 141.88 189.743 142.04 190.917 142.04C192.73 142.04 194.13 141.747 195.117 141.16C196.103 140.573 196.597 139.787 196.597 138.8C196.597 138.08 196.357 137.52 195.877 137.12C195.397 136.747 194.623 136.56 193.557 136.56H188.957C187.223 136.56 185.97 136.147 185.197 135.32C184.423 134.493 184.037 133.587 184.037 132.6C184.037 131.907 184.197 131.227 184.517 130.56C184.837 129.867 185.29 129.187 185.877 128.52C184.943 127.96 184.197 127.2 183.637 126.24C183.077 125.253 182.797 124.067 182.797 122.68C182.797 121.16 183.117 119.893 183.757 118.88C184.423 117.867 185.303 117.107 186.397 116.6C187.49 116.067 188.717 115.8 190.077 115.8H190.757C191.69 115.8 192.543 115.933 193.317 116.2H200.437V119.12L196.117 118.52C196.677 119 197.13 119.6 197.477 120.32C197.823 121.013 197.997 121.867 197.997 122.88C197.997 124.32 197.663 125.533 196.997 126.52C196.357 127.507 195.49 128.267 194.397 128.8C193.303 129.307 192.09 129.56 190.757 129.56H190.077C189.73 129.56 189.397 129.547 189.077 129.52C188.757 129.467 188.437 129.413 188.117 129.36C187.343 130.213 186.957 131.053 186.957 131.88C186.957 132.947 187.703 133.48 189.197 133.48H193.677C195.597 133.48 197.103 133.907 198.197 134.76C199.29 135.613 199.837 136.853 199.837 138.48ZM190.757 126.72C191.797 126.72 192.717 126.387 193.517 125.72C194.317 125.053 194.717 124.04 194.717 122.68C194.717 121.347 194.317 120.347 193.517 119.68C192.717 118.987 191.797 118.64 190.757 118.64H190.077C189.01 118.64 188.077 118.987 187.277 119.68C186.477 120.347 186.077 121.347 186.077 122.68C186.077 124.04 186.477 125.053 187.277 125.72C188.077 126.387 189.01 126.72 190.077 126.72H190.757ZM219.329 133.4C220.609 133.4 221.662 133.093 222.489 132.48C223.315 131.84 223.822 131 224.009 129.96C224.195 128.92 223.955 127.773 223.289 126.52L225.969 124.92L232.409 136H228.729L226.169 131.36C225.955 132.8 225.235 134 224.009 134.96C222.782 135.92 221.155 136.4 219.129 136.4C216.755 136.4 214.915 135.76 213.609 134.48C212.302 133.173 211.649 131.48 211.649 129.4C211.649 127.72 212.089 126.28 212.969 125.08C213.875 123.853 215.222 122.667 217.009 121.52C214.475 119.387 213.209 117.093 213.209 114.64C213.209 112.88 213.809 111.4 215.009 110.2C216.209 109 217.929 108.4 220.169 108.4C222.249 108.4 223.902 108.96 225.129 110.08C226.355 111.173 226.969 112.733 226.969 114.76C226.969 116.573 226.489 118.04 225.529 119.16C224.569 120.253 223.329 121.267 221.809 122.2L218.969 123.92C217.502 124.8 216.475 125.667 215.889 126.52C215.302 127.347 215.009 128.28 215.009 129.32C215.009 130.733 215.422 131.773 216.249 132.44C217.075 133.08 218.102 133.4 219.329 133.4ZM216.489 114.72C216.489 115.467 216.702 116.293 217.129 117.2C217.555 118.08 218.302 119.04 219.369 120.08L220.209 119.56C221.382 118.813 222.249 118.107 222.809 117.44C223.369 116.747 223.649 115.867 223.649 114.8C223.649 113.6 223.315 112.733 222.649 112.2C222.009 111.64 221.195 111.36 220.209 111.36C219.142 111.36 218.249 111.64 217.529 112.2C216.835 112.76 216.489 113.6 216.489 114.72ZM250.863 133.28C252.543 133.28 253.836 132.92 254.743 132.2C255.649 131.453 256.103 130.373 256.103 128.96C256.103 127.787 255.783 126.8 255.143 126C254.529 125.2 253.516 124.587 252.103 124.16L248.863 123.2C246.836 122.587 245.343 121.667 244.383 120.44C243.423 119.187 242.943 117.653 242.943 115.84C242.943 114.453 243.209 113.2 243.743 112.08C244.303 110.96 245.183 110.067 246.383 109.4C247.609 108.733 249.209 108.4 251.183 108.4C252.383 108.4 253.623 108.547 254.903 108.84C256.183 109.107 257.476 109.547 258.783 110.16L257.663 113.16C256.383 112.6 255.223 112.2 254.183 111.96C253.169 111.693 252.196 111.56 251.263 111.56C249.743 111.56 248.556 111.88 247.703 112.52C246.876 113.133 246.463 114.16 246.463 115.6C246.463 116.64 246.743 117.52 247.303 118.24C247.863 118.933 248.863 119.507 250.303 119.96L253.543 120.92C257.596 122.12 259.623 124.707 259.623 128.68C259.623 130.973 258.929 132.84 257.543 134.28C256.156 135.693 253.929 136.4 250.863 136.4C249.609 136.4 248.276 136.253 246.863 135.96C245.476 135.64 244.036 135.147 242.543 134.48L243.623 131.52C245.036 132.16 246.303 132.613 247.423 132.88C248.569 133.147 249.716 133.28 250.863 133.28ZM280.497 124.88V127.28C280.497 130.107 279.764 132.333 278.297 133.96C276.857 135.587 274.79 136.4 272.097 136.4C269.43 136.4 267.364 135.587 265.897 133.96C264.43 132.333 263.697 130.107 263.697 127.28V124.88C263.697 122.107 264.417 119.907 265.857 118.28C267.324 116.627 269.404 115.8 272.097 115.8C274.79 115.8 276.857 116.627 278.297 118.28C279.764 119.907 280.497 122.107 280.497 124.88ZM277.097 124.88C277.097 122.987 276.67 121.507 275.817 120.44C274.964 119.347 273.724 118.8 272.097 118.8C270.497 118.8 269.257 119.347 268.377 120.44C267.524 121.507 267.097 122.987 267.097 124.88V127.28C267.097 129.253 267.524 130.773 268.377 131.84C269.257 132.907 270.497 133.44 272.097 133.44C273.724 133.44 274.964 132.907 275.817 131.84C276.67 130.773 277.097 129.253 277.097 127.28V124.88ZM286.418 131.2V106.4H289.698V131.04C289.698 131.76 289.804 132.307 290.018 132.68C290.258 133.027 290.724 133.2 291.418 133.2H292.058V136.2H291.138C289.378 136.2 288.151 135.733 287.458 134.8C286.764 133.867 286.418 132.667 286.418 131.2ZM309.204 136V133.2C307.818 134.4 306.578 135.24 305.484 135.72C304.391 136.173 303.298 136.4 302.204 136.4C300.444 136.4 299.098 135.827 298.164 134.68C297.231 133.507 296.764 131.867 296.764 129.76V116.2H300.044V129.28C300.044 130.667 300.284 131.693 300.764 132.36C301.271 133 302.018 133.32 303.004 133.32C303.751 133.32 304.591 133.133 305.524 132.76C306.458 132.387 307.618 131.64 309.004 130.52V116.2H312.284V136H309.204ZM330.228 135.28C328.735 136.027 327.148 136.4 325.468 136.4C324.028 136.4 322.895 136.107 322.068 135.52C321.268 134.933 320.695 134.147 320.348 133.16C320.028 132.173 319.868 131.08 319.868 129.88V119.08H316.428V116.2H319.868V110.68H323.148V116.2H329.628V119.08H323.148V129.76C323.148 131.147 323.375 132.107 323.828 132.64C324.308 133.147 325.041 133.4 326.028 133.4C326.508 133.4 327.001 133.347 327.508 133.24C328.041 133.107 328.615 132.893 329.228 132.6L330.228 135.28ZM338.023 111.36H334.343V107.68H338.023V111.36ZM337.823 136H334.543V116.2H337.823V136ZM360.575 124.88V127.28C360.575 130.107 359.842 132.333 358.375 133.96C356.935 135.587 354.868 136.4 352.175 136.4C349.508 136.4 347.442 135.587 345.975 133.96C344.508 132.333 343.775 130.107 343.775 127.28V124.88C343.775 122.107 344.495 119.907 345.935 118.28C347.402 116.627 349.482 115.8 352.175 115.8C354.868 115.8 356.935 116.627 358.375 118.28C359.842 119.907 360.575 122.107 360.575 124.88ZM357.175 124.88C357.175 122.987 356.748 121.507 355.895 120.44C355.042 119.347 353.802 118.8 352.175 118.8C350.575 118.8 349.335 119.347 348.455 120.44C347.602 121.507 347.175 122.987 347.175 124.88V127.28C347.175 129.253 347.602 130.773 348.455 131.84C349.335 132.907 350.575 133.44 352.175 133.44C353.802 133.44 355.042 132.907 355.895 131.84C356.748 130.773 357.175 129.253 357.175 127.28V124.88ZM376.056 118.88C375.309 118.88 374.429 119.067 373.416 119.44C372.429 119.813 371.229 120.573 369.816 121.72V136H366.536V116.2H369.656V118.96C371.069 117.76 372.349 116.933 373.496 116.48C374.669 116.027 375.789 115.8 376.856 115.8C378.696 115.8 380.096 116.387 381.056 117.56C382.042 118.707 382.536 120.347 382.536 122.48V136H379.256V122.96C379.256 120.24 378.189 118.88 376.056 118.88Z" fill="white"/>
</svg>
