<svg width="462" height="169" viewBox="0 0 462 169" fill="none" xmlns="http://www.w3.org/2000/svg">
<mask id="path-1-outside-1_26_2" maskUnits="userSpaceOnUse" x="5" y="23" width="453" height="77" fill="black">
<rect fill="white" x="5" y="23" width="453" height="77"/>
<path d="M6.32102 24.2727H25.2841L45.3125 73.1364H46.1648L66.1932 24.2727H85.1562V97H70.2415V49.6634H69.6378L50.8168 96.6449H40.6605L21.8395 49.4858H21.2358V97H6.32102V24.2727ZM97.8249 97V24.2727H146.831V36.9503H113.201V54.2798H144.309V66.9574H113.201V84.3224H146.973V97H97.8249ZM184.837 97H159.055V24.2727H185.05C192.365 24.2727 198.662 25.7287 203.942 28.6406C209.221 31.5289 213.281 35.6837 216.122 41.1051C218.987 46.5265 220.419 53.0133 220.419 60.5653C220.419 68.1411 218.987 74.6515 216.122 80.0966C213.281 85.5417 209.197 89.7202 203.871 92.6321C198.568 95.544 192.223 97 184.837 97ZM174.432 83.8253H184.197C188.743 83.8253 192.566 83.0204 195.668 81.4105C198.793 79.777 201.136 77.2557 202.699 73.8466C204.285 70.4138 205.078 65.9867 205.078 60.5653C205.078 55.1913 204.285 50.7997 202.699 47.3906C201.136 43.9815 198.804 41.4721 195.703 39.8622C192.602 38.2524 188.778 37.4474 184.233 37.4474H174.432V83.8253Z"/>
<path d="M225.719 36.9503V24.2727H285.449V36.9503H263.184V97H247.985V36.9503H225.719ZM311.95 98.0653C306.339 98.0653 301.509 96.929 297.461 94.6562C293.436 92.3598 290.335 89.1165 288.157 84.9261C285.979 80.7121 284.89 75.7287 284.89 69.9759C284.89 64.3651 285.979 59.4408 288.157 55.2031C290.335 50.9654 293.401 47.6629 297.354 45.2955C301.332 42.928 305.996 41.7443 311.346 41.7443C314.944 41.7443 318.294 42.3243 321.396 43.4844C324.521 44.6207 327.243 46.3371 329.563 48.6335C331.907 50.9299 333.73 53.8182 335.032 57.2983C336.334 60.7547 336.985 64.803 336.985 69.4432V73.598H290.927V64.223H322.745C322.745 62.045 322.272 60.1155 321.325 58.4347C320.378 56.7538 319.064 55.4399 317.383 54.4929C315.726 53.5223 313.796 53.0369 311.594 53.0369C309.298 53.0369 307.262 53.5696 305.487 54.6349C303.735 55.6766 302.362 57.0852 301.367 58.8608C300.373 60.6127 299.864 62.5658 299.84 64.7202V73.6335C299.84 76.3324 300.337 78.6643 301.332 80.6293C302.35 82.5942 303.782 84.1094 305.629 85.1747C307.475 86.2401 309.665 86.7727 312.198 86.7727C313.879 86.7727 315.418 86.536 316.815 86.0625C318.211 85.589 319.407 84.8788 320.401 83.9318C321.396 82.9848 322.153 81.8248 322.674 80.4517L336.665 81.375C335.955 84.7367 334.499 87.6723 332.298 90.1818C330.12 92.6676 327.302 94.6089 323.846 96.0057C320.413 97.3788 316.448 98.0653 311.95 98.0653ZM371.502 98.0653C365.915 98.0653 361.109 96.8816 357.085 94.5142C353.084 92.1231 350.006 88.8087 347.852 84.571C345.721 80.3333 344.656 75.4564 344.656 69.9403C344.656 64.3532 345.733 59.4527 347.887 55.2386C350.065 51.0009 353.155 47.6984 357.156 45.331C361.156 42.9399 365.915 41.7443 371.431 41.7443C376.19 41.7443 380.356 42.6084 383.931 44.3366C387.506 46.0649 390.335 48.4915 392.418 51.6165C394.502 54.7415 395.65 58.411 395.863 62.625H381.587C381.185 59.9025 380.12 57.7126 378.391 56.0554C376.687 54.3745 374.45 53.5341 371.68 53.5341C369.336 53.5341 367.288 54.1733 365.536 55.4517C363.808 56.7064 362.459 58.5412 361.488 60.956C360.517 63.3707 360.032 66.2945 360.032 69.7273C360.032 73.2074 360.505 76.1667 361.452 78.6051C362.423 81.0436 363.784 82.902 365.536 84.1804C367.288 85.4588 369.336 86.098 371.68 86.098C373.408 86.098 374.959 85.7429 376.332 85.0327C377.728 84.3224 378.877 83.2926 379.776 81.9432C380.7 80.5701 381.303 78.9247 381.587 77.0071H395.863C395.626 81.1738 394.49 84.8433 392.454 88.0156C390.442 91.1643 387.66 93.6264 384.109 95.402C380.558 97.1776 376.355 98.0653 371.502 98.0653ZM420.676 65.4659V97H405.549V24.2727H420.25V52.0781H420.89C422.121 48.8584 424.109 46.3371 426.855 44.5142C429.602 42.6676 433.046 41.7443 437.189 41.7443C440.977 41.7443 444.28 42.5729 447.097 44.2301C449.938 45.8636 452.14 48.2192 453.702 51.2969C455.288 54.3509 456.069 58.0085 456.046 62.2699V97H440.918V64.9688C440.942 61.607 440.089 58.991 438.361 57.1207C436.657 55.2505 434.266 54.3153 431.188 54.3153C429.128 54.3153 427.305 54.7533 425.719 55.6293C424.157 56.5052 422.926 57.7836 422.026 59.4645C421.15 61.1217 420.7 63.1222 420.676 65.4659Z"/>
</mask>
<path d="M6.32102 24.2727H25.2841L45.3125 73.1364H46.1648L66.1932 24.2727H85.1562V97H70.2415V49.6634H69.6378L50.8168 96.6449H40.6605L21.8395 49.4858H21.2358V97H6.32102V24.2727ZM97.8249 97V24.2727H146.831V36.9503H113.201V54.2798H144.309V66.9574H113.201V84.3224H146.973V97H97.8249ZM184.837 97H159.055V24.2727H185.05C192.365 24.2727 198.662 25.7287 203.942 28.6406C209.221 31.5289 213.281 35.6837 216.122 41.1051C218.987 46.5265 220.419 53.0133 220.419 60.5653C220.419 68.1411 218.987 74.6515 216.122 80.0966C213.281 85.5417 209.197 89.7202 203.871 92.6321C198.568 95.544 192.223 97 184.837 97ZM174.432 83.8253H184.197C188.743 83.8253 192.566 83.0204 195.668 81.4105C198.793 79.777 201.136 77.2557 202.699 73.8466C204.285 70.4138 205.078 65.9867 205.078 60.5653C205.078 55.1913 204.285 50.7997 202.699 47.3906C201.136 43.9815 198.804 41.4721 195.703 39.8622C192.602 38.2524 188.778 37.4474 184.233 37.4474H174.432V83.8253Z" fill="#FA5656"/>
<path d="M225.719 36.9503V24.2727H285.449V36.9503H263.184V97H247.985V36.9503H225.719ZM311.95 98.0653C306.339 98.0653 301.509 96.929 297.461 94.6562C293.436 92.3598 290.335 89.1165 288.157 84.9261C285.979 80.7121 284.89 75.7287 284.89 69.9759C284.89 64.3651 285.979 59.4408 288.157 55.2031C290.335 50.9654 293.401 47.6629 297.354 45.2955C301.332 42.928 305.996 41.7443 311.346 41.7443C314.944 41.7443 318.294 42.3243 321.396 43.4844C324.521 44.6207 327.243 46.3371 329.563 48.6335C331.907 50.9299 333.73 53.8182 335.032 57.2983C336.334 60.7547 336.985 64.803 336.985 69.4432V73.598H290.927V64.223H322.745C322.745 62.045 322.272 60.1155 321.325 58.4347C320.378 56.7538 319.064 55.4399 317.383 54.4929C315.726 53.5223 313.796 53.0369 311.594 53.0369C309.298 53.0369 307.262 53.5696 305.487 54.6349C303.735 55.6766 302.362 57.0852 301.367 58.8608C300.373 60.6127 299.864 62.5658 299.84 64.7202V73.6335C299.84 76.3324 300.337 78.6643 301.332 80.6293C302.35 82.5942 303.782 84.1094 305.629 85.1747C307.475 86.2401 309.665 86.7727 312.198 86.7727C313.879 86.7727 315.418 86.536 316.815 86.0625C318.211 85.589 319.407 84.8788 320.401 83.9318C321.396 82.9848 322.153 81.8248 322.674 80.4517L336.665 81.375C335.955 84.7367 334.499 87.6723 332.298 90.1818C330.12 92.6676 327.302 94.6089 323.846 96.0057C320.413 97.3788 316.448 98.0653 311.95 98.0653ZM371.502 98.0653C365.915 98.0653 361.109 96.8816 357.085 94.5142C353.084 92.1231 350.006 88.8087 347.852 84.571C345.721 80.3333 344.656 75.4564 344.656 69.9403C344.656 64.3532 345.733 59.4527 347.887 55.2386C350.065 51.0009 353.155 47.6984 357.156 45.331C361.156 42.9399 365.915 41.7443 371.431 41.7443C376.19 41.7443 380.356 42.6084 383.931 44.3366C387.506 46.0649 390.335 48.4915 392.418 51.6165C394.502 54.7415 395.65 58.411 395.863 62.625H381.587C381.185 59.9025 380.12 57.7126 378.391 56.0554C376.687 54.3745 374.45 53.5341 371.68 53.5341C369.336 53.5341 367.288 54.1733 365.536 55.4517C363.808 56.7064 362.459 58.5412 361.488 60.956C360.517 63.3707 360.032 66.2945 360.032 69.7273C360.032 73.2074 360.505 76.1667 361.452 78.6051C362.423 81.0436 363.784 82.902 365.536 84.1804C367.288 85.4588 369.336 86.098 371.68 86.098C373.408 86.098 374.959 85.7429 376.332 85.0327C377.728 84.3224 378.877 83.2926 379.776 81.9432C380.7 80.5701 381.303 78.9247 381.587 77.0071H395.863C395.626 81.1738 394.49 84.8433 392.454 88.0156C390.442 91.1643 387.66 93.6264 384.109 95.402C380.558 97.1776 376.355 98.0653 371.502 98.0653ZM420.676 65.4659V97H405.549V24.2727H420.25V52.0781H420.89C422.121 48.8584 424.109 46.3371 426.855 44.5142C429.602 42.6676 433.046 41.7443 437.189 41.7443C440.977 41.7443 444.28 42.5729 447.097 44.2301C449.938 45.8636 452.14 48.2192 453.702 51.2969C455.288 54.3509 456.069 58.0085 456.046 62.2699V97H440.918V64.9688C440.942 61.607 440.089 58.991 438.361 57.1207C436.657 55.2505 434.266 54.3153 431.188 54.3153C429.128 54.3153 427.305 54.7533 425.719 55.6293C424.157 56.5052 422.926 57.7836 422.026 59.4645C421.15 61.1217 420.7 63.1222 420.676 65.4659Z" fill="#0E00B4"/>
<path d="M6.32102 24.2727V23.2727H5.32102V24.2727H6.32102ZM25.2841 24.2727L26.2094 23.8935L25.9549 23.2727H25.2841V24.2727ZM45.3125 73.1364L44.3872 73.5156L44.6416 74.1364H45.3125V73.1364ZM46.1648 73.1364V74.1364H46.8356L47.0901 73.5156L46.1648 73.1364ZM66.1932 24.2727V23.2727H65.5223L65.2679 23.8935L66.1932 24.2727ZM85.1562 24.2727H86.1562V23.2727H85.1562V24.2727ZM85.1562 97V98H86.1562V97H85.1562ZM70.2415 97H69.2415V98H70.2415V97ZM70.2415 49.6634H71.2415V48.6634H70.2415V49.6634ZM69.6378 49.6634V48.6634H68.9611L68.7095 49.2915L69.6378 49.6634ZM50.8168 96.6449V97.6449H51.4934L51.745 97.0168L50.8168 96.6449ZM40.6605 96.6449L39.7317 97.0156L39.9829 97.6449H40.6605V96.6449ZM21.8395 49.4858L22.7683 49.1151L22.5171 48.4858H21.8395V49.4858ZM21.2358 49.4858V48.4858H20.2358V49.4858H21.2358ZM21.2358 97V98H22.2358V97H21.2358ZM6.32102 97H5.32102V98H6.32102V97ZM6.32102 25.2727H25.2841V23.2727H6.32102V25.2727ZM24.3588 24.652L44.3872 73.5156L46.2378 72.7571L26.2094 23.8935L24.3588 24.652ZM45.3125 74.1364H46.1648V72.1364H45.3125V74.1364ZM47.0901 73.5156L67.1185 24.652L65.2679 23.8935L45.2395 72.7571L47.0901 73.5156ZM66.1932 25.2727H85.1562V23.2727H66.1932V25.2727ZM84.1562 24.2727V97H86.1562V24.2727H84.1562ZM85.1562 96H70.2415V98H85.1562V96ZM71.2415 97V49.6634H69.2415V97H71.2415ZM70.2415 48.6634H69.6378V50.6634H70.2415V48.6634ZM68.7095 49.2915L49.8885 96.273L51.745 97.0168L70.5661 50.0352L68.7095 49.2915ZM50.8168 95.6449H40.6605V97.6449H50.8168V95.6449ZM41.5893 96.2742L22.7683 49.1151L20.9107 49.8565L39.7317 97.0156L41.5893 96.2742ZM21.8395 48.4858H21.2358V50.4858H21.8395V48.4858ZM20.2358 49.4858V97H22.2358V49.4858H20.2358ZM21.2358 96H6.32102V98H21.2358V96ZM7.32102 97V24.2727H5.32102V97H7.32102ZM97.8249 97H96.8249V98H97.8249V97ZM97.8249 24.2727V23.2727H96.8249V24.2727H97.8249ZM146.831 24.2727H147.831V23.2727H146.831V24.2727ZM146.831 36.9503V37.9503H147.831V36.9503H146.831ZM113.201 36.9503V35.9503H112.201V36.9503H113.201ZM113.201 54.2798H112.201V55.2798H113.201V54.2798ZM144.309 54.2798H145.309V53.2798H144.309V54.2798ZM144.309 66.9574V67.9574H145.309V66.9574H144.309ZM113.201 66.9574V65.9574H112.201V66.9574H113.201ZM113.201 84.3224H112.201V85.3224H113.201V84.3224ZM146.973 84.3224H147.973V83.3224H146.973V84.3224ZM146.973 97V98H147.973V97H146.973ZM98.8249 97V24.2727H96.8249V97H98.8249ZM97.8249 25.2727H146.831V23.2727H97.8249V25.2727ZM145.831 24.2727V36.9503H147.831V24.2727H145.831ZM146.831 35.9503H113.201V37.9503H146.831V35.9503ZM112.201 36.9503V54.2798H114.201V36.9503H112.201ZM113.201 55.2798H144.309V53.2798H113.201V55.2798ZM143.309 54.2798V66.9574H145.309V54.2798H143.309ZM144.309 65.9574H113.201V67.9574H144.309V65.9574ZM112.201 66.9574V84.3224H114.201V66.9574H112.201ZM113.201 85.3224H146.973V83.3224H113.201V85.3224ZM145.973 84.3224V97H147.973V84.3224H145.973ZM146.973 96H97.8249V98H146.973V96ZM159.055 97H158.055V98H159.055V97ZM159.055 24.2727V23.2727H158.055V24.2727H159.055ZM203.942 28.6406L203.459 29.5163L203.462 29.5179L203.942 28.6406ZM216.122 41.1051L215.236 41.5693L215.238 41.5723L216.122 41.1051ZM216.122 80.0966L215.237 79.631L215.236 79.634L216.122 80.0966ZM203.871 92.6321L203.391 91.7547L203.389 91.7556L203.871 92.6321ZM174.432 83.8253H173.432V84.8253H174.432V83.8253ZM195.668 81.4105L196.128 82.2981L196.131 82.2967L195.668 81.4105ZM202.699 73.8466L201.791 73.4271L201.79 73.4299L202.699 73.8466ZM202.699 47.3906L201.79 47.8073L201.792 47.8125L202.699 47.3906ZM195.703 39.8622L196.164 38.9747L196.164 38.9747L195.703 39.8622ZM174.432 37.4474V36.4474H173.432V37.4474H174.432ZM184.837 96H159.055V98H184.837V96ZM160.055 97V24.2727H158.055V97H160.055ZM159.055 25.2727H185.05V23.2727H159.055V25.2727ZM185.05 25.2727C192.232 25.2727 198.356 26.7016 203.459 29.5163L204.425 27.765C198.969 24.7558 192.498 23.2727 185.05 23.2727V25.2727ZM203.462 29.5179C208.565 32.3098 212.485 36.3194 215.236 41.5693L217.008 40.641C214.077 35.048 209.877 30.748 204.422 27.7633L203.462 29.5179ZM215.238 41.5723C218.011 46.8201 219.419 53.1389 219.419 60.5653H221.419C221.419 52.8876 219.963 46.2329 217.006 40.6379L215.238 41.5723ZM219.419 60.5653C219.419 68.0158 218.011 74.359 215.237 79.631L217.007 80.5622C219.963 74.944 221.419 68.2663 221.419 60.5653H219.419ZM215.236 79.634C212.485 84.9058 208.542 88.9389 203.391 91.7547L204.35 93.5096C209.853 90.5015 214.077 86.1776 217.009 80.5592L215.236 79.634ZM203.389 91.7556C198.263 94.5704 192.092 96 184.837 96V98C192.354 98 198.872 96.5176 204.352 93.5086L203.389 91.7556ZM174.432 84.8253H184.197V82.8253H174.432V84.8253ZM184.197 84.8253C188.857 84.8253 192.848 84.0006 196.128 82.2981L195.207 80.523C192.284 82.0401 188.629 82.8253 184.197 82.8253V84.8253ZM196.131 82.2967C199.465 80.5537 201.959 77.8603 203.608 74.2632L201.79 73.4299C200.313 76.6511 198.12 79.0003 195.204 80.5243L196.131 82.2967ZM203.607 74.266C205.274 70.6576 206.078 66.0734 206.078 60.5653H204.078C204.078 65.9001 203.296 70.1701 201.791 73.4271L203.607 74.266ZM206.078 60.5653C206.078 55.1036 205.274 50.5541 203.606 46.9688L201.792 47.8125C203.296 51.0453 204.078 55.279 204.078 60.5653H206.078ZM203.608 46.974C201.96 43.3782 199.478 40.6949 196.164 38.9747L195.242 40.7498C198.131 42.2492 200.313 44.5849 201.79 47.8073L203.608 46.974ZM196.164 38.9747C192.884 37.2721 188.892 36.4474 184.233 36.4474V38.4474C188.665 38.4474 192.32 39.2326 195.242 40.7498L196.164 38.9747ZM184.233 36.4474H174.432V38.4474H184.233V36.4474ZM173.432 37.4474V83.8253H175.432V37.4474H173.432ZM225.719 36.9503H224.719V37.9503H225.719V36.9503ZM225.719 24.2727V23.2727H224.719V24.2727H225.719ZM285.449 24.2727H286.449V23.2727H285.449V24.2727ZM285.449 36.9503V37.9503H286.449V36.9503H285.449ZM263.184 36.9503V35.9503H262.184V36.9503H263.184ZM263.184 97V98H264.184V97H263.184ZM247.985 97H246.985V98H247.985V97ZM247.985 36.9503H248.985V35.9503H247.985V36.9503ZM226.719 36.9503V24.2727H224.719V36.9503H226.719ZM225.719 25.2727H285.449V23.2727H225.719V25.2727ZM284.449 24.2727V36.9503H286.449V24.2727H284.449ZM285.449 35.9503H263.184V37.9503H285.449V35.9503ZM262.184 36.9503V97H264.184V36.9503H262.184ZM263.184 96H247.985V98H263.184V96ZM248.985 97V36.9503H246.985V97H248.985ZM247.985 35.9503H225.719V37.9503H247.985V35.9503ZM297.461 94.6562L296.965 95.5248L296.971 95.5282L297.461 94.6562ZM288.157 84.9261L287.269 85.3853L287.27 85.3873L288.157 84.9261ZM288.157 55.2031L287.268 54.746L287.268 54.746L288.157 55.2031ZM297.354 45.2955L296.843 44.4362L296.841 44.4375L297.354 45.2955ZM321.396 43.4844L321.045 44.421L321.054 44.4242L321.396 43.4844ZM329.563 48.6335L328.86 49.3443L328.863 49.3478L329.563 48.6335ZM335.032 57.2983L334.095 57.6487L334.096 57.6508L335.032 57.2983ZM336.985 73.598V74.598H337.985V73.598H336.985ZM290.927 73.598H289.927V74.598H290.927V73.598ZM290.927 64.223V63.223H289.927V64.223H290.927ZM322.745 64.223V65.223H323.745V64.223H322.745ZM321.325 58.4347L320.453 58.9255L320.453 58.9255L321.325 58.4347ZM317.383 54.4929L316.877 55.3558L316.885 55.36L316.892 55.3641L317.383 54.4929ZM305.487 54.6349L305.998 55.4945L306.001 55.4924L305.487 54.6349ZM301.367 58.8608L302.237 59.3544L302.24 59.3494L301.367 58.8608ZM299.84 64.7202L298.84 64.7092V64.7202H299.84ZM301.332 80.6293L300.439 81.0808L300.444 81.0893L301.332 80.6293ZM316.815 86.0625L316.494 85.1154L316.494 85.1154L316.815 86.0625ZM320.401 83.9318L319.712 83.2077L319.712 83.2077L320.401 83.9318ZM322.674 80.4517L322.74 79.4539L322.001 79.4051L321.739 80.0971L322.674 80.4517ZM336.665 81.375L337.644 81.5817L337.882 80.4531L336.731 80.3772L336.665 81.375ZM332.298 90.1818L331.546 89.5223L331.545 89.5228L332.298 90.1818ZM323.846 96.0057L324.217 96.9342L324.221 96.9328L323.846 96.0057ZM311.95 97.0653C306.475 97.0653 301.821 95.9572 297.95 93.7843L296.971 95.5282C301.197 97.9008 306.203 99.0653 311.95 99.0653V97.0653ZM297.957 93.7877C294.102 91.5885 291.135 88.4881 289.044 84.4649L287.27 85.3873C289.535 89.7448 292.77 93.1312 296.965 95.5248L297.957 93.7877ZM289.045 84.467C286.955 80.422 285.89 75.6025 285.89 69.9759H283.89C283.89 75.8549 285.003 81.0022 287.269 85.3853L289.045 84.467ZM285.89 69.9759C285.89 64.4959 286.953 59.7334 289.046 55.6602L287.268 54.746C285.005 59.1482 283.89 64.2342 283.89 69.9759H285.89ZM289.046 55.6602C291.142 51.5827 294.08 48.4215 297.868 46.1534L296.841 44.4375C292.721 46.9042 289.528 50.3482 287.268 54.746L289.046 55.6602ZM297.866 46.1547C301.666 43.893 306.147 42.7443 311.346 42.7443V40.7443C305.844 40.7443 300.998 41.9631 296.843 44.4362L297.866 46.1547ZM311.346 42.7443C314.835 42.7443 318.065 43.3064 321.045 44.421L321.746 42.5478C318.523 41.3423 315.054 40.7443 311.346 40.7443V42.7443ZM321.054 44.4242C324.046 45.5121 326.644 47.1514 328.86 49.3442L330.267 47.9228C327.842 45.5229 324.995 43.7293 321.737 42.5446L321.054 44.4242ZM328.863 49.3478C331.089 51.5289 332.838 54.2876 334.095 57.6487L335.969 56.9479C334.622 53.3488 332.724 50.3309 330.263 47.9192L328.863 49.3478ZM334.096 57.6508C335.346 60.9698 335.985 64.8938 335.985 69.4432H337.985C337.985 64.7122 337.322 60.5396 335.968 56.9458L334.096 57.6508ZM335.985 69.4432V73.598H337.985V69.4432H335.985ZM336.985 72.598H290.927V74.598H336.985V72.598ZM291.927 73.598V64.223H289.927V73.598H291.927ZM290.927 65.223H322.745V63.223H290.927V65.223ZM323.745 64.223C323.745 61.8956 323.238 59.793 322.196 57.9438L320.453 58.9255C321.305 60.4381 321.745 62.1944 321.745 64.223H323.745ZM322.196 57.9438C321.159 56.1038 319.714 54.6583 317.874 53.6216L316.892 55.3641C318.414 56.2214 319.596 57.4038 320.453 58.9255L322.196 57.9438ZM317.888 53.63C316.056 52.5571 313.947 52.0369 311.594 52.0369V54.0369C313.645 54.0369 315.395 54.4874 316.877 55.3558L317.888 53.63ZM311.594 52.0369C309.137 52.0369 306.92 52.6089 304.972 53.7774L306.001 55.4924C307.605 54.5303 309.459 54.0369 311.594 54.0369V52.0369ZM304.975 53.7754C303.073 54.9067 301.575 56.4431 300.495 58.3722L302.24 59.3494C303.148 57.7273 304.396 56.4465 305.998 55.4945L304.975 53.7754ZM300.498 58.3672C299.414 60.2765 298.866 62.3977 298.84 64.7092L300.84 64.7312C300.862 62.734 301.332 60.9488 302.237 59.3544L300.498 58.3672ZM298.84 64.7202V73.6335H300.84V64.7202H298.84ZM298.84 73.6335C298.84 76.4544 299.36 78.9478 300.439 81.0808L302.224 80.1778C301.315 78.3808 300.84 76.2103 300.84 73.6335H298.84ZM300.444 81.0893C301.546 83.2171 303.11 84.8763 305.129 86.0409L306.128 84.3085C304.454 83.3425 303.153 81.9713 302.22 80.1693L300.444 81.0893ZM305.129 86.0409C307.154 87.2091 309.523 87.7727 312.198 87.7727V85.7727C309.807 85.7727 307.797 85.271 306.128 84.3085L305.129 86.0409ZM312.198 87.7727C313.973 87.7727 315.622 87.5226 317.136 87.0096L316.494 85.1154C315.214 85.5493 313.785 85.7727 312.198 85.7727V87.7727ZM317.136 87.0096C318.66 86.4929 319.984 85.7104 321.091 84.656L319.712 83.2077C318.83 84.0472 317.763 84.6851 316.494 85.1154L317.136 87.0096ZM321.091 84.656C322.201 83.5987 323.039 82.3095 323.609 80.8064L321.739 80.0971C321.268 81.3401 320.59 82.371 319.712 83.2077L321.091 84.656ZM322.608 81.4495L336.6 82.3728L336.731 80.3772L322.74 79.4539L322.608 81.4495ZM335.687 81.1683C335.011 84.3673 333.631 87.1457 331.546 89.5223L333.049 90.8413C335.368 88.199 336.899 85.1062 337.644 81.5817L335.687 81.1683ZM331.545 89.5228C329.483 91.8766 326.801 93.7328 323.471 95.0785L324.221 96.9328C327.803 95.485 330.756 93.4586 333.05 90.8408L331.545 89.5228ZM323.474 95.0772C320.182 96.394 316.347 97.0653 311.95 97.0653V99.0653C316.548 99.0653 320.644 98.3635 324.217 96.9342L323.474 95.0772ZM357.085 94.5142L356.572 95.3726L356.577 95.3761L357.085 94.5142ZM347.852 84.571L346.958 85.0202L346.96 85.0242L347.852 84.571ZM347.887 55.2386L346.998 54.7815L346.997 54.7834L347.887 55.2386ZM357.156 45.331L357.665 46.1916L357.669 46.1894L357.156 45.331ZM383.931 44.3366L384.366 43.4363L384.366 43.4363L383.931 44.3366ZM392.418 51.6165L391.586 52.1712L392.418 51.6165ZM395.863 62.625V63.625H396.915L396.862 62.5745L395.863 62.625ZM381.587 62.625L380.598 62.7712L380.724 63.625H381.587V62.625ZM378.391 56.0554L377.689 56.7675L377.699 56.7772L378.391 56.0554ZM365.536 55.4517L366.124 56.2609L366.126 56.2595L365.536 55.4517ZM361.452 78.6051L360.52 78.9671L360.523 78.9749L361.452 78.6051ZM365.536 84.1804L366.126 83.3726L366.126 83.3726L365.536 84.1804ZM376.332 85.0327L375.878 84.1413L375.872 84.1445L376.332 85.0327ZM379.776 81.9432L378.946 81.3852L378.944 81.3885L379.776 81.9432ZM381.587 77.0071V76.0071H380.725L380.598 76.8606L381.587 77.0071ZM395.863 77.0071L396.861 77.0638L396.921 76.0071H395.863V77.0071ZM392.454 88.0156L391.612 87.4755L391.611 87.4771L392.454 88.0156ZM384.109 95.402L383.661 94.5076L383.661 94.5076L384.109 95.402ZM371.502 97.0653C366.058 97.0653 361.435 95.913 357.592 93.6523L356.577 95.3761C360.784 97.8503 365.772 99.0653 371.502 99.0653V97.0653ZM357.598 93.6558C353.762 91.3634 350.814 88.191 348.743 84.1178L346.96 85.0242C349.198 89.4264 352.405 92.8828 356.572 95.3726L357.598 93.6558ZM348.745 84.1218C346.695 80.0446 345.656 75.3259 345.656 69.9403H343.656C343.656 75.587 344.747 80.6221 346.958 85.0202L348.745 84.1218ZM345.656 69.9403C345.656 64.483 346.707 59.7436 348.777 55.6938L346.997 54.7834C344.758 59.1617 343.656 64.2234 343.656 69.9403H345.656ZM348.776 55.6958C350.871 51.6213 353.83 48.4605 357.665 46.1916L356.646 44.4703C352.479 46.9362 349.26 50.3806 346.998 54.7815L348.776 55.6958ZM357.669 46.1894C361.488 43.9067 366.062 42.7443 371.431 42.7443V40.7443C365.768 40.7443 360.825 41.973 356.643 44.4726L357.669 46.1894ZM371.431 42.7443C376.068 42.7443 380.081 43.5861 383.496 45.237L384.366 43.4363C380.632 41.6308 376.311 40.7443 371.431 40.7443V42.7443ZM383.496 45.237C386.919 46.8921 389.608 49.2033 391.586 52.1712L393.25 51.0618C391.062 47.7796 388.092 45.2376 384.366 43.4363L383.496 45.237ZM391.586 52.1712C393.558 55.1283 394.659 58.6187 394.864 62.6755L396.862 62.5745C396.641 58.2032 395.446 54.3546 393.25 51.0618L391.586 52.1712ZM395.863 61.625H381.587V63.625H395.863V61.625ZM382.577 62.4788C382.147 59.571 380.995 57.1668 379.083 55.3336L377.699 56.7772C379.244 58.2584 380.223 60.2339 380.598 62.7712L382.577 62.4788ZM379.093 55.3434C377.172 53.4489 374.668 52.5341 371.68 52.5341V54.5341C374.231 54.5341 376.201 55.3002 377.689 56.7674L379.093 55.3434ZM371.68 52.5341C369.142 52.5341 366.884 53.2304 364.947 54.6439L366.126 56.2595C367.692 55.1162 369.53 54.5341 371.68 54.5341V52.5341ZM364.949 54.6425C363.038 56.0297 361.585 58.032 360.56 60.583L362.416 61.3289C363.332 59.0504 364.578 57.3832 366.124 56.2609L364.949 54.6425ZM360.56 60.583C359.529 63.1476 359.032 66.2053 359.032 69.7273H361.032C361.032 66.3837 361.505 63.5939 362.416 61.3289L360.56 60.583ZM359.032 69.7273C359.032 73.2926 359.516 76.382 360.52 78.9671L362.385 78.2431C361.495 75.9513 361.032 73.1221 361.032 69.7273H359.032ZM360.523 78.9749C361.549 81.5514 363.013 83.5773 364.947 84.9882L366.126 83.3726C364.555 82.2266 363.297 80.5357 362.382 78.2353L360.523 78.9749ZM364.947 84.9882C366.884 86.4018 369.142 87.098 371.68 87.098V85.098C369.53 85.098 367.692 84.5159 366.126 83.3726L364.947 84.9882ZM371.68 87.098C373.549 87.098 375.26 86.7129 376.791 85.9209L375.872 84.1445C374.657 84.7729 373.267 85.098 371.68 85.098V87.098ZM376.785 85.9241C378.34 85.1332 379.617 83.985 380.608 82.4979L378.944 81.3885C378.136 82.6002 377.117 83.5117 375.878 84.1413L376.785 85.9241ZM380.606 82.5012C381.626 80.985 382.274 79.1935 382.577 77.1537L380.598 76.8606C380.332 78.656 379.774 80.1551 378.946 81.3852L380.606 82.5012ZM381.587 78.0071H395.863V76.0071H381.587V78.0071ZM394.865 76.9504C394.636 80.9639 393.546 84.4632 391.612 87.4755L393.295 88.5557C395.434 85.2234 396.616 81.3836 396.861 77.0638L394.865 76.9504ZM391.611 87.4771C389.702 90.464 387.062 92.8075 383.661 94.5076L384.556 96.2964C388.258 94.4453 391.181 91.8646 393.296 88.5541L391.611 87.4771ZM383.661 94.5076C380.277 96.2 376.234 97.0653 371.502 97.0653V99.0653C376.477 99.0653 380.838 98.1552 384.556 96.2964L383.661 94.5076ZM420.676 65.4659L419.676 65.4558V65.4659H420.676ZM420.676 97V98H421.676V97H420.676ZM405.549 97H404.549V98H405.549V97ZM405.549 24.2727V23.2727H404.549V24.2727H405.549ZM420.25 24.2727H421.25V23.2727H420.25V24.2727ZM420.25 52.0781H419.25V53.0781H420.25V52.0781ZM420.89 52.0781V53.0781H421.578L421.824 52.4353L420.89 52.0781ZM426.855 44.5142L427.409 45.3474L427.413 45.344L426.855 44.5142ZM447.097 44.2301L446.59 45.0921L446.598 45.097L447.097 44.2301ZM453.702 51.2969L452.81 51.7496L452.815 51.7578L453.702 51.2969ZM456.046 62.2699L455.046 62.2643V62.2699H456.046ZM456.046 97V98H457.046V97H456.046ZM440.918 97H439.918V98H440.918V97ZM440.918 64.9688L439.918 64.9617V64.9688H440.918ZM438.361 57.1207L437.622 57.7944L437.627 57.7994L438.361 57.1207ZM425.719 55.6293L425.236 54.7539L425.23 54.757L425.719 55.6293ZM422.026 59.4645L421.144 58.9926L421.142 58.9972L422.026 59.4645ZM419.676 65.4659V97H421.676V65.4659H419.676ZM420.676 96H405.549V98H420.676V96ZM406.549 97V24.2727H404.549V97H406.549ZM405.549 25.2727H420.25V23.2727H405.549V25.2727ZM419.25 24.2727V52.0781H421.25V24.2727H419.25ZM420.25 53.0781H420.89V51.0781H420.25V53.0781ZM421.824 52.4353C422.984 49.4006 424.844 47.0496 427.409 45.3474L426.302 43.681C423.374 45.6246 421.257 48.3163 419.956 51.721L421.824 52.4353ZM427.413 45.344C429.957 43.6334 433.195 42.7443 437.189 42.7443V40.7443C432.898 40.7443 429.246 41.7018 426.297 43.6844L427.413 45.344ZM437.189 42.7443C440.828 42.7443 443.949 43.5388 446.59 45.092L447.604 43.3682C444.61 41.6071 441.127 40.7443 437.189 40.7443V42.7443ZM446.598 45.097C449.262 46.6283 451.331 48.8356 452.81 51.7496L454.594 50.8442C452.948 47.6029 450.614 45.0989 447.595 43.3632L446.598 45.097ZM452.815 51.7578C454.31 54.6374 455.069 58.1272 455.046 62.2643L457.046 62.2754C457.07 57.8898 456.266 54.0643 454.59 50.836L452.815 51.7578ZM455.046 62.2699V97H457.046V62.2699H455.046ZM456.046 96H440.918V98H456.046V96ZM441.918 97V64.9688H439.918V97H441.918ZM441.918 64.9758C441.943 61.4435 441.046 58.5523 439.096 56.4421L437.627 57.7994C439.133 59.4297 439.94 61.7705 439.918 64.9617L441.918 64.9758ZM439.1 56.4471C437.166 54.3248 434.481 53.3153 431.188 53.3153V55.3153C434.05 55.3153 436.147 56.1761 437.622 57.7943L439.1 56.4471ZM431.188 53.3153C428.983 53.3153 426.989 53.7856 425.236 54.7539L426.203 56.5046C427.621 55.7211 429.274 55.3153 431.188 55.3153V53.3153ZM425.23 54.757C423.49 55.7323 422.128 57.1549 421.144 58.9926L422.908 59.9364C423.723 58.4124 424.823 57.2781 426.208 56.5015L425.23 54.757ZM421.142 58.9972C420.175 60.8263 419.701 62.9917 419.677 65.4558L421.676 65.476C421.699 63.2526 422.125 61.4171 422.91 59.9318L421.142 58.9972Z" fill="white" mask="url(#path-1-outside-1_26_2)"/>
<mask id="path-3-outside-2_26_2" maskUnits="userSpaceOnUse" x="76" y="129" width="308" height="41" fill="black">
<rect fill="white" x="76" y="129" width="308" height="41"/>
<path d="M77.52 136.08V132.8H96.84V136.08H88.92V160H85.44V136.08H77.52ZM112.575 158.84C111.375 159.427 110.175 159.827 108.975 160.04C107.775 160.28 106.669 160.4 105.655 160.4C102.802 160.4 100.669 159.587 99.2553 157.96C97.8686 156.333 97.1753 154.107 97.1753 151.28V148.88C97.1753 146.133 97.8686 143.933 99.2553 142.28C100.669 140.627 102.655 139.8 105.215 139.8C106.575 139.8 107.815 140.08 108.935 140.64C110.082 141.173 110.989 142 111.655 143.12C112.349 144.213 112.695 145.627 112.695 147.36C112.695 148.48 112.535 149.76 112.215 151.2H100.415V151.28C100.415 153.307 100.829 154.84 101.655 155.88C102.509 156.92 103.869 157.44 105.735 157.44C106.589 157.44 107.522 157.333 108.535 157.12C109.575 156.907 110.589 156.573 111.575 156.12L112.575 158.84ZM105.215 142.68C103.669 142.68 102.495 143.187 101.695 144.2C100.922 145.187 100.495 146.587 100.415 148.4H109.375C109.455 147.92 109.495 147.467 109.495 147.04C109.495 145.547 109.069 144.453 108.215 143.76C107.389 143.04 106.389 142.68 105.215 142.68ZM123.212 157.48C125.878 157.48 127.212 156.573 127.212 154.76C127.212 153.987 126.972 153.373 126.492 152.92C126.012 152.467 125.132 152.08 123.852 151.76L121.652 151.2C120.025 150.8 118.812 150.107 118.012 149.12C117.212 148.107 116.812 146.907 116.812 145.52C116.812 144.507 117.038 143.573 117.492 142.72C117.945 141.84 118.665 141.133 119.652 140.6C120.638 140.067 121.918 139.8 123.492 139.8C124.505 139.8 125.532 139.92 126.572 140.16C127.638 140.373 128.718 140.747 129.812 141.28L128.772 144.04C126.825 143.16 125.065 142.72 123.492 142.72C121.172 142.72 120.012 143.587 120.012 145.32C120.012 145.987 120.225 146.56 120.652 147.04C121.078 147.52 121.878 147.907 123.052 148.2L125.252 148.76C127.012 149.187 128.305 149.88 129.132 150.84C129.958 151.8 130.372 153.04 130.372 154.56C130.372 155.653 130.132 156.653 129.652 157.56C129.198 158.44 128.452 159.133 127.412 159.64C126.398 160.147 125.025 160.4 123.292 160.4C122.145 160.4 120.998 160.28 119.852 160.04C118.732 159.8 117.572 159.413 116.372 158.88L117.252 156.16C118.398 156.613 119.438 156.947 120.372 157.16C121.305 157.373 122.252 157.48 123.212 157.48ZM146.478 159.28C144.985 160.027 143.398 160.4 141.718 160.4C140.278 160.4 139.145 160.107 138.318 159.52C137.518 158.933 136.945 158.147 136.598 157.16C136.278 156.173 136.118 155.08 136.118 153.88V143.08H132.678V140.2H136.118V134.68H139.398V140.2H145.878V143.08H139.398V153.76C139.398 155.147 139.625 156.107 140.078 156.64C140.558 157.147 141.291 157.4 142.278 157.4C142.758 157.4 143.251 157.347 143.758 157.24C144.291 157.107 144.865 156.893 145.478 156.6L146.478 159.28ZM154.273 135.36H150.593V131.68H154.273V135.36ZM154.073 160H150.793V140.2H154.073V160ZM170.665 142.88C169.918 142.88 169.038 143.067 168.025 143.44C167.038 143.813 165.838 144.573 164.425 145.72V160H161.145V140.2H164.265V142.96C165.678 141.76 166.958 140.933 168.105 140.48C169.278 140.027 170.398 139.8 171.465 139.8C173.305 139.8 174.705 140.387 175.665 141.56C176.652 142.707 177.145 144.347 177.145 146.48V160H173.865V146.96C173.865 144.24 172.798 142.88 170.665 142.88ZM199.837 162.48C199.837 164.427 199.037 165.987 197.437 167.16C195.863 168.333 193.69 168.92 190.917 168.92C189.53 168.92 188.077 168.733 186.557 168.36C185.063 167.987 183.65 167.387 182.317 166.56L183.437 164C184.77 164.747 186.05 165.267 187.277 165.56C188.53 165.88 189.743 166.04 190.917 166.04C192.73 166.04 194.13 165.747 195.117 165.16C196.103 164.573 196.597 163.787 196.597 162.8C196.597 162.08 196.357 161.52 195.877 161.12C195.397 160.747 194.623 160.56 193.557 160.56H188.957C187.223 160.56 185.97 160.147 185.197 159.32C184.423 158.493 184.037 157.587 184.037 156.6C184.037 155.907 184.197 155.227 184.517 154.56C184.837 153.867 185.29 153.187 185.877 152.52C184.943 151.96 184.197 151.2 183.637 150.24C183.077 149.253 182.797 148.067 182.797 146.68C182.797 145.16 183.117 143.893 183.757 142.88C184.423 141.867 185.303 141.107 186.397 140.6C187.49 140.067 188.717 139.8 190.077 139.8H190.757C191.69 139.8 192.543 139.933 193.317 140.2H200.437V143.12L196.117 142.52C196.677 143 197.13 143.6 197.477 144.32C197.823 145.013 197.997 145.867 197.997 146.88C197.997 148.32 197.663 149.533 196.997 150.52C196.357 151.507 195.49 152.267 194.397 152.8C193.303 153.307 192.09 153.56 190.757 153.56H190.077C189.73 153.56 189.397 153.547 189.077 153.52C188.757 153.467 188.437 153.413 188.117 153.36C187.343 154.213 186.957 155.053 186.957 155.88C186.957 156.947 187.703 157.48 189.197 157.48H193.677C195.597 157.48 197.103 157.907 198.197 158.76C199.29 159.613 199.837 160.853 199.837 162.48ZM190.757 150.72C191.797 150.72 192.717 150.387 193.517 149.72C194.317 149.053 194.717 148.04 194.717 146.68C194.717 145.347 194.317 144.347 193.517 143.68C192.717 142.987 191.797 142.64 190.757 142.64H190.077C189.01 142.64 188.077 142.987 187.277 143.68C186.477 144.347 186.077 145.347 186.077 146.68C186.077 148.04 186.477 149.053 187.277 149.72C188.077 150.387 189.01 150.72 190.077 150.72H190.757ZM219.329 157.4C220.609 157.4 221.662 157.093 222.489 156.48C223.315 155.84 223.822 155 224.009 153.96C224.195 152.92 223.955 151.773 223.289 150.52L225.969 148.92L232.409 160H228.729L226.169 155.36C225.955 156.8 225.235 158 224.009 158.96C222.782 159.92 221.155 160.4 219.129 160.4C216.755 160.4 214.915 159.76 213.609 158.48C212.302 157.173 211.649 155.48 211.649 153.4C211.649 151.72 212.089 150.28 212.969 149.08C213.875 147.853 215.222 146.667 217.009 145.52C214.475 143.387 213.209 141.093 213.209 138.64C213.209 136.88 213.809 135.4 215.009 134.2C216.209 133 217.929 132.4 220.169 132.4C222.249 132.4 223.902 132.96 225.129 134.08C226.355 135.173 226.969 136.733 226.969 138.76C226.969 140.573 226.489 142.04 225.529 143.16C224.569 144.253 223.329 145.267 221.809 146.2L218.969 147.92C217.502 148.8 216.475 149.667 215.889 150.52C215.302 151.347 215.009 152.28 215.009 153.32C215.009 154.733 215.422 155.773 216.249 156.44C217.075 157.08 218.102 157.4 219.329 157.4ZM216.489 138.72C216.489 139.467 216.702 140.293 217.129 141.2C217.555 142.08 218.302 143.04 219.369 144.08L220.209 143.56C221.382 142.813 222.249 142.107 222.809 141.44C223.369 140.747 223.649 139.867 223.649 138.8C223.649 137.6 223.315 136.733 222.649 136.2C222.009 135.64 221.195 135.36 220.209 135.36C219.142 135.36 218.249 135.64 217.529 136.2C216.835 136.76 216.489 137.6 216.489 138.72ZM250.863 157.28C252.543 157.28 253.836 156.92 254.743 156.2C255.649 155.453 256.103 154.373 256.103 152.96C256.103 151.787 255.783 150.8 255.143 150C254.529 149.2 253.516 148.587 252.103 148.16L248.863 147.2C246.836 146.587 245.343 145.667 244.383 144.44C243.423 143.187 242.943 141.653 242.943 139.84C242.943 138.453 243.209 137.2 243.743 136.08C244.303 134.96 245.183 134.067 246.383 133.4C247.609 132.733 249.209 132.4 251.183 132.4C252.383 132.4 253.623 132.547 254.903 132.84C256.183 133.107 257.476 133.547 258.783 134.16L257.663 137.16C256.383 136.6 255.223 136.2 254.183 135.96C253.169 135.693 252.196 135.56 251.263 135.56C249.743 135.56 248.556 135.88 247.703 136.52C246.876 137.133 246.463 138.16 246.463 139.6C246.463 140.64 246.743 141.52 247.303 142.24C247.863 142.933 248.863 143.507 250.303 143.96L253.543 144.92C257.596 146.12 259.623 148.707 259.623 152.68C259.623 154.973 258.929 156.84 257.543 158.28C256.156 159.693 253.929 160.4 250.863 160.4C249.609 160.4 248.276 160.253 246.863 159.96C245.476 159.64 244.036 159.147 242.543 158.48L243.623 155.52C245.036 156.16 246.303 156.613 247.423 156.88C248.569 157.147 249.716 157.28 250.863 157.28ZM280.497 148.88V151.28C280.497 154.107 279.764 156.333 278.297 157.96C276.857 159.587 274.79 160.4 272.097 160.4C269.43 160.4 267.364 159.587 265.897 157.96C264.43 156.333 263.697 154.107 263.697 151.28V148.88C263.697 146.107 264.417 143.907 265.857 142.28C267.324 140.627 269.404 139.8 272.097 139.8C274.79 139.8 276.857 140.627 278.297 142.28C279.764 143.907 280.497 146.107 280.497 148.88ZM277.097 148.88C277.097 146.987 276.67 145.507 275.817 144.44C274.964 143.347 273.724 142.8 272.097 142.8C270.497 142.8 269.257 143.347 268.377 144.44C267.524 145.507 267.097 146.987 267.097 148.88V151.28C267.097 153.253 267.524 154.773 268.377 155.84C269.257 156.907 270.497 157.44 272.097 157.44C273.724 157.44 274.964 156.907 275.817 155.84C276.67 154.773 277.097 153.253 277.097 151.28V148.88ZM286.418 155.2V130.4H289.698V155.04C289.698 155.76 289.804 156.307 290.018 156.68C290.258 157.027 290.724 157.2 291.418 157.2H292.058V160.2H291.138C289.378 160.2 288.151 159.733 287.458 158.8C286.764 157.867 286.418 156.667 286.418 155.2ZM309.204 160V157.2C307.818 158.4 306.578 159.24 305.484 159.72C304.391 160.173 303.298 160.4 302.204 160.4C300.444 160.4 299.098 159.827 298.164 158.68C297.231 157.507 296.764 155.867 296.764 153.76V140.2H300.044V153.28C300.044 154.667 300.284 155.693 300.764 156.36C301.271 157 302.018 157.32 303.004 157.32C303.751 157.32 304.591 157.133 305.524 156.76C306.458 156.387 307.618 155.64 309.004 154.52V140.2H312.284V160H309.204ZM330.228 159.28C328.735 160.027 327.148 160.4 325.468 160.4C324.028 160.4 322.895 160.107 322.068 159.52C321.268 158.933 320.695 158.147 320.348 157.16C320.028 156.173 319.868 155.08 319.868 153.88V143.08H316.428V140.2H319.868V134.68H323.148V140.2H329.628V143.08H323.148V153.76C323.148 155.147 323.375 156.107 323.828 156.64C324.308 157.147 325.041 157.4 326.028 157.4C326.508 157.4 327.001 157.347 327.508 157.24C328.041 157.107 328.615 156.893 329.228 156.6L330.228 159.28ZM338.023 135.36H334.343V131.68H338.023V135.36ZM337.823 160H334.543V140.2H337.823V160ZM360.575 148.88V151.28C360.575 154.107 359.842 156.333 358.375 157.96C356.935 159.587 354.868 160.4 352.175 160.4C349.508 160.4 347.442 159.587 345.975 157.96C344.508 156.333 343.775 154.107 343.775 151.28V148.88C343.775 146.107 344.495 143.907 345.935 142.28C347.402 140.627 349.482 139.8 352.175 139.8C354.868 139.8 356.935 140.627 358.375 142.28C359.842 143.907 360.575 146.107 360.575 148.88ZM357.175 148.88C357.175 146.987 356.748 145.507 355.895 144.44C355.042 143.347 353.802 142.8 352.175 142.8C350.575 142.8 349.335 143.347 348.455 144.44C347.602 145.507 347.175 146.987 347.175 148.88V151.28C347.175 153.253 347.602 154.773 348.455 155.84C349.335 156.907 350.575 157.44 352.175 157.44C353.802 157.44 355.042 156.907 355.895 155.84C356.748 154.773 357.175 153.253 357.175 151.28V148.88ZM376.056 142.88C375.309 142.88 374.429 143.067 373.416 143.44C372.429 143.813 371.229 144.573 369.816 145.72V160H366.536V140.2H369.656V142.96C371.069 141.76 372.349 140.933 373.496 140.48C374.669 140.027 375.789 139.8 376.856 139.8C378.696 139.8 380.096 140.387 381.056 141.56C382.042 142.707 382.536 144.347 382.536 146.48V160H379.256V146.96C379.256 144.24 378.189 142.88 376.056 142.88Z"/>
</mask>
<path d="M77.52 136.08V132.8H96.84V136.08H88.92V160H85.44V136.08H77.52ZM112.575 158.84C111.375 159.427 110.175 159.827 108.975 160.04C107.775 160.28 106.669 160.4 105.655 160.4C102.802 160.4 100.669 159.587 99.2553 157.96C97.8686 156.333 97.1753 154.107 97.1753 151.28V148.88C97.1753 146.133 97.8686 143.933 99.2553 142.28C100.669 140.627 102.655 139.8 105.215 139.8C106.575 139.8 107.815 140.08 108.935 140.64C110.082 141.173 110.989 142 111.655 143.12C112.349 144.213 112.695 145.627 112.695 147.36C112.695 148.48 112.535 149.76 112.215 151.2H100.415V151.28C100.415 153.307 100.829 154.84 101.655 155.88C102.509 156.92 103.869 157.44 105.735 157.44C106.589 157.44 107.522 157.333 108.535 157.12C109.575 156.907 110.589 156.573 111.575 156.12L112.575 158.84ZM105.215 142.68C103.669 142.68 102.495 143.187 101.695 144.2C100.922 145.187 100.495 146.587 100.415 148.4H109.375C109.455 147.92 109.495 147.467 109.495 147.04C109.495 145.547 109.069 144.453 108.215 143.76C107.389 143.04 106.389 142.68 105.215 142.68ZM123.212 157.48C125.878 157.48 127.212 156.573 127.212 154.76C127.212 153.987 126.972 153.373 126.492 152.92C126.012 152.467 125.132 152.08 123.852 151.76L121.652 151.2C120.025 150.8 118.812 150.107 118.012 149.12C117.212 148.107 116.812 146.907 116.812 145.52C116.812 144.507 117.038 143.573 117.492 142.72C117.945 141.84 118.665 141.133 119.652 140.6C120.638 140.067 121.918 139.8 123.492 139.8C124.505 139.8 125.532 139.92 126.572 140.16C127.638 140.373 128.718 140.747 129.812 141.28L128.772 144.04C126.825 143.16 125.065 142.72 123.492 142.72C121.172 142.72 120.012 143.587 120.012 145.32C120.012 145.987 120.225 146.56 120.652 147.04C121.078 147.52 121.878 147.907 123.052 148.2L125.252 148.76C127.012 149.187 128.305 149.88 129.132 150.84C129.958 151.8 130.372 153.04 130.372 154.56C130.372 155.653 130.132 156.653 129.652 157.56C129.198 158.44 128.452 159.133 127.412 159.64C126.398 160.147 125.025 160.4 123.292 160.4C122.145 160.4 120.998 160.28 119.852 160.04C118.732 159.8 117.572 159.413 116.372 158.88L117.252 156.16C118.398 156.613 119.438 156.947 120.372 157.16C121.305 157.373 122.252 157.48 123.212 157.48ZM146.478 159.28C144.985 160.027 143.398 160.4 141.718 160.4C140.278 160.4 139.145 160.107 138.318 159.52C137.518 158.933 136.945 158.147 136.598 157.16C136.278 156.173 136.118 155.08 136.118 153.88V143.08H132.678V140.2H136.118V134.68H139.398V140.2H145.878V143.08H139.398V153.76C139.398 155.147 139.625 156.107 140.078 156.64C140.558 157.147 141.291 157.4 142.278 157.4C142.758 157.4 143.251 157.347 143.758 157.24C144.291 157.107 144.865 156.893 145.478 156.6L146.478 159.28ZM154.273 135.36H150.593V131.68H154.273V135.36ZM154.073 160H150.793V140.2H154.073V160ZM170.665 142.88C169.918 142.88 169.038 143.067 168.025 143.44C167.038 143.813 165.838 144.573 164.425 145.72V160H161.145V140.2H164.265V142.96C165.678 141.76 166.958 140.933 168.105 140.48C169.278 140.027 170.398 139.8 171.465 139.8C173.305 139.8 174.705 140.387 175.665 141.56C176.652 142.707 177.145 144.347 177.145 146.48V160H173.865V146.96C173.865 144.24 172.798 142.88 170.665 142.88ZM199.837 162.48C199.837 164.427 199.037 165.987 197.437 167.16C195.863 168.333 193.69 168.92 190.917 168.92C189.53 168.92 188.077 168.733 186.557 168.36C185.063 167.987 183.65 167.387 182.317 166.56L183.437 164C184.77 164.747 186.05 165.267 187.277 165.56C188.53 165.88 189.743 166.04 190.917 166.04C192.73 166.04 194.13 165.747 195.117 165.16C196.103 164.573 196.597 163.787 196.597 162.8C196.597 162.08 196.357 161.52 195.877 161.12C195.397 160.747 194.623 160.56 193.557 160.56H188.957C187.223 160.56 185.97 160.147 185.197 159.32C184.423 158.493 184.037 157.587 184.037 156.6C184.037 155.907 184.197 155.227 184.517 154.56C184.837 153.867 185.29 153.187 185.877 152.52C184.943 151.96 184.197 151.2 183.637 150.24C183.077 149.253 182.797 148.067 182.797 146.68C182.797 145.16 183.117 143.893 183.757 142.88C184.423 141.867 185.303 141.107 186.397 140.6C187.49 140.067 188.717 139.8 190.077 139.8H190.757C191.69 139.8 192.543 139.933 193.317 140.2H200.437V143.12L196.117 142.52C196.677 143 197.13 143.6 197.477 144.32C197.823 145.013 197.997 145.867 197.997 146.88C197.997 148.32 197.663 149.533 196.997 150.52C196.357 151.507 195.49 152.267 194.397 152.8C193.303 153.307 192.09 153.56 190.757 153.56H190.077C189.73 153.56 189.397 153.547 189.077 153.52C188.757 153.467 188.437 153.413 188.117 153.36C187.343 154.213 186.957 155.053 186.957 155.88C186.957 156.947 187.703 157.48 189.197 157.48H193.677C195.597 157.48 197.103 157.907 198.197 158.76C199.29 159.613 199.837 160.853 199.837 162.48ZM190.757 150.72C191.797 150.72 192.717 150.387 193.517 149.72C194.317 149.053 194.717 148.04 194.717 146.68C194.717 145.347 194.317 144.347 193.517 143.68C192.717 142.987 191.797 142.64 190.757 142.64H190.077C189.01 142.64 188.077 142.987 187.277 143.68C186.477 144.347 186.077 145.347 186.077 146.68C186.077 148.04 186.477 149.053 187.277 149.72C188.077 150.387 189.01 150.72 190.077 150.72H190.757ZM219.329 157.4C220.609 157.4 221.662 157.093 222.489 156.48C223.315 155.84 223.822 155 224.009 153.96C224.195 152.92 223.955 151.773 223.289 150.52L225.969 148.92L232.409 160H228.729L226.169 155.36C225.955 156.8 225.235 158 224.009 158.96C222.782 159.92 221.155 160.4 219.129 160.4C216.755 160.4 214.915 159.76 213.609 158.48C212.302 157.173 211.649 155.48 211.649 153.4C211.649 151.72 212.089 150.28 212.969 149.08C213.875 147.853 215.222 146.667 217.009 145.52C214.475 143.387 213.209 141.093 213.209 138.64C213.209 136.88 213.809 135.4 215.009 134.2C216.209 133 217.929 132.4 220.169 132.4C222.249 132.4 223.902 132.96 225.129 134.08C226.355 135.173 226.969 136.733 226.969 138.76C226.969 140.573 226.489 142.04 225.529 143.16C224.569 144.253 223.329 145.267 221.809 146.2L218.969 147.92C217.502 148.8 216.475 149.667 215.889 150.52C215.302 151.347 215.009 152.28 215.009 153.32C215.009 154.733 215.422 155.773 216.249 156.44C217.075 157.08 218.102 157.4 219.329 157.4ZM216.489 138.72C216.489 139.467 216.702 140.293 217.129 141.2C217.555 142.08 218.302 143.04 219.369 144.08L220.209 143.56C221.382 142.813 222.249 142.107 222.809 141.44C223.369 140.747 223.649 139.867 223.649 138.8C223.649 137.6 223.315 136.733 222.649 136.2C222.009 135.64 221.195 135.36 220.209 135.36C219.142 135.36 218.249 135.64 217.529 136.2C216.835 136.76 216.489 137.6 216.489 138.72ZM250.863 157.28C252.543 157.28 253.836 156.92 254.743 156.2C255.649 155.453 256.103 154.373 256.103 152.96C256.103 151.787 255.783 150.8 255.143 150C254.529 149.2 253.516 148.587 252.103 148.16L248.863 147.2C246.836 146.587 245.343 145.667 244.383 144.44C243.423 143.187 242.943 141.653 242.943 139.84C242.943 138.453 243.209 137.2 243.743 136.08C244.303 134.96 245.183 134.067 246.383 133.4C247.609 132.733 249.209 132.4 251.183 132.4C252.383 132.4 253.623 132.547 254.903 132.84C256.183 133.107 257.476 133.547 258.783 134.16L257.663 137.16C256.383 136.6 255.223 136.2 254.183 135.96C253.169 135.693 252.196 135.56 251.263 135.56C249.743 135.56 248.556 135.88 247.703 136.52C246.876 137.133 246.463 138.16 246.463 139.6C246.463 140.64 246.743 141.52 247.303 142.24C247.863 142.933 248.863 143.507 250.303 143.96L253.543 144.92C257.596 146.12 259.623 148.707 259.623 152.68C259.623 154.973 258.929 156.84 257.543 158.28C256.156 159.693 253.929 160.4 250.863 160.4C249.609 160.4 248.276 160.253 246.863 159.96C245.476 159.64 244.036 159.147 242.543 158.48L243.623 155.52C245.036 156.16 246.303 156.613 247.423 156.88C248.569 157.147 249.716 157.28 250.863 157.28ZM280.497 148.88V151.28C280.497 154.107 279.764 156.333 278.297 157.96C276.857 159.587 274.79 160.4 272.097 160.4C269.43 160.4 267.364 159.587 265.897 157.96C264.43 156.333 263.697 154.107 263.697 151.28V148.88C263.697 146.107 264.417 143.907 265.857 142.28C267.324 140.627 269.404 139.8 272.097 139.8C274.79 139.8 276.857 140.627 278.297 142.28C279.764 143.907 280.497 146.107 280.497 148.88ZM277.097 148.88C277.097 146.987 276.67 145.507 275.817 144.44C274.964 143.347 273.724 142.8 272.097 142.8C270.497 142.8 269.257 143.347 268.377 144.44C267.524 145.507 267.097 146.987 267.097 148.88V151.28C267.097 153.253 267.524 154.773 268.377 155.84C269.257 156.907 270.497 157.44 272.097 157.44C273.724 157.44 274.964 156.907 275.817 155.84C276.67 154.773 277.097 153.253 277.097 151.28V148.88ZM286.418 155.2V130.4H289.698V155.04C289.698 155.76 289.804 156.307 290.018 156.68C290.258 157.027 290.724 157.2 291.418 157.2H292.058V160.2H291.138C289.378 160.2 288.151 159.733 287.458 158.8C286.764 157.867 286.418 156.667 286.418 155.2ZM309.204 160V157.2C307.818 158.4 306.578 159.24 305.484 159.72C304.391 160.173 303.298 160.4 302.204 160.4C300.444 160.4 299.098 159.827 298.164 158.68C297.231 157.507 296.764 155.867 296.764 153.76V140.2H300.044V153.28C300.044 154.667 300.284 155.693 300.764 156.36C301.271 157 302.018 157.32 303.004 157.32C303.751 157.32 304.591 157.133 305.524 156.76C306.458 156.387 307.618 155.64 309.004 154.52V140.2H312.284V160H309.204ZM330.228 159.28C328.735 160.027 327.148 160.4 325.468 160.4C324.028 160.4 322.895 160.107 322.068 159.52C321.268 158.933 320.695 158.147 320.348 157.16C320.028 156.173 319.868 155.08 319.868 153.88V143.08H316.428V140.2H319.868V134.68H323.148V140.2H329.628V143.08H323.148V153.76C323.148 155.147 323.375 156.107 323.828 156.64C324.308 157.147 325.041 157.4 326.028 157.4C326.508 157.4 327.001 157.347 327.508 157.24C328.041 157.107 328.615 156.893 329.228 156.6L330.228 159.28ZM338.023 135.36H334.343V131.68H338.023V135.36ZM337.823 160H334.543V140.2H337.823V160ZM360.575 148.88V151.28C360.575 154.107 359.842 156.333 358.375 157.96C356.935 159.587 354.868 160.4 352.175 160.4C349.508 160.4 347.442 159.587 345.975 157.96C344.508 156.333 343.775 154.107 343.775 151.28V148.88C343.775 146.107 344.495 143.907 345.935 142.28C347.402 140.627 349.482 139.8 352.175 139.8C354.868 139.8 356.935 140.627 358.375 142.28C359.842 143.907 360.575 146.107 360.575 148.88ZM357.175 148.88C357.175 146.987 356.748 145.507 355.895 144.44C355.042 143.347 353.802 142.8 352.175 142.8C350.575 142.8 349.335 143.347 348.455 144.44C347.602 145.507 347.175 146.987 347.175 148.88V151.28C347.175 153.253 347.602 154.773 348.455 155.84C349.335 156.907 350.575 157.44 352.175 157.44C353.802 157.44 355.042 156.907 355.895 155.84C356.748 154.773 357.175 153.253 357.175 151.28V148.88ZM376.056 142.88C375.309 142.88 374.429 143.067 373.416 143.44C372.429 143.813 371.229 144.573 369.816 145.72V160H366.536V140.2H369.656V142.96C371.069 141.76 372.349 140.933 373.496 140.48C374.669 140.027 375.789 139.8 376.856 139.8C378.696 139.8 380.096 140.387 381.056 141.56C382.042 142.707 382.536 144.347 382.536 146.48V160H379.256V146.96C379.256 144.24 378.189 142.88 376.056 142.88Z" fill="#0E00B4"/>
<path d="M77.52 136.08H76.52V137.08H77.52V136.08ZM77.52 132.8V131.8H76.52V132.8H77.52ZM96.84 132.8H97.84V131.8H96.84V132.8ZM96.84 136.08V137.08H97.84V136.08H96.84ZM88.92 136.08V135.08H87.92V136.08H88.92ZM88.92 160V161H89.92V160H88.92ZM85.44 160H84.44V161H85.44V160ZM85.44 136.08H86.44V135.08H85.44V136.08ZM78.52 136.08V132.8H76.52V136.08H78.52ZM77.52 133.8H96.84V131.8H77.52V133.8ZM95.84 132.8V136.08H97.84V132.8H95.84ZM96.84 135.08H88.92V137.08H96.84V135.08ZM87.92 136.08V160H89.92V136.08H87.92ZM88.92 159H85.44V161H88.92V159ZM86.44 160V136.08H84.44V160H86.44ZM85.44 135.08H77.52V137.08H85.44V135.08ZM112.575 158.84L113.015 159.738L113.825 159.342L113.514 158.495L112.575 158.84ZM108.975 160.04L108.8 159.055L108.79 159.057L108.779 159.059L108.975 160.04ZM99.2553 157.96L98.4943 158.609L98.5004 158.616L99.2553 157.96ZM99.2553 142.28L98.4952 141.63L98.4891 141.637L99.2553 142.28ZM108.935 140.64L108.488 141.534L108.501 141.541L108.514 141.547L108.935 140.64ZM111.655 143.12L110.796 143.631L110.803 143.644L110.811 143.656L111.655 143.12ZM112.215 151.2V152.2H113.017L113.192 151.417L112.215 151.2ZM100.415 151.2V150.2H99.4153V151.2H100.415ZM101.655 155.88L100.872 156.502L100.877 156.508L100.882 156.514L101.655 155.88ZM108.535 157.12L108.334 156.14L108.329 156.141L108.535 157.12ZM111.575 156.12L112.514 155.775L112.141 154.76L111.158 155.211L111.575 156.12ZM101.695 144.2L100.91 143.58L100.908 143.583L101.695 144.2ZM100.415 148.4L99.4163 148.356L99.3702 149.4H100.415V148.4ZM109.375 148.4V149.4H110.222L110.362 148.564L109.375 148.4ZM108.215 143.76L107.559 144.514L107.571 144.525L107.585 144.536L108.215 143.76ZM112.136 157.942C111.012 158.491 109.9 158.86 108.8 159.055L109.15 161.025C110.45 160.793 111.739 160.362 113.015 159.738L112.136 157.942ZM108.779 159.059C107.631 159.289 106.591 159.4 105.655 159.4V161.4C106.746 161.4 107.92 161.271 109.171 161.021L108.779 159.059ZM105.655 159.4C102.992 159.4 101.177 158.647 100.01 157.304L98.5004 158.616C100.16 160.526 102.612 161.4 105.655 161.4V159.4ZM100.016 157.311C98.8277 155.917 98.1753 153.946 98.1753 151.28H96.1753C96.1753 154.267 96.9096 156.75 98.4943 158.609L100.016 157.311ZM98.1753 151.28V148.88H96.1753V151.28H98.1753ZM98.1753 148.88C98.1753 146.303 98.8233 144.351 100.022 142.923L98.4891 141.637C96.914 143.515 96.1753 145.964 96.1753 148.88H98.1753ZM100.015 142.93C101.205 141.539 102.891 140.8 105.215 140.8V138.8C102.42 138.8 100.133 139.715 98.4952 141.63L100.015 142.93ZM105.215 140.8C106.434 140.8 107.519 141.05 108.488 141.534L109.383 139.746C108.112 139.11 106.717 138.8 105.215 138.8V140.8ZM108.514 141.547C109.472 141.993 110.229 142.679 110.796 143.631L112.515 142.609C111.748 141.321 110.692 140.354 109.357 139.733L108.514 141.547ZM110.811 143.656C111.374 144.543 111.695 145.754 111.695 147.36H113.695C113.695 145.5 113.324 143.884 112.5 142.584L110.811 143.656ZM111.695 147.36C111.695 148.388 111.548 149.593 111.239 150.983L113.192 151.417C113.523 149.927 113.695 148.572 113.695 147.36H111.695ZM112.215 150.2H100.415V152.2H112.215V150.2ZM99.4153 151.2V151.28H101.415V151.2H99.4153ZM99.4153 151.28C99.4153 153.42 99.8482 155.214 100.872 156.502L102.438 155.258C101.809 154.466 101.415 153.194 101.415 151.28H99.4153ZM100.882 156.514C101.991 157.866 103.691 158.44 105.735 158.44V156.44C104.046 156.44 103.026 155.974 102.428 155.246L100.882 156.514ZM105.735 158.44C106.671 158.44 107.674 158.323 108.741 158.099L108.329 156.141C107.37 156.343 106.507 156.44 105.735 156.44V158.44ZM108.736 158.1C109.853 157.871 110.938 157.513 111.993 157.029L111.158 155.211C110.239 155.634 109.298 155.943 108.334 156.14L108.736 158.1ZM110.637 156.465L111.637 159.185L113.514 158.495L112.514 155.775L110.637 156.465ZM105.215 141.68C103.43 141.68 101.938 142.278 100.91 143.58L102.48 144.82C103.052 144.095 103.907 143.68 105.215 143.68V141.68ZM100.908 143.583C99.9603 144.793 99.5015 146.424 99.4163 148.356L101.414 148.444C101.489 146.75 101.884 145.581 102.482 144.817L100.908 143.583ZM100.415 149.4H109.375V147.4H100.415V149.4ZM110.362 148.564C110.45 148.037 110.495 147.529 110.495 147.04H108.495C108.495 147.405 108.461 147.803 108.389 148.236L110.362 148.564ZM110.495 147.04C110.495 145.36 110.009 143.929 108.846 142.984L107.585 144.536C108.128 144.978 108.495 145.733 108.495 147.04H110.495ZM108.872 143.006C107.85 142.116 106.612 141.68 105.215 141.68V143.68C106.166 143.68 106.927 143.964 107.559 144.514L108.872 143.006ZM126.492 152.92L125.805 153.647L125.805 153.647L126.492 152.92ZM123.852 151.76L123.605 152.729L123.609 152.73L123.852 151.76ZM121.652 151.2L121.898 150.231L121.89 150.229L121.652 151.2ZM118.012 149.12L117.227 149.74L117.235 149.75L118.012 149.12ZM117.492 142.72L118.375 143.189L118.381 143.178L117.492 142.72ZM126.572 140.16L126.347 141.134L126.361 141.138L126.375 141.141L126.572 140.16ZM129.812 141.28L130.747 141.633L131.068 140.78L130.25 140.381L129.812 141.28ZM128.772 144.04L128.36 144.951L129.331 145.39L129.707 144.393L128.772 144.04ZM120.652 147.04L119.904 147.704L119.904 147.704L120.652 147.04ZM123.052 148.2L123.298 147.231L123.294 147.23L123.052 148.2ZM125.252 148.76L125.005 149.729L125.016 149.732L125.252 148.76ZM129.132 150.84L129.889 150.187L129.889 150.187L129.132 150.84ZM129.652 157.56L128.768 157.092L128.763 157.102L129.652 157.56ZM127.412 159.64L126.974 158.741L126.964 158.746L127.412 159.64ZM119.852 160.04L119.642 161.018L119.647 161.019L119.852 160.04ZM116.372 158.88L115.42 158.572L115.143 159.428L115.965 159.794L116.372 158.88ZM117.252 156.16L117.619 155.23L116.628 154.838L116.3 155.852L117.252 156.16ZM120.372 157.16L120.594 156.185L120.594 156.185L120.372 157.16ZM123.212 158.48C124.627 158.48 125.865 158.245 126.774 157.627C127.752 156.962 128.212 155.95 128.212 154.76H126.212C126.212 155.384 126.005 155.731 125.649 155.973C125.225 156.262 124.463 156.48 123.212 156.48V158.48ZM128.212 154.76C128.212 153.763 127.893 152.868 127.178 152.193L125.805 153.647C126.05 153.879 126.212 154.211 126.212 154.76H128.212ZM127.178 152.193C126.501 151.553 125.405 151.118 124.094 150.79L123.609 152.73C124.858 153.042 125.522 153.38 125.805 153.647L127.178 152.193ZM124.098 150.791L121.898 150.231L121.405 152.169L123.605 152.729L124.098 150.791ZM121.89 150.229C120.408 149.864 119.413 149.261 118.788 148.49L117.235 149.75C118.21 150.953 119.642 151.736 121.413 152.171L121.89 150.229ZM118.796 148.5C118.146 147.677 117.812 146.7 117.812 145.52H115.812C115.812 147.114 116.277 148.536 117.227 149.74L118.796 148.5ZM117.812 145.52C117.812 144.662 118.002 143.891 118.375 143.189L116.608 142.251C116.075 143.256 115.812 144.351 115.812 145.52H117.812ZM118.381 143.178C118.73 142.5 119.293 141.93 120.127 141.48L119.176 139.72C118.037 140.336 117.16 141.18 116.603 142.262L118.381 143.178ZM120.127 141.48C120.921 141.051 122.021 140.8 123.492 140.8V138.8C121.815 138.8 120.356 139.083 119.176 139.72L120.127 141.48ZM123.492 140.8C124.425 140.8 125.377 140.911 126.347 141.134L126.796 139.186C125.687 138.929 124.584 138.8 123.492 138.8V140.8ZM126.375 141.141C127.349 141.335 128.348 141.679 129.373 142.179L130.25 140.381C129.089 139.815 127.928 139.411 126.768 139.179L126.375 141.141ZM128.876 140.927L127.836 143.687L129.707 144.393L130.747 141.633L128.876 140.927ZM129.183 143.129C127.151 142.21 125.248 141.72 123.492 141.72V143.72C124.882 143.72 126.499 144.11 128.36 144.951L129.183 143.129ZM123.492 141.72C122.236 141.72 121.112 141.949 120.283 142.569C119.399 143.229 119.012 144.208 119.012 145.32H121.012C121.012 144.699 121.204 144.377 121.48 144.171C121.811 143.924 122.427 143.72 123.492 143.72V141.72ZM119.012 145.32C119.012 146.221 119.308 147.034 119.904 147.704L121.399 146.376C121.142 146.086 121.012 145.752 121.012 145.32H119.012ZM119.904 147.704C120.539 148.418 121.587 148.865 122.809 149.17L123.294 147.23C122.169 146.949 121.618 146.622 121.399 146.376L119.904 147.704ZM122.805 149.169L125.005 149.729L125.498 147.791L123.298 147.231L122.805 149.169ZM125.016 149.732C126.657 150.13 127.731 150.746 128.374 151.493L129.889 150.187C128.879 149.014 127.366 148.244 125.487 147.788L125.016 149.732ZM128.374 151.493C129.014 152.236 129.372 153.229 129.372 154.56H131.372C131.372 152.851 130.902 151.364 129.889 150.187L128.374 151.493ZM129.372 154.56C129.372 155.501 129.166 156.339 128.768 157.092L130.535 158.028C131.097 156.968 131.372 155.805 131.372 154.56H129.372ZM128.763 157.102C128.424 157.759 127.854 158.312 126.974 158.741L127.85 160.539C129.05 159.954 129.972 159.121 130.541 158.018L128.763 157.102ZM126.964 158.746C126.144 159.156 124.944 159.4 123.292 159.4V161.4C125.105 161.4 126.652 161.138 127.859 160.534L126.964 158.746ZM123.292 159.4C122.215 159.4 121.137 159.287 120.056 159.061L119.647 161.019C120.859 161.273 122.075 161.4 123.292 161.4V159.4ZM120.061 159.062C119.018 158.839 117.924 158.475 116.778 157.966L115.965 159.794C117.22 160.351 118.445 160.761 119.642 161.018L120.061 159.062ZM117.323 159.188L118.203 156.468L116.3 155.852L115.42 158.572L117.323 159.188ZM116.884 157.09C118.065 157.557 119.154 157.908 120.149 158.135L120.594 156.185C119.722 155.986 118.731 155.67 117.619 155.23L116.884 157.09ZM120.149 158.135C121.155 158.365 122.177 158.48 123.212 158.48V156.48C122.326 156.48 121.454 156.382 120.594 156.185L120.149 158.135ZM146.478 159.28L146.925 160.174L147.729 159.772L147.415 158.93L146.478 159.28ZM138.318 159.52L137.727 160.326L137.733 160.331L137.739 160.336L138.318 159.52ZM136.598 157.16L135.647 157.469L135.651 157.48L135.655 157.491L136.598 157.16ZM136.118 143.08H137.118V142.08H136.118V143.08ZM132.678 143.08H131.678V144.08H132.678V143.08ZM132.678 140.2V139.2H131.678V140.2H132.678ZM136.118 140.2V141.2H137.118V140.2H136.118ZM136.118 134.68V133.68H135.118V134.68H136.118ZM139.398 134.68H140.398V133.68H139.398V134.68ZM139.398 140.2H138.398V141.2H139.398V140.2ZM145.878 140.2H146.878V139.2H145.878V140.2ZM145.878 143.08V144.08H146.878V143.08H145.878ZM139.398 143.08V142.08H138.398V143.08H139.398ZM140.078 156.64L139.316 157.288L139.334 157.308L139.352 157.328L140.078 156.64ZM143.758 157.24L143.964 158.219L143.982 158.215L144.001 158.21L143.758 157.24ZM145.478 156.6L146.415 156.25L146.033 155.226L145.047 155.698L145.478 156.6ZM146.031 158.386C144.677 159.062 143.244 159.4 141.718 159.4V161.4C143.552 161.4 145.292 160.991 146.925 160.174L146.031 158.386ZM141.718 159.4C140.401 159.4 139.497 159.13 138.897 158.704L137.739 160.336C138.793 161.083 140.155 161.4 141.718 161.4V159.4ZM138.909 158.714C138.281 158.253 137.825 157.636 137.542 156.829L135.655 157.491C136.064 158.657 136.755 159.614 137.727 160.326L138.909 158.714ZM137.549 156.851C137.266 155.979 137.118 154.991 137.118 153.88H135.118C135.118 155.169 135.29 156.368 135.647 157.469L137.549 156.851ZM137.118 153.88V143.08H135.118V153.88H137.118ZM136.118 142.08H132.678V144.08H136.118V142.08ZM133.678 143.08V140.2H131.678V143.08H133.678ZM132.678 141.2H136.118V139.2H132.678V141.2ZM137.118 140.2V134.68H135.118V140.2H137.118ZM136.118 135.68H139.398V133.68H136.118V135.68ZM138.398 134.68V140.2H140.398V134.68H138.398ZM139.398 141.2H145.878V139.2H139.398V141.2ZM144.878 140.2V143.08H146.878V140.2H144.878ZM145.878 142.08H139.398V144.08H145.878V142.08ZM138.398 143.08V153.76H140.398V143.08H138.398ZM138.398 153.76C138.398 155.185 138.617 156.465 139.316 157.288L140.84 155.992C140.633 155.748 140.398 155.108 140.398 153.76H138.398ZM139.352 157.328C140.088 158.105 141.133 158.4 142.278 158.4V156.4C141.45 156.4 141.028 156.189 140.804 155.952L139.352 157.328ZM142.278 158.4C142.833 158.4 143.395 158.338 143.964 158.219L143.552 156.261C143.108 156.355 142.684 156.4 142.278 156.4V158.4ZM144.001 158.21C144.612 158.057 145.249 157.818 145.91 157.502L145.047 155.698C144.48 155.969 143.971 156.156 143.516 156.27L144.001 158.21ZM144.541 156.95L145.541 159.63L147.415 158.93L146.415 156.25L144.541 156.95ZM154.273 135.36V136.36H155.273V135.36H154.273ZM150.593 135.36H149.593V136.36H150.593V135.36ZM150.593 131.68V130.68H149.593V131.68H150.593ZM154.273 131.68H155.273V130.68H154.273V131.68ZM154.073 160V161H155.073V160H154.073ZM150.793 160H149.793V161H150.793V160ZM150.793 140.2V139.2H149.793V140.2H150.793ZM154.073 140.2H155.073V139.2H154.073V140.2ZM154.273 134.36H150.593V136.36H154.273V134.36ZM151.593 135.36V131.68H149.593V135.36H151.593ZM150.593 132.68H154.273V130.68H150.593V132.68ZM153.273 131.68V135.36H155.273V131.68H153.273ZM154.073 159H150.793V161H154.073V159ZM151.793 160V140.2H149.793V160H151.793ZM150.793 141.2H154.073V139.2H150.793V141.2ZM153.073 140.2V160H155.073V140.2H153.073ZM168.025 143.44L167.679 142.502L167.671 142.505L168.025 143.44ZM164.425 145.72L163.795 144.943L163.425 145.244V145.72H164.425ZM164.425 160V161H165.425V160H164.425ZM161.145 160H160.145V161H161.145V160ZM161.145 140.2V139.2H160.145V140.2H161.145ZM164.265 140.2H165.265V139.2H164.265V140.2ZM164.265 142.96H163.265V145.121L164.912 143.722L164.265 142.96ZM168.105 140.48L167.745 139.547L167.737 139.55L168.105 140.48ZM175.665 141.56L174.891 142.193L174.899 142.203L174.907 142.212L175.665 141.56ZM177.145 160V161H178.145V160H177.145ZM173.865 160H172.865V161H173.865V160ZM170.665 141.88C169.76 141.88 168.758 142.104 167.679 142.502L168.371 144.378C169.318 144.029 170.076 143.88 170.665 143.88V141.88ZM167.671 142.505C166.538 142.934 165.24 143.771 163.795 144.943L165.055 146.497C166.436 145.376 167.539 144.693 168.379 144.375L167.671 142.505ZM163.425 145.72V160H165.425V145.72H163.425ZM164.425 159H161.145V161H164.425V159ZM162.145 160V140.2H160.145V160H162.145ZM161.145 141.2H164.265V139.2H161.145V141.2ZM163.265 140.2V142.96H165.265V140.2H163.265ZM164.912 143.722C166.28 142.561 167.465 141.808 168.473 141.41L167.737 139.55C166.451 140.058 165.077 140.959 163.618 142.198L164.912 143.722ZM168.465 141.413C169.544 140.996 170.542 140.8 171.465 140.8V138.8C170.255 138.8 169.013 139.057 167.745 139.547L168.465 141.413ZM171.465 140.8C173.076 140.8 174.162 141.302 174.891 142.193L176.439 140.927C175.248 139.472 173.534 138.8 171.465 138.8V140.8ZM174.907 142.212C175.684 143.115 176.145 144.489 176.145 146.48H178.145C178.145 144.205 177.619 142.298 176.423 140.908L174.907 142.212ZM176.145 146.48V160H178.145V146.48H176.145ZM177.145 159H173.865V161H177.145V159ZM174.865 160V146.96H172.865V160H174.865ZM174.865 146.96C174.865 145.497 174.583 144.215 173.852 143.283C173.085 142.305 171.959 141.88 170.665 141.88V143.88C171.504 143.88 171.979 144.135 172.278 144.517C172.614 144.945 172.865 145.703 172.865 146.96H174.865ZM197.437 167.16L196.845 166.354L196.839 166.358L197.437 167.16ZM186.557 168.36L186.314 169.33L186.318 169.331L186.557 168.36ZM182.317 166.56L181.4 166.159L181.053 166.953L181.79 167.41L182.317 166.56ZM183.437 164L183.925 163.127L182.963 162.588L182.52 163.599L183.437 164ZM187.277 165.56L187.524 164.591L187.517 164.589L187.509 164.587L187.277 165.56ZM195.117 165.16L194.605 164.3L195.117 165.16ZM195.877 161.12L196.517 160.352L196.504 160.341L196.491 160.331L195.877 161.12ZM185.197 159.32L185.927 158.637L185.927 158.637L185.197 159.32ZM184.517 154.56L185.418 154.993L185.421 154.986L185.425 154.979L184.517 154.56ZM185.877 152.52L186.627 153.181L187.42 152.28L186.391 151.663L185.877 152.52ZM183.637 150.24L182.767 150.734L182.773 150.744L183.637 150.24ZM183.757 142.88L182.921 142.33L182.916 142.338L182.911 142.346L183.757 142.88ZM186.397 140.6L186.817 141.507L186.826 141.503L186.835 141.499L186.397 140.6ZM193.317 140.2L192.991 141.145L193.149 141.2H193.317V140.2ZM200.437 140.2H201.437V139.2H200.437V140.2ZM200.437 143.12L200.299 144.11L201.437 144.268V143.12H200.437ZM196.117 142.52L196.254 141.53L192.877 141.06L195.466 143.279L196.117 142.52ZM197.477 144.32L196.576 144.754L196.579 144.761L196.582 144.767L197.477 144.32ZM196.997 150.52L196.168 149.96L196.163 149.968L196.158 149.976L196.997 150.52ZM194.397 152.8L194.817 153.707L194.826 153.703L194.835 153.699L194.397 152.8ZM189.077 153.52L188.912 154.506L188.953 154.513L188.994 154.517L189.077 153.52ZM188.117 153.36L188.281 152.374L187.742 152.284L187.376 152.688L188.117 153.36ZM198.197 158.76L198.812 157.972L198.812 157.972L198.197 158.76ZM193.517 149.72L194.157 150.488L194.157 150.488L193.517 149.72ZM193.517 143.68L192.862 144.436L192.869 144.442L192.876 144.448L193.517 143.68ZM187.277 143.68L187.917 144.448L187.924 144.442L187.931 144.436L187.277 143.68ZM187.277 149.72L186.636 150.488L186.636 150.488L187.277 149.72ZM198.837 162.48C198.837 164.101 198.194 165.364 196.845 166.354L198.028 167.966C199.879 166.609 200.837 164.752 200.837 162.48H198.837ZM196.839 166.358C195.497 167.359 193.561 167.92 190.917 167.92V169.92C193.819 169.92 196.23 169.307 198.034 167.962L196.839 166.358ZM190.917 167.92C189.62 167.92 188.247 167.745 186.795 167.389L186.318 169.331C187.906 169.721 189.44 169.92 190.917 169.92V167.92ZM186.799 167.39C185.408 167.042 184.091 166.483 182.844 165.71L181.79 167.41C183.209 168.29 184.718 168.931 186.314 169.33L186.799 167.39ZM183.233 166.961L184.353 164.401L182.52 163.599L181.4 166.159L183.233 166.961ZM182.948 164.873C184.345 165.655 185.711 166.214 187.044 166.533L187.509 164.587C186.389 164.319 185.195 163.838 183.925 163.127L182.948 164.873ZM187.029 166.529C188.355 166.867 189.652 167.04 190.917 167.04V165.04C189.835 165.04 188.705 164.893 187.524 164.591L187.029 166.529ZM190.917 167.04C192.815 167.04 194.421 166.737 195.628 166.02L194.605 164.3C193.838 164.757 192.645 165.04 190.917 165.04V167.04ZM195.628 166.02C196.859 165.288 197.597 164.203 197.597 162.8H195.597C195.597 163.371 195.348 163.859 194.605 164.3L195.628 166.02ZM197.597 162.8C197.597 161.834 197.261 160.972 196.517 160.352L195.236 161.888C195.452 162.068 195.597 162.326 195.597 162.8H197.597ZM196.491 160.331C195.745 159.751 194.696 159.56 193.557 159.56V161.56C194.551 161.56 195.048 161.742 195.263 161.909L196.491 160.331ZM193.557 159.56H188.957V161.56H193.557V159.56ZM188.957 159.56C187.354 159.56 186.43 159.175 185.927 158.637L184.466 160.003C185.509 161.118 187.092 161.56 188.957 161.56V159.56ZM185.927 158.637C185.299 157.966 185.037 157.295 185.037 156.6H183.037C183.037 157.878 183.547 159.021 184.466 160.003L185.927 158.637ZM185.037 156.6C185.037 156.066 185.159 155.534 185.418 154.993L183.615 154.127C183.235 154.92 183.037 155.747 183.037 156.6H185.037ZM185.425 154.979C185.698 154.386 186.094 153.786 186.627 153.181L185.126 151.859C184.486 152.587 183.975 153.347 183.609 154.141L185.425 154.979ZM186.391 151.663C185.605 151.191 184.977 150.554 184.5 149.736L182.773 150.744C183.416 151.846 184.281 152.729 185.362 153.377L186.391 151.663ZM184.506 149.746C184.049 148.94 183.797 147.932 183.797 146.68H181.797C181.797 148.201 182.104 149.566 182.767 150.734L184.506 149.746ZM183.797 146.68C183.797 145.299 184.087 144.23 184.602 143.414L182.911 142.346C182.146 143.557 181.797 145.021 181.797 146.68H183.797ZM184.592 143.43C185.157 142.571 185.894 141.935 186.817 141.507L185.976 139.693C184.713 140.278 183.689 141.163 182.921 142.33L184.592 143.43ZM186.835 141.499C187.776 141.04 188.85 140.8 190.077 140.8V138.8C188.583 138.8 187.203 139.094 185.958 139.701L186.835 141.499ZM190.077 140.8H190.757V138.8H190.077V140.8ZM190.757 140.8C191.594 140.8 192.336 140.92 192.991 141.145L193.643 139.255C192.751 138.947 191.785 138.8 190.757 138.8V140.8ZM193.317 141.2H200.437V139.2H193.317V141.2ZM199.437 140.2V143.12H201.437V140.2H199.437ZM200.574 142.13L196.254 141.53L195.979 143.51L200.299 144.11L200.574 142.13ZM195.466 143.279C195.912 143.662 196.284 144.148 196.576 144.754L198.378 143.886C197.976 143.052 197.441 142.338 196.767 141.761L195.466 143.279ZM196.582 144.767C196.841 145.286 196.997 145.976 196.997 146.88H198.997C198.997 145.757 198.805 144.741 198.371 143.873L196.582 144.767ZM196.997 146.88C196.997 148.163 196.701 149.171 196.168 149.96L197.825 151.08C198.625 149.896 198.997 148.477 198.997 146.88H196.997ZM196.158 149.976C195.62 150.805 194.894 151.445 193.958 151.901L194.835 153.699C196.086 153.089 197.093 152.209 197.836 151.064L196.158 149.976ZM193.976 151.893C193.028 152.332 191.96 152.56 190.757 152.56V154.56C192.22 154.56 193.578 154.281 194.817 153.707L193.976 151.893ZM190.757 152.56H190.077V154.56H190.757V152.56ZM190.077 152.56C189.755 152.56 189.45 152.548 189.16 152.523L188.994 154.517C189.343 154.546 189.704 154.56 190.077 154.56V152.56ZM189.241 152.534C189.134 152.516 189.108 152.511 189.001 152.494C188.894 152.476 188.868 152.471 188.761 152.454C188.734 152.449 188.668 152.438 188.641 152.434C188.598 152.427 188.564 152.421 188.521 152.414C188.489 152.408 188.433 152.399 188.401 152.394C188.38 152.39 188.302 152.377 188.281 152.374L187.952 154.346C187.979 154.351 187.955 154.347 187.982 154.351C188.009 154.356 187.985 154.352 188.012 154.356C188.039 154.361 188.015 154.357 188.042 154.361C188.069 154.366 188.045 154.362 188.072 154.366C188.099 154.371 188.075 154.367 188.102 154.371C188.129 154.376 188.105 154.372 188.132 154.376C188.159 154.381 188.135 154.377 188.162 154.381C188.189 154.386 188.165 154.382 188.192 154.386C188.299 154.404 188.326 154.409 188.432 154.426C188.539 154.444 188.806 154.489 188.912 154.506L189.241 152.534ZM187.376 152.688C186.501 153.653 185.957 154.722 185.957 155.88H187.957C187.957 155.385 188.185 154.773 188.858 154.032L187.376 152.688ZM185.957 155.88C185.957 156.676 186.254 157.407 186.935 157.894C187.555 158.336 188.361 158.48 189.197 158.48V156.48C188.539 156.48 188.225 156.357 188.098 156.266C188.033 156.22 187.957 156.15 187.957 155.88H185.957ZM189.197 158.48H193.677V156.48H189.197V158.48ZM193.677 158.48C195.458 158.48 196.72 158.876 197.581 159.548L198.812 157.972C197.486 156.937 195.735 156.48 193.677 156.48V158.48ZM197.581 159.548C198.388 160.178 198.837 161.101 198.837 162.48H200.837C200.837 160.605 200.192 159.049 198.812 157.972L197.581 159.548ZM190.757 151.72C192.031 151.72 193.177 151.304 194.157 150.488L192.876 148.952C192.256 149.469 191.562 149.72 190.757 149.72V151.72ZM194.157 150.488C195.25 149.577 195.717 148.239 195.717 146.68H193.717C193.717 147.841 193.383 148.53 192.876 148.952L194.157 150.488ZM195.717 146.68C195.717 145.14 195.246 143.819 194.157 142.912L192.876 144.448C193.387 144.874 193.717 145.554 193.717 146.68H195.717ZM194.171 142.924C193.193 142.077 192.042 141.64 190.757 141.64V143.64C191.551 143.64 192.24 143.897 192.862 144.436L194.171 142.924ZM190.757 141.64H190.077V143.64H190.757V141.64ZM190.077 141.64C188.771 141.64 187.605 142.072 186.622 142.924L187.931 144.436C188.548 143.901 189.248 143.64 190.077 143.64V141.64ZM186.636 142.912C185.547 143.819 185.077 145.14 185.077 146.68H187.077C187.077 145.554 187.406 144.874 187.917 144.448L186.636 142.912ZM185.077 146.68C185.077 148.239 185.543 149.577 186.636 150.488L187.917 148.952C187.41 148.53 187.077 147.841 187.077 146.68H185.077ZM186.636 150.488C187.621 151.309 188.782 151.72 190.077 151.72V149.72C189.238 149.72 188.532 149.465 187.917 148.952L186.636 150.488ZM190.077 151.72H190.757V149.72H190.077V151.72ZM222.489 156.48L223.085 157.283L223.093 157.277L223.101 157.271L222.489 156.48ZM223.289 150.52L222.776 149.661L221.959 150.149L222.406 150.99L223.289 150.52ZM225.969 148.92L226.833 148.417L226.325 147.543L225.456 148.061L225.969 148.92ZM232.409 160V161H234.147L233.273 159.497L232.409 160ZM228.729 160L227.853 160.483L228.138 161H228.729V160ZM226.169 155.36L227.044 154.877L225.614 152.284L225.18 155.213L226.169 155.36ZM224.009 158.96L224.625 159.748L224.009 158.96ZM213.609 158.48L212.902 159.187L212.909 159.194L213.609 158.48ZM212.969 149.08L212.165 148.486L212.162 148.489L212.969 149.08ZM217.009 145.52L217.549 146.362L218.691 145.629L217.653 144.755L217.009 145.52ZM225.129 134.08L224.454 134.819L224.463 134.827L225.129 134.08ZM225.529 143.16L226.28 143.82L226.288 143.811L225.529 143.16ZM221.809 146.2L222.327 147.055L222.332 147.052L221.809 146.2ZM218.969 147.92L219.483 148.777L219.487 148.775L218.969 147.92ZM215.889 150.52L216.704 151.099L216.709 151.093L216.713 151.087L215.889 150.52ZM216.249 156.44L215.621 157.218L215.629 157.225L215.637 157.231L216.249 156.44ZM217.129 141.2L216.224 141.626L216.229 141.636L217.129 141.2ZM219.369 144.08L218.671 144.796L219.23 145.342L219.895 144.93L219.369 144.08ZM220.209 143.56L220.735 144.41L220.746 144.404L220.209 143.56ZM222.809 141.44L223.574 142.083L223.581 142.076L223.587 142.068L222.809 141.44ZM222.649 136.2L221.99 136.953L222.007 136.967L222.024 136.981L222.649 136.2ZM217.529 136.2L216.915 135.411L216.908 135.416L216.9 135.422L217.529 136.2ZM219.329 158.4C220.77 158.4 222.047 158.053 223.085 157.283L221.893 155.677C221.277 156.134 220.447 156.4 219.329 156.4V158.4ZM223.101 157.271C224.126 156.477 224.763 155.417 224.993 154.137L223.024 153.783C222.881 154.583 222.505 155.203 221.877 155.689L223.101 157.271ZM224.993 154.137C225.231 152.811 224.908 151.434 224.172 150.05L222.406 150.99C223.003 152.113 223.16 153.029 223.024 153.783L224.993 154.137ZM223.801 151.379L226.481 149.779L225.456 148.061L222.776 149.661L223.801 151.379ZM225.104 149.423L231.544 160.503L233.273 159.497L226.833 148.417L225.104 149.423ZM232.409 159H228.729V161H232.409V159ZM229.604 159.517L227.044 154.877L225.293 155.843L227.853 160.483L229.604 159.517ZM225.18 155.213C225.007 156.381 224.433 157.358 223.392 158.172L224.625 159.748C226.038 158.642 226.904 157.219 227.158 155.507L225.18 155.213ZM223.392 158.172C222.388 158.958 221 159.4 219.129 159.4V161.4C221.311 161.4 223.176 160.882 224.625 159.748L223.392 158.172ZM219.129 159.4C216.936 159.4 215.377 158.813 214.309 157.766L212.909 159.194C214.453 160.707 216.575 161.4 219.129 161.4V159.4ZM214.316 157.773C213.221 156.678 212.649 155.251 212.649 153.4H210.649C210.649 155.709 211.383 157.669 212.902 159.187L214.316 157.773ZM212.649 153.4C212.649 151.904 213.037 150.678 213.775 149.671L212.162 148.489C211.141 149.882 210.649 151.536 210.649 153.4H212.649ZM213.773 149.674C214.585 148.576 215.827 147.466 217.549 146.362L216.469 144.678C214.617 145.867 213.166 147.131 212.165 148.486L213.773 149.674ZM217.653 144.755C215.262 142.741 214.209 140.704 214.209 138.64H212.209C212.209 141.482 213.689 144.032 216.365 146.285L217.653 144.755ZM214.209 138.64C214.209 137.134 214.711 135.912 215.716 134.907L214.302 133.493C212.906 134.888 212.209 136.626 212.209 138.64H214.209ZM215.716 134.907C216.674 133.949 218.106 133.4 220.169 133.4V131.4C217.752 131.4 215.743 132.051 214.302 133.493L215.716 134.907ZM220.169 133.4C222.065 133.4 223.455 133.906 224.454 134.818L225.803 133.342C224.349 132.014 222.433 131.4 220.169 131.4V133.4ZM224.463 134.827C225.429 135.687 225.969 136.947 225.969 138.76H227.969C227.969 136.52 227.282 134.66 225.794 133.333L224.463 134.827ZM225.969 138.76C225.969 140.391 225.541 141.609 224.769 142.509L226.288 143.811C227.437 142.471 227.969 140.755 227.969 138.76H225.969ZM224.777 142.5C223.896 143.504 222.739 144.455 221.285 145.348L222.332 147.052C223.919 146.078 225.241 145.003 226.28 143.82L224.777 142.5ZM221.291 145.345L218.451 147.065L219.487 148.775L222.327 147.055L221.291 145.345ZM218.454 147.063C216.935 147.974 215.769 148.929 215.065 149.953L216.713 151.087C217.182 150.404 218.069 149.626 219.483 148.777L218.454 147.063ZM215.073 149.941C214.363 150.942 214.009 152.078 214.009 153.32H216.009C216.009 152.482 216.241 151.752 216.704 151.099L215.073 149.941ZM214.009 153.32C214.009 154.929 214.487 156.304 215.621 157.218L216.877 155.662C216.358 155.243 216.009 154.538 216.009 153.32H214.009ZM215.637 157.231C216.668 158.029 217.92 158.4 219.329 158.4V156.4C218.284 156.4 217.483 156.131 216.861 155.649L215.637 157.231ZM215.489 138.72C215.489 139.655 215.755 140.629 216.224 141.626L218.034 140.774C217.649 139.957 217.489 139.278 217.489 138.72H215.489ZM216.229 141.636C216.725 142.66 217.56 143.713 218.671 144.796L220.067 143.364C219.044 142.367 218.385 141.5 218.029 140.764L216.229 141.636ZM219.895 144.93L220.735 144.41L219.682 142.71L218.842 143.23L219.895 144.93ZM220.746 144.404C221.96 143.631 222.922 142.86 223.574 142.083L222.043 140.797C221.576 141.353 220.804 141.996 219.672 142.716L220.746 144.404ZM223.587 142.068C224.317 141.164 224.649 140.049 224.649 138.8H222.649C222.649 139.685 222.42 140.329 222.031 140.812L223.587 142.068ZM224.649 138.8C224.649 137.426 224.263 136.211 223.273 135.419L222.024 136.981C222.368 137.256 222.649 137.774 222.649 138.8H224.649ZM223.307 135.447C222.456 134.703 221.396 134.36 220.209 134.36V136.36C220.994 136.36 221.561 136.577 221.99 136.953L223.307 135.447ZM220.209 134.36C218.959 134.36 217.839 134.692 216.915 135.411L218.143 136.989C218.659 136.588 219.325 136.36 220.209 136.36V134.36ZM216.9 135.422C215.913 136.219 215.489 137.383 215.489 138.72H217.489C217.489 137.817 217.758 137.301 218.157 136.978L216.9 135.422ZM254.743 156.2L255.364 156.983L255.371 156.978L255.378 156.972L254.743 156.2ZM255.143 150L254.349 150.608L254.355 150.617L254.362 150.625L255.143 150ZM252.103 148.16L252.392 147.203L252.387 147.201L252.103 148.16ZM248.863 147.2L248.573 148.157L248.578 148.159L248.863 147.2ZM244.383 144.44L243.589 145.048L243.595 145.056L244.383 144.44ZM243.743 136.08L242.848 135.633L242.844 135.641L242.84 135.65L243.743 136.08ZM246.383 133.4L245.905 132.521L245.897 132.526L246.383 133.4ZM254.903 132.84L254.679 133.815L254.689 133.817L254.699 133.819L254.903 132.84ZM258.783 134.16L259.719 134.51L260.042 133.646L259.207 133.255L258.783 134.16ZM257.663 137.16L257.262 138.076L258.23 138.5L258.599 137.51L257.663 137.16ZM254.183 135.96L253.928 136.927L253.943 136.931L253.958 136.934L254.183 135.96ZM247.703 136.52L248.298 137.323L248.303 137.32L247.703 136.52ZM247.303 142.24L246.513 142.854L246.519 142.861L246.525 142.868L247.303 142.24ZM250.303 143.96L250.002 144.914L250.01 144.916L250.018 144.919L250.303 143.96ZM253.543 144.92L253.258 145.879L253.259 145.879L253.543 144.92ZM257.543 158.28L258.256 158.98L258.263 158.974L257.543 158.28ZM246.863 159.96L246.638 160.934L246.648 160.937L246.659 160.939L246.863 159.96ZM242.543 158.48L241.603 158.137L241.284 159.013L242.135 159.393L242.543 158.48ZM243.623 155.52L244.035 154.609L243.053 154.164L242.683 155.177L243.623 155.52ZM247.423 156.88L247.191 157.853L247.196 157.854L247.423 156.88ZM250.863 158.28C252.67 158.28 254.217 157.895 255.364 156.983L254.121 155.417C253.455 155.945 252.415 156.28 250.863 156.28V158.28ZM255.378 156.972C256.563 155.996 257.103 154.605 257.103 152.96H255.103C255.103 154.142 254.736 154.91 254.107 155.428L255.378 156.972ZM257.103 152.96C257.103 151.594 256.725 150.378 255.923 149.375L254.362 150.625C254.84 151.222 255.103 151.979 255.103 152.96H257.103ZM255.936 149.392C255.148 148.364 253.916 147.663 252.392 147.203L251.813 149.117C253.115 149.51 253.91 150.036 254.349 150.608L255.936 149.392ZM252.387 147.201L249.147 146.241L248.578 148.159L251.818 149.119L252.387 147.201ZM249.152 146.243C247.253 145.668 245.965 144.839 245.17 143.824L243.595 145.056C244.72 146.494 246.418 147.505 248.573 148.157L249.152 146.243ZM245.176 143.832C244.369 142.778 243.943 141.468 243.943 139.84H241.943C241.943 141.839 242.476 143.595 243.589 145.048L245.176 143.832ZM243.943 139.84C243.943 138.584 244.183 137.481 244.645 136.51L242.84 135.65C242.235 136.919 241.943 138.322 241.943 139.84H243.943ZM244.637 136.527C245.098 135.605 245.827 134.853 246.868 134.274L245.897 132.526C244.538 133.281 243.507 134.315 242.848 135.633L244.637 136.527ZM246.86 134.279C247.892 133.718 249.311 133.4 251.183 133.4V131.4C249.107 131.4 247.326 131.749 245.905 132.521L246.86 134.279ZM251.183 133.4C252.301 133.4 253.466 133.537 254.679 133.815L255.126 131.865C253.779 131.557 252.464 131.4 251.183 131.4V133.4ZM254.699 133.819C255.895 134.068 257.114 134.482 258.358 135.065L259.207 133.255C257.837 132.612 256.47 132.145 255.106 131.861L254.699 133.819ZM257.846 133.81L256.726 136.81L258.599 137.51L259.719 134.51L257.846 133.81ZM258.063 136.244C256.743 135.666 255.523 135.243 254.407 134.986L253.958 136.934C254.922 137.157 256.022 137.534 257.262 138.076L258.063 136.244ZM254.437 134.993C253.351 134.707 252.291 134.56 251.263 134.56V136.56C252.1 136.56 252.988 136.68 253.928 136.927L254.437 134.993ZM251.263 134.56C249.615 134.56 248.189 134.905 247.103 135.72L248.303 137.32C248.923 136.855 249.87 136.56 251.263 136.56V134.56ZM247.107 135.717C245.934 136.587 245.463 137.978 245.463 139.6H247.463C247.463 138.342 247.818 137.68 248.298 137.323L247.107 135.717ZM245.463 139.6C245.463 140.83 245.798 141.934 246.513 142.854L248.092 141.626C247.687 141.106 247.463 140.45 247.463 139.6H245.463ZM246.525 142.868C247.267 143.788 248.491 144.438 250.002 144.914L250.603 143.006C249.234 142.575 248.458 142.079 248.08 141.612L246.525 142.868ZM250.018 144.919L253.258 145.879L253.827 143.961L250.587 143.001L250.018 144.919ZM253.259 145.879C255.143 146.437 256.463 147.288 257.315 148.377C258.164 149.46 258.623 150.869 258.623 152.68H260.623C260.623 150.518 260.068 148.647 258.89 147.143C257.716 145.645 255.995 144.603 253.826 143.961L253.259 145.879ZM258.623 152.68C258.623 154.756 258.003 156.36 256.822 157.586L258.263 158.974C259.856 157.32 260.623 155.191 260.623 152.68H258.623ZM256.829 157.58C255.711 158.718 253.805 159.4 250.863 159.4V161.4C254.054 161.4 256.6 160.668 258.256 158.98L256.829 157.58ZM250.863 159.4C249.687 159.4 248.422 159.262 247.066 158.981L246.659 160.939C248.13 161.244 249.532 161.4 250.863 161.4V159.4ZM247.087 158.986C245.772 158.682 244.393 158.211 242.95 157.567L242.135 159.393C243.678 160.082 245.18 160.598 246.638 160.934L247.087 158.986ZM243.482 158.823L244.562 155.863L242.683 155.177L241.603 158.137L243.482 158.823ZM243.21 156.431C244.663 157.089 245.992 157.567 247.191 157.853L247.654 155.907C246.613 155.659 245.409 155.231 244.035 154.609L243.21 156.431ZM247.196 157.854C248.415 158.137 249.638 158.28 250.863 158.28V156.28C249.794 156.28 248.723 156.156 247.649 155.906L247.196 157.854ZM278.297 157.96L277.554 157.29L277.548 157.297L278.297 157.96ZM265.897 157.96L266.64 157.29L266.64 157.29L265.897 157.96ZM265.857 142.28L265.109 141.616L265.108 141.617L265.857 142.28ZM278.297 142.28L277.543 142.937L277.548 142.943L277.554 142.95L278.297 142.28ZM275.817 144.44L275.029 145.055L275.036 145.065L275.817 144.44ZM268.377 144.44L267.598 143.813L267.596 143.815L268.377 144.44ZM268.377 155.84L267.596 156.465L267.601 156.471L267.606 156.476L268.377 155.84ZM275.817 155.84L275.036 155.215L275.036 155.215L275.817 155.84ZM279.497 148.88V151.28H281.497V148.88H279.497ZM279.497 151.28C279.497 153.933 278.812 155.896 277.554 157.29L279.04 158.63C280.715 156.771 281.497 154.28 281.497 151.28H279.497ZM277.548 157.297C276.342 158.66 274.578 159.4 272.097 159.4V161.4C275.002 161.4 277.372 160.514 279.046 158.623L277.548 157.297ZM272.097 159.4C269.647 159.4 267.876 158.662 266.64 157.29L265.154 158.63C266.851 160.512 269.214 161.4 272.097 161.4V159.4ZM266.64 157.29C265.382 155.896 264.697 153.933 264.697 151.28H262.697C262.697 154.28 263.478 156.771 265.154 158.63L266.64 157.29ZM264.697 151.28V148.88H262.697V151.28H264.697ZM264.697 148.88C264.697 146.281 265.368 144.341 266.606 142.943L265.108 141.617C263.465 143.473 262.697 145.932 262.697 148.88H264.697ZM266.605 142.944C267.841 141.55 269.622 140.8 272.097 140.8V138.8C269.185 138.8 266.806 139.703 265.109 141.616L266.605 142.944ZM272.097 140.8C274.573 140.8 276.335 141.55 277.543 142.937L279.051 141.623C277.378 139.703 275.008 138.8 272.097 138.8V140.8ZM277.554 142.95C278.815 144.348 279.497 146.286 279.497 148.88H281.497C281.497 145.928 280.712 143.466 279.04 141.61L277.554 142.95ZM278.097 148.88C278.097 146.846 277.639 145.117 276.598 143.815L275.036 145.065C275.702 145.897 276.097 147.127 276.097 148.88H278.097ZM276.605 143.825C275.528 142.445 273.972 141.8 272.097 141.8V143.8C273.475 143.8 274.399 144.248 275.029 145.055L276.605 143.825ZM272.097 141.8C270.242 141.8 268.696 142.449 267.598 143.813L269.156 145.067C269.818 144.244 270.752 143.8 272.097 143.8V141.8ZM267.596 143.815C266.555 145.117 266.097 146.846 266.097 148.88H268.097C268.097 147.127 268.492 145.897 269.158 145.065L267.596 143.815ZM266.097 148.88V151.28H268.097V148.88H266.097ZM266.097 151.28C266.097 153.382 266.55 155.157 267.596 156.465L269.158 155.215C268.497 154.39 268.097 153.124 268.097 151.28H266.097ZM267.606 156.476C268.706 157.811 270.251 158.44 272.097 158.44V156.44C270.743 156.44 269.807 156.002 269.148 155.204L267.606 156.476ZM272.097 158.44C273.963 158.44 275.518 157.815 276.598 156.465L275.036 155.215C274.409 155.999 273.484 156.44 272.097 156.44V158.44ZM276.598 156.465C277.644 155.157 278.097 153.382 278.097 151.28H276.097C276.097 153.124 275.696 154.39 275.036 155.215L276.598 156.465ZM278.097 151.28V148.88H276.097V151.28H278.097ZM286.418 130.4V129.4H285.418V130.4H286.418ZM289.698 130.4H290.698V129.4H289.698V130.4ZM290.018 156.68L289.149 157.176L289.171 157.214L289.195 157.249L290.018 156.68ZM292.058 157.2H293.058V156.2H292.058V157.2ZM292.058 160.2V161.2H293.058V160.2H292.058ZM287.458 158.8L286.655 159.396L286.655 159.396L287.458 158.8ZM287.418 155.2V130.4H285.418V155.2H287.418ZM286.418 131.4H289.698V129.4H286.418V131.4ZM288.698 130.4V155.04H290.698V130.4H288.698ZM288.698 155.04C288.698 155.83 288.81 156.582 289.149 157.176L290.886 156.184C290.799 156.032 290.698 155.69 290.698 155.04H288.698ZM289.195 157.249C289.717 158.003 290.61 158.2 291.418 158.2V156.2C291.146 156.2 290.983 156.165 290.896 156.133C290.819 156.104 290.823 156.087 290.84 156.111L289.195 157.249ZM291.418 158.2H292.058V156.2H291.418V158.2ZM291.058 157.2V160.2H293.058V157.2H291.058ZM292.058 159.2H291.138V161.2H292.058V159.2ZM291.138 159.2C289.526 159.2 288.683 158.773 288.26 158.204L286.655 159.396C287.618 160.694 289.229 161.2 291.138 161.2V159.2ZM288.26 158.204C287.725 157.483 287.418 156.509 287.418 155.2H285.418C285.418 156.825 285.803 158.25 286.655 159.396L288.26 158.204ZM309.204 160H308.204V161H309.204V160ZM309.204 157.2H310.204V155.012L308.55 156.444L309.204 157.2ZM305.484 159.72L305.867 160.644L305.877 160.64L305.886 160.636L305.484 159.72ZM298.164 158.68L297.382 159.303L297.389 159.311L298.164 158.68ZM296.764 140.2V139.2H295.764V140.2H296.764ZM300.044 140.2H301.044V139.2H300.044V140.2ZM300.764 156.36L299.953 156.944L299.966 156.963L299.98 156.981L300.764 156.36ZM305.524 156.76L305.896 157.688L305.896 157.688L305.524 156.76ZM309.004 154.52L309.633 155.298L310.004 154.998V154.52H309.004ZM309.004 140.2V139.2H308.004V140.2H309.004ZM312.284 140.2H313.284V139.2H312.284V140.2ZM312.284 160V161H313.284V160H312.284ZM310.204 160V157.2H308.204V160H310.204ZM308.55 156.444C307.203 157.609 306.049 158.38 305.082 158.804L305.886 160.636C307.107 160.1 308.432 159.191 309.859 157.956L308.55 156.444ZM305.101 158.796C304.119 159.203 303.156 159.4 302.204 159.4V161.4C303.44 161.4 304.663 161.143 305.867 160.644L305.101 158.796ZM302.204 159.4C300.682 159.4 299.647 158.917 298.94 158.049L297.389 159.311C298.549 160.736 300.207 161.4 302.204 161.4V159.4ZM298.947 158.057C298.202 157.121 297.764 155.73 297.764 153.76H295.764C295.764 156.003 296.26 157.893 297.382 159.303L298.947 158.057ZM297.764 153.76V140.2H295.764V153.76H297.764ZM296.764 141.2H300.044V139.2H296.764V141.2ZM299.044 140.2V153.28H301.044V140.2H299.044ZM299.044 153.28C299.044 154.746 299.292 156.026 299.953 156.944L301.576 155.776C301.277 155.361 301.044 154.587 301.044 153.28H299.044ZM299.98 156.981C300.717 157.911 301.783 158.32 303.004 158.32V156.32C302.252 156.32 301.825 156.089 301.548 155.739L299.98 156.981ZM303.004 158.32C303.914 158.32 304.883 158.094 305.896 157.688L305.153 155.832C304.299 156.173 303.588 156.32 303.004 156.32V158.32ZM305.896 157.688C306.967 157.26 308.219 156.44 309.633 155.298L308.376 153.742C307.017 154.84 305.948 155.513 305.153 155.832L305.896 157.688ZM310.004 154.52V140.2H308.004V154.52H310.004ZM309.004 141.2H312.284V139.2H309.004V141.2ZM311.284 140.2V160H313.284V140.2H311.284ZM312.284 159H309.204V161H312.284V159ZM330.228 159.28L330.675 160.174L331.479 159.772L331.165 158.93L330.228 159.28ZM322.068 159.52L321.477 160.326L321.483 160.331L321.489 160.336L322.068 159.52ZM320.348 157.16L319.397 157.469L319.401 157.48L319.405 157.491L320.348 157.16ZM319.868 143.08H320.868V142.08H319.868V143.08ZM316.428 143.08H315.428V144.08H316.428V143.08ZM316.428 140.2V139.2H315.428V140.2H316.428ZM319.868 140.2V141.2H320.868V140.2H319.868ZM319.868 134.68V133.68H318.868V134.68H319.868ZM323.148 134.68H324.148V133.68H323.148V134.68ZM323.148 140.2H322.148V141.2H323.148V140.2ZM329.628 140.2H330.628V139.2H329.628V140.2ZM329.628 143.08V144.08H330.628V143.08H329.628ZM323.148 143.08V142.08H322.148V143.08H323.148ZM323.828 156.64L323.066 157.288L323.084 157.308L323.102 157.328L323.828 156.64ZM327.508 157.24L327.714 158.219L327.732 158.215L327.751 158.21L327.508 157.24ZM329.228 156.6L330.165 156.25L329.783 155.226L328.797 155.698L329.228 156.6ZM329.781 158.386C328.427 159.062 326.994 159.4 325.468 159.4V161.4C327.302 161.4 329.042 160.991 330.675 160.174L329.781 158.386ZM325.468 159.4C324.151 159.4 323.247 159.13 322.647 158.704L321.489 160.336C322.543 161.083 323.905 161.4 325.468 161.4V159.4ZM322.659 158.714C322.031 158.253 321.575 157.636 321.292 156.829L319.405 157.491C319.814 158.657 320.505 159.614 321.477 160.326L322.659 158.714ZM321.299 156.851C321.016 155.979 320.868 154.991 320.868 153.88H318.868C318.868 155.169 319.04 156.368 319.397 157.469L321.299 156.851ZM320.868 153.88V143.08H318.868V153.88H320.868ZM319.868 142.08H316.428V144.08H319.868V142.08ZM317.428 143.08V140.2H315.428V143.08H317.428ZM316.428 141.2H319.868V139.2H316.428V141.2ZM320.868 140.2V134.68H318.868V140.2H320.868ZM319.868 135.68H323.148V133.68H319.868V135.68ZM322.148 134.68V140.2H324.148V134.68H322.148ZM323.148 141.2H329.628V139.2H323.148V141.2ZM328.628 140.2V143.08H330.628V140.2H328.628ZM329.628 142.08H323.148V144.08H329.628V142.08ZM322.148 143.08V153.76H324.148V143.08H322.148ZM322.148 153.76C322.148 155.185 322.367 156.465 323.066 157.288L324.59 155.992C324.383 155.748 324.148 155.108 324.148 153.76H322.148ZM323.102 157.328C323.838 158.105 324.883 158.4 326.028 158.4V156.4C325.2 156.4 324.778 156.189 324.554 155.952L323.102 157.328ZM326.028 158.4C326.583 158.4 327.145 158.338 327.714 158.219L327.302 156.261C326.858 156.355 326.434 156.4 326.028 156.4V158.4ZM327.751 158.21C328.362 158.057 328.999 157.818 329.66 157.502L328.797 155.698C328.23 155.969 327.721 156.156 327.266 156.27L327.751 158.21ZM328.291 156.95L329.291 159.63L331.165 158.93L330.165 156.25L328.291 156.95ZM338.023 135.36V136.36H339.023V135.36H338.023ZM334.343 135.36H333.343V136.36H334.343V135.36ZM334.343 131.68V130.68H333.343V131.68H334.343ZM338.023 131.68H339.023V130.68H338.023V131.68ZM337.823 160V161H338.823V160H337.823ZM334.543 160H333.543V161H334.543V160ZM334.543 140.2V139.2H333.543V140.2H334.543ZM337.823 140.2H338.823V139.2H337.823V140.2ZM338.023 134.36H334.343V136.36H338.023V134.36ZM335.343 135.36V131.68H333.343V135.36H335.343ZM334.343 132.68H338.023V130.68H334.343V132.68ZM337.023 131.68V135.36H339.023V131.68H337.023ZM337.823 159H334.543V161H337.823V159ZM335.543 160V140.2H333.543V160H335.543ZM334.543 141.2H337.823V139.2H334.543V141.2ZM336.823 140.2V160H338.823V140.2H336.823ZM358.375 157.96L357.632 157.29L357.626 157.297L358.375 157.96ZM345.975 157.96L346.718 157.29L346.718 157.29L345.975 157.96ZM345.935 142.28L345.187 141.616L345.186 141.617L345.935 142.28ZM358.375 142.28L357.621 142.937L357.627 142.943L357.632 142.95L358.375 142.28ZM355.895 144.44L355.107 145.055L355.114 145.065L355.895 144.44ZM348.455 144.44L347.676 143.813L347.674 143.815L348.455 144.44ZM348.455 155.84L347.674 156.465L347.679 156.471L347.684 156.476L348.455 155.84ZM355.895 155.84L355.114 155.215L355.114 155.215L355.895 155.84ZM359.575 148.88V151.28H361.575V148.88H359.575ZM359.575 151.28C359.575 153.933 358.89 155.896 357.632 157.29L359.118 158.63C360.794 156.771 361.575 154.28 361.575 151.28H359.575ZM357.626 157.297C356.42 158.66 354.656 159.4 352.175 159.4V161.4C355.081 161.4 357.45 160.514 359.124 158.623L357.626 157.297ZM352.175 159.4C349.725 159.4 347.954 158.662 346.718 157.29L345.232 158.63C346.929 160.512 349.292 161.4 352.175 161.4V159.4ZM346.718 157.29C345.46 155.896 344.775 153.933 344.775 151.28H342.775C342.775 154.28 343.556 156.771 345.232 158.63L346.718 157.29ZM344.775 151.28V148.88H342.775V151.28H344.775ZM344.775 148.88C344.775 146.281 345.446 144.341 346.684 142.943L345.186 141.617C343.544 143.473 342.775 145.932 342.775 148.88H344.775ZM346.683 142.944C347.919 141.55 349.7 140.8 352.175 140.8V138.8C349.264 138.8 346.884 139.703 345.187 141.616L346.683 142.944ZM352.175 140.8C354.651 140.8 356.413 141.55 357.621 142.937L359.129 141.623C357.457 139.703 355.086 138.8 352.175 138.8V140.8ZM357.632 142.95C358.893 144.348 359.575 146.286 359.575 148.88H361.575C361.575 145.928 360.791 143.466 359.118 141.61L357.632 142.95ZM358.175 148.88C358.175 146.846 357.717 145.117 356.676 143.815L355.114 145.065C355.78 145.897 356.175 147.127 356.175 148.88H358.175ZM356.683 143.825C355.606 142.445 354.05 141.8 352.175 141.8V143.8C353.554 143.8 354.477 144.248 355.107 145.055L356.683 143.825ZM352.175 141.8C350.32 141.8 348.774 142.449 347.676 143.813L349.234 145.067C349.896 144.244 350.83 143.8 352.175 143.8V141.8ZM347.674 143.815C346.633 145.117 346.175 146.846 346.175 148.88H348.175C348.175 147.127 348.57 145.897 349.236 145.065L347.674 143.815ZM346.175 148.88V151.28H348.175V148.88H346.175ZM346.175 151.28C346.175 153.382 346.628 155.157 347.674 156.465L349.236 155.215C348.575 154.39 348.175 153.124 348.175 151.28H346.175ZM347.684 156.476C348.785 157.811 350.329 158.44 352.175 158.44V156.44C350.821 156.44 349.885 156.002 349.226 155.204L347.684 156.476ZM352.175 158.44C354.041 158.44 355.596 157.815 356.676 156.465L355.114 155.215C354.488 155.999 353.562 156.44 352.175 156.44V158.44ZM356.676 156.465C357.722 155.157 358.175 153.382 358.175 151.28H356.175C356.175 153.124 355.775 154.39 355.114 155.215L356.676 156.465ZM358.175 151.28V148.88H356.175V151.28H358.175ZM373.416 143.44L373.07 142.502L373.062 142.505L373.416 143.44ZM369.816 145.72L369.186 144.943L368.816 145.244V145.72H369.816ZM369.816 160V161H370.816V160H369.816ZM366.536 160H365.536V161H366.536V160ZM366.536 140.2V139.2H365.536V140.2H366.536ZM369.656 140.2H370.656V139.2H369.656V140.2ZM369.656 142.96H368.656V145.121L370.303 143.722L369.656 142.96ZM373.496 140.48L373.135 139.547L373.128 139.55L373.496 140.48ZM381.056 141.56L380.282 142.193L380.29 142.203L380.298 142.212L381.056 141.56ZM382.536 160V161H383.536V160H382.536ZM379.256 160H378.256V161H379.256V160ZM376.056 141.88C375.151 141.88 374.149 142.104 373.07 142.502L373.761 144.378C374.709 144.029 375.467 143.88 376.056 143.88V141.88ZM373.062 142.505C371.928 142.934 370.631 143.771 369.186 144.943L370.446 146.497C371.827 145.376 372.93 144.693 373.77 144.375L373.062 142.505ZM368.816 145.72V160H370.816V145.72H368.816ZM369.816 159H366.536V161H369.816V159ZM367.536 160V140.2H365.536V160H367.536ZM366.536 141.2H369.656V139.2H366.536V141.2ZM368.656 140.2V142.96H370.656V140.2H368.656ZM370.303 143.722C371.67 142.561 372.856 141.808 373.863 141.41L373.128 139.55C371.842 140.058 370.467 140.959 369.008 142.198L370.303 143.722ZM373.856 141.413C374.935 140.996 375.932 140.8 376.856 140.8V138.8C375.646 138.8 374.403 139.057 373.135 139.547L373.856 141.413ZM376.856 140.8C378.466 140.8 379.552 141.302 380.282 142.193L381.83 140.927C380.639 139.472 378.925 138.8 376.856 138.8V140.8ZM380.298 142.212C381.075 143.115 381.536 144.489 381.536 146.48H383.536C383.536 144.205 383.01 142.298 381.814 140.908L380.298 142.212ZM381.536 146.48V160H383.536V146.48H381.536ZM382.536 159H379.256V161H382.536V159ZM380.256 160V146.96H378.256V160H380.256ZM380.256 146.96C380.256 145.497 379.973 144.215 379.242 143.283C378.475 142.305 377.35 141.88 376.056 141.88V143.88C376.895 143.88 377.369 144.135 377.669 144.517C378.005 144.945 378.256 145.703 378.256 146.96H380.256Z" fill="white" mask="url(#path-3-outside-2_26_2)"/>
</svg>
