<svg width="451" height="75" viewBox="0 0 451 75" fill="none" xmlns="http://www.w3.org/2000/svg">
<path d="M0.321023 0.272725H19.2841L39.3125 49.1364H40.1648L60.1932 0.272725H79.1562V73H64.2415V25.6634H63.6378L44.8168 72.6449H34.6605L15.8395 25.4858H15.2358V73H0.321023V0.272725ZM91.8249 73V0.272725H140.831V12.9503H107.201V30.2798H138.309V42.9574H107.201V60.3224H140.973V73H91.8249ZM178.837 73H153.055V0.272725H179.05C186.365 0.272725 192.662 1.72869 197.942 4.64062C203.221 7.52888 207.281 11.6837 210.122 17.1051C212.987 22.5265 214.419 29.0133 214.419 36.5653C214.419 44.1411 212.987 50.6515 210.122 56.0966C207.281 61.5417 203.197 65.7202 197.871 68.6321C192.568 71.544 186.223 73 178.837 73ZM168.432 59.8253H178.197C182.743 59.8253 186.566 59.0204 189.668 57.4105C192.793 55.777 195.136 53.2557 196.699 49.8466C198.285 46.4138 199.078 41.9867 199.078 36.5653C199.078 31.1913 198.285 26.7997 196.699 23.3906C195.136 19.9815 192.804 17.4721 189.703 15.8622C186.602 14.2524 182.778 13.4474 178.233 13.4474H168.432V59.8253Z" fill="#FA5656"/>
<path d="M219.719 12.9503V0.272725H279.449V12.9503H257.184V73H241.985V12.9503H219.719ZM305.95 74.0653C300.339 74.0653 295.509 72.929 291.461 70.6562C287.436 68.3598 284.335 65.1165 282.157 60.9261C279.979 56.7121 278.89 51.7287 278.89 45.9759C278.89 40.3651 279.979 35.4408 282.157 31.2031C284.335 26.9654 287.401 23.6629 291.354 21.2955C295.332 18.928 299.996 17.7443 305.346 17.7443C308.944 17.7443 312.294 18.3243 315.396 19.4844C318.521 20.6207 321.243 22.3371 323.563 24.6335C325.907 26.9299 327.73 29.8182 329.032 33.2983C330.334 36.7547 330.985 40.803 330.985 45.4432V49.598H284.927V40.223H316.745C316.745 38.045 316.272 36.1155 315.325 34.4347C314.378 32.7538 313.064 31.4399 311.383 30.4929C309.726 29.5223 307.796 29.0369 305.594 29.0369C303.298 29.0369 301.262 29.5696 299.487 30.6349C297.735 31.6766 296.362 33.0852 295.367 34.8608C294.373 36.6127 293.864 38.5658 293.84 40.7202V49.6335C293.84 52.3324 294.337 54.6643 295.332 56.6293C296.35 58.5942 297.782 60.1094 299.629 61.1747C301.475 62.2401 303.665 62.7727 306.198 62.7727C307.879 62.7727 309.418 62.536 310.815 62.0625C312.211 61.589 313.407 60.8788 314.401 59.9318C315.396 58.9848 316.153 57.8248 316.674 56.4517L330.665 57.375C329.955 60.7367 328.499 63.6723 326.298 66.1818C324.12 68.6676 321.302 70.6089 317.846 72.0057C314.413 73.3788 310.448 74.0653 305.95 74.0653ZM365.502 74.0653C359.915 74.0653 355.109 72.8816 351.085 70.5142C347.084 68.1231 344.006 64.8087 341.852 60.571C339.721 56.3333 338.656 51.4564 338.656 45.9403C338.656 40.3532 339.733 35.4527 341.887 31.2386C344.065 27.0009 347.155 23.6984 351.156 21.331C355.156 18.9399 359.915 17.7443 365.431 17.7443C370.19 17.7443 374.356 18.6084 377.931 20.3366C381.506 22.0649 384.335 24.4915 386.418 27.6165C388.502 30.7415 389.65 34.411 389.863 38.625H375.587C375.185 35.9025 374.12 33.7126 372.391 32.0554C370.687 30.3745 368.45 29.5341 365.68 29.5341C363.336 29.5341 361.288 30.1733 359.536 31.4517C357.808 32.7064 356.459 34.5412 355.488 36.956C354.517 39.3707 354.032 42.2945 354.032 45.7273C354.032 49.2074 354.505 52.1667 355.452 54.6051C356.423 57.0436 357.784 58.902 359.536 60.1804C361.288 61.4588 363.336 62.098 365.68 62.098C367.408 62.098 368.959 61.7429 370.332 61.0327C371.728 60.3224 372.877 59.2926 373.776 57.9432C374.7 56.5701 375.303 54.9247 375.587 53.0071H389.863C389.626 57.1738 388.49 60.8433 386.454 64.0156C384.442 67.1643 381.66 69.6264 378.109 71.402C374.558 73.1776 370.355 74.0653 365.502 74.0653ZM414.676 41.4659V73H399.549V0.272725H414.25V28.0781H414.89C416.121 24.8584 418.109 22.3371 420.855 20.5142C423.602 18.6676 427.046 17.7443 431.189 17.7443C434.977 17.7443 438.28 18.5729 441.097 20.2301C443.938 21.8636 446.14 24.2192 447.702 27.2969C449.288 30.3509 450.069 34.0085 450.046 38.2699V73H434.918V40.9688C434.942 37.607 434.089 34.991 432.361 33.1207C430.657 31.2505 428.266 30.3153 425.188 30.3153C423.128 30.3153 421.305 30.7533 419.719 31.6293C418.157 32.5052 416.926 33.7836 416.026 35.4645C415.15 37.1217 414.7 39.1222 414.676 41.4659Z" fill="#0E00B4"/>
</svg>
