<svg width="42" height="42" viewBox="0 0 42 42" fill="none" xmlns="http://www.w3.org/2000/svg">
<path d="M40.3178 14.3178C42.8178 11.8178 41.6778 8.89781 40.3178 7.47781L34.3178 1.47781C31.7978 -1.02219 28.8978 0.117807 27.4778 1.47781L24.0778 4.89781H18.8978C15.0978 4.89781 12.8978 6.89781 11.7778 9.19781L2.89781 18.0778V26.0778L1.47781 27.4778C-1.02219 29.9978 0.117807 32.8978 1.47781 34.3178L7.47781 40.3178C8.55781 41.3978 9.71781 41.7978 10.8178 41.7978C12.2378 41.7978 13.5378 41.0978 14.3178 40.3178L19.7178 34.8978H26.8978C30.2978 34.8978 32.0178 32.7778 32.6378 30.6978C34.8978 30.0978 36.1378 28.3778 36.6378 26.6978C39.7378 25.8978 40.8978 22.9578 40.8978 20.8978V14.8978H39.7178L40.3178 14.3178ZM36.8978 20.8978C36.8978 21.7978 36.5178 22.8978 34.8978 22.8978H32.8978V24.8978C32.8978 25.7978 32.5178 26.8978 30.8978 26.8978H28.8978V28.8978C28.8978 29.7978 28.5178 30.8978 26.8978 30.8978H18.0778L11.5178 37.4578C10.8978 38.0378 10.5378 37.6978 10.3178 37.4778L4.33781 31.5178C3.75781 30.8978 4.09781 30.5378 4.31781 30.3178L6.89781 27.7178V19.7178L10.8978 15.7178V18.8978C10.8978 21.3178 12.4978 24.8978 16.8978 24.8978C21.2978 24.8978 22.8978 21.3178 22.8978 18.8978H36.8978V20.8978ZM37.4778 11.4778L34.0778 14.8978H18.8978V18.8978C18.8978 19.7978 18.5178 20.8978 16.8978 20.8978C15.2778 20.8978 14.8978 19.7978 14.8978 18.8978V12.8978C14.8978 11.9778 15.2378 8.89781 18.8978 8.89781H25.7178L30.2778 4.33781C30.8978 3.75781 31.2578 4.09781 31.4778 4.31781L37.4578 10.2778C38.0378 10.8978 37.6978 11.2578 37.4778 11.4778Z" fill="#004D99"/>
</svg>
