<svg width="48" height="42" viewBox="0 0 48 42" fill="none" xmlns="http://www.w3.org/2000/svg">
<path d="M3.98216 16.6928L9.60816 22.3368L22.2722 9.63675L16.6442 3.99075L3.98016 16.6908L3.98216 16.6928ZM12.8642 32.9488L17.0842 28.7148C17.2687 28.5292 17.4881 28.382 17.7297 28.2815C17.9714 28.1811 18.2305 28.1294 18.4922 28.1294C18.7538 28.1294 19.0129 28.1811 19.2546 28.2815C19.4962 28.382 19.7156 28.5292 19.9002 28.7148C20.2733 29.0896 20.4827 29.5969 20.4827 30.1258C20.4827 30.6546 20.2733 31.1619 19.9002 31.5368L15.6802 35.7708C16.0533 36.1456 16.2627 36.6529 16.2627 37.1818C16.2627 37.7106 16.0533 38.2179 15.6802 38.5928L12.8622 41.4148C12.6776 41.6 12.4584 41.7469 12.2169 41.8472C11.9755 41.9475 11.7166 41.9991 11.4552 41.9991C11.1937 41.9991 10.9348 41.9475 10.6934 41.8472C10.4519 41.7469 10.2327 41.6 10.0482 41.4148L7.23416 38.5948C6.86044 38.2199 6.65058 37.7121 6.65058 37.1828C6.65058 36.6534 6.86044 36.1456 7.23416 35.7708L10.0482 32.9488C10.2327 32.7635 10.4519 32.6166 10.6934 32.5163C10.9348 32.416 11.1937 32.3644 11.4552 32.3644C11.7166 32.3644 11.9755 32.416 12.2169 32.5163C12.4584 32.6166 12.6796 32.7635 12.8642 32.9488ZM31.1562 20.2488L43.8182 7.54875L41.0042 4.72475L28.3422 17.4248C26.7882 15.8648 26.5182 13.6108 27.7382 12.3848L38.7942 1.29675C40.0142 0.0727539 42.2642 0.342754 43.8182 1.90275L46.6322 4.72275C48.1882 6.28275 48.4582 8.54075 47.2362 9.76275L36.1802 20.8528C34.9602 22.0768 32.7102 21.8068 31.1562 20.2468V20.2488ZM29.3082 27.9808L19.4582 18.1048L18.0502 19.5168L27.9002 29.3948L29.3082 27.9808ZM32.1222 30.8048L30.7142 32.2148L34.2322 35.7428C34.6202 36.1328 35.2522 36.1328 35.6382 35.7428C35.8244 35.5554 35.9289 35.3019 35.9289 35.0378C35.9289 34.7736 35.8244 34.5201 35.6382 34.3328L32.1222 30.8048ZM4.10216 10.9248C3.83574 10.3661 3.74866 9.73862 3.85286 9.12848C3.95705 8.51835 4.24742 7.95537 4.68416 7.51675L7.49816 4.69675C7.93395 4.25893 8.49503 3.96736 9.10379 3.86237C9.71255 3.75739 10.3389 3.84419 10.8962 4.11075L13.8302 1.16875C14.1992 0.798308 14.6377 0.504371 15.1206 0.303807C15.6035 0.103243 16.1213 0 16.6442 0C17.167 0 17.6848 0.103243 18.1677 0.303807C18.6506 0.504371 19.0891 0.798308 19.4582 1.16875L25.0862 6.81475C25.8324 7.56437 26.2513 8.57903 26.2513 9.63675C26.2513 10.6945 25.8324 11.7091 25.0862 12.4588L22.2722 15.2808L38.4522 31.5088C39.3852 32.4458 39.9091 33.7144 39.9091 35.0368C39.9091 36.3591 39.3852 37.6277 38.4522 38.5648C37.9912 39.0283 37.4432 39.3961 36.8396 39.6471C36.2361 39.8981 35.5888 40.0273 34.9352 40.0273C34.2815 40.0273 33.6342 39.8981 33.0307 39.6471C32.4271 39.3961 31.8791 39.0283 31.4182 38.5648L15.2382 22.3368L12.4222 25.1588C10.8682 26.7188 8.34816 26.7188 6.79416 25.1588L1.16616 19.5148C0.419325 18.7651 0 17.75 0 16.6918C0 15.6335 0.419325 14.6185 1.16616 13.8688L4.10016 10.9288L4.10216 10.9248Z" fill="#004D99"/>
</svg>
