<svg width="32" height="44" viewBox="0 0 32 44" fill="none" xmlns="http://www.w3.org/2000/svg">
<path d="M12 42H20M8 28H24M2 16C2 12.287 3.475 8.72601 6.10051 6.1005C8.72602 3.475 12.287 2 16 2C19.713 2 23.274 3.475 25.8995 6.1005C28.525 8.72601 30 12.287 30 16C30.0017 18.2542 29.4566 20.4752 28.4116 22.4725C27.3666 24.4699 25.8528 26.184 24 27.468L22.916 32.6C22.7725 33.5459 22.2947 34.4091 21.5692 35.0329C20.8438 35.6567 19.9188 35.9998 18.962 36H13.038C12.0812 35.9998 11.1562 35.6567 10.4308 35.0329C9.70534 34.4091 9.22752 33.5459 9.084 32.6L8 27.49C6.14658 26.2015 4.63272 24.4833 3.58785 22.4824C2.54298 20.4815 1.99818 18.2573 2 16Z" stroke="#004D99" stroke-width="4" stroke-linecap="round" stroke-linejoin="round"/>
</svg>
